<?xml version="1.0" encoding="utf-8"?>
<!-- Generator: Adobe Illustrator 24.0.0, SVG Export Plug-In . SVG Version: 6.00 Build 0)  -->
<svg version="1.1" id="Capa_1" xmlns="http://www.w3.org/2000/svg" xmlns:xlink="http://www.w3.org/1999/xlink" x="0px" y="0px"
	 viewBox="0 0 1440 1152" style="enable-background:new 0 0 1440 1152;" xml:space="preserve">
<style type="text/css">
	.st0{clip-path:url(#SVGID_2_);fill:#ADDEA6;}
	.st1{opacity:0.45;clip-path:url(#SVGID_2_);fill:#FFFFFF;}
	.st2{clip-path:url(#SVGID_2_);fill:#8FB995;}
	.st3{clip-path:url(#SVGID_2_);fill:#468066;}
	.st4{clip-path:url(#SVGID_2_);fill:#519073;}
	.st5{clip-path:url(#SVGID_2_);}
	.st6{fill:#519073;}
	.st7{clip-path:url(#SVGID_2_);fill:#D78839;}
	.st8{opacity:0.41;clip-path:url(#SVGID_2_);fill:#F2F894;}
	.st9{opacity:0.5;clip-path:url(#SVGID_2_);fill:#F2F894;}
	.st10{opacity:0.63;clip-path:url(#SVGID_2_);fill:#D78839;}
	.st11{fill:#26491F;}
	.st12{fill:#91A0AB;}
	.st13{fill:#66788A;}
	.st14{opacity:0.51;fill:#66788A;}
	.st15{fill:#375E1D;}
	.st16{clip-path:url(#SVGID_2_);fill:#337D51;}
	.st17{fill:#266943;}
	.st18{clip-path:url(#SVGID_2_);fill:#266943;}
	.st19{clip-path:url(#SVGID_2_);fill:#003721;}
	.st20{clip-path:url(#SVGID_2_);fill:#0F442C;}
	.st21{fill:#455C46;}
	.st22{fill:#6CAE32;}
	.st23{clip-path:url(#SVGID_2_);fill:#224D21;}
	.st24{fill:#003721;}
	.st25{clip-path:url(#SVGID_2_);fill:#316211;}
	.st26{fill:#316211;}
	.st27{fill:#3A7C00;}
	.st28{clip-path:url(#SVGID_2_);fill:#207426;}
	.st29{clip-path:url(#SVGID_2_);fill:#2D7534;}
	.st30{clip-path:url(#SVGID_2_);fill:#277D00;}
	.st31{clip-path:url(#SVGID_2_);fill:#0D561E;}
	.st32{clip-path:url(#SVGID_2_);fill:#BE7037;}
	.st33{opacity:0.65;clip-path:url(#SVGID_2_);fill:#965F4A;}
	.st34{opacity:0.42;clip-path:url(#SVGID_2_);}
	.st35{fill:#A15B5D;}
	.st36{clip-path:url(#SVGID_2_);fill:#007139;}
	.st37{clip-path:url(#SVGID_2_);fill:#25571A;}
	.st38{clip-path:url(#SVGID_2_);fill:#54A405;}
	.st39{clip-path:url(#SVGID_2_);fill:#5A903D;}
	.st40{clip-path:url(#SVGID_2_);fill:#234E22;}
	.st41{clip-path:url(#SVGID_2_);fill:#1B431D;}
	.st42{clip-path:url(#SVGID_2_);fill:#214921;}
	.st43{fill:#1B431D;}
	.st44{fill:#254E25;}
	.st45{fill:#234925;}
	.st46{fill:#143510;}
	.st47{fill:#28612B;}
	.st48{clip-path:url(#SVGID_2_);fill:#5B394E;}
	.st49{clip-path:url(#SVGID_2_);fill:#4A2C3F;}
	.st50{fill:none;}
	.st51{fill:#442739;}
	.st52{clip-path:url(#SVGID_2_);fill:#3A7C00;}
	.st53{opacity:0.8;}
	.st54{fill:#E69F08;}
	.st55{fill:#2D454C;}
	.st56{fill:#83AC00;}
	.st57{fill:#F8F7EE;}
	.st58{fill:#AED995;}
	.st59{fill:#549C00;}
	.st60{fill:#84A900;}
	.st61{fill:#9EDC67;}
	.st62{fill:#006728;}
	.st63{fill:#F99056;}
	.st64{fill:#FFAB34;}
	.st65{fill:#8FBDB5;}
</style>
<g>
	<path class="st55" d="M-7.9,0.7v524.1c18.1,0.6,36,7.5,49.7,19.9c10.4,9.5,18.8,21.1,29.6,30.1c9,7.5,19.4,12.3,30.9,13.8
		c25.2,3.4,50.2-6.4,74.7-10.7c13-2.3,26.6-3.4,39.5,0c13.8,3.6,25.1,12.5,35.6,22c17.6,15.9,35.2,34.2,60.4,34.4
		c23.5,0.2,46.5-14.1,58.6-34.3c14.4-24,14.7-54.6,6.1-80.7c-9.1-27.7-27.9-51-48.9-70.4c-10.8-10-23-18.8-31.4-31.1
		c-4.2-6.2-7.5-13.5-6.9-21.1c0.8-9.4,7.4-16.1,14.8-21.1c26.1-17.5,59.3-24.5,90.2-20.9c7.8,0.9,15.3,2.8,22.9,4.7
		c6.7,1.7,13.7,3.3,20.7,2c13-2.4,24.6-13.6,34-22.4c19.2-17.9,34.4-42.4,30.8-69.8c-1.7-13.5-8.1-24.7-18.3-33.5
		c-11.2-9.6-25.9-17.5-30-32.9c-5.2-19.4,15.2-29.1,29.7-34.8c15.2-6,31.6-9.2,47.9-9.2c32.7-0.1,60.8,15.7,92,22.9
		c13,3,26.7,4.1,39.7,0.3c12.3-3.6,22.8-11.4,31.3-21c9-10,16-21.6,23-33c3.9-6.4,8.1-13.1,14.9-16.6c6.7-3.5,14.4-3,21.6-1.6
		c11.8,2.2,23.6,7.1,35.8,5.6c9.9-1.2,17.7-7.1,23.7-15c7.2-9.5,11.8-20.6,18.1-30.6c7.4-11.7,17.4-20.2,30.5-24.6
		c13-4.4,27.2-4.7,40.6-2.7c15.4,2.3,29.8,8.4,44.6,12.6c13.6,3.8,28.1,6.2,41.9,1.9c11.4-3.5,20.8-11.1,28-20.5
		c7.3-9.4,12.5-20.2,16.7-31.3c0.6-1.5,1.2-3,1.7-4.6H-7.9z"/>
	<path class="st55" d="M139.9,1151.3c-1.4,1.6-2.9,3.2-4.4,4.7h403.4c-2-4.6-4.2-9-6.6-13.4c-4.7-8.6-10.1-16.8-15.7-24.9
		c-5.4-7.8-11.6-15.3-16.5-23.5c-2.5-4.2-4.6-8.6-5-13.5c-0.5-5.5,1.4-10.7,2.1-16.1c1.1-7.8-1.1-15.1-6-21.2
		c-11.9-14.7-31.4-14.8-48.5-13.1c-29.5,3-65.9,9.7-92.3-8.2c-32-21.7-27.6-72.3-16.7-104.5c3.3-9.6,7.6-18.8,12.8-27.4
		c0.9-1.5,0.3-3.4-1.1-4.4c-16.8-11-39.1,2.1-55.2,8.4c-21.7,8.6-43.4,17.1-65.2,25.7c-17.8,7-38.7,12.6-53,26.1
		c-12.5,11.8-16.9,28.7-16.8,45.5c0.2,18.5,4.7,36.6,7.8,54.8c3.1,18.5,3.6,37.2-0.1,55.7C159.3,1120,151.8,1137.4,139.9,1151.3z"/>
	<path class="st56" d="M742.9,29.9c-4.1-10.6-10.8-22-19.9-29.6h-49.3c-5.1,3-9.9,6.4-14.4,9.7c-14.1,10.4-26.9,22.4-40.4,33.5
		c-11,9-23.1,18.7-37,22.6c-12.7,3.6-33.5,4.1-38.9-11.2c-6-17.1,6.6-37.6,17.6-49.5c1.7-1.8,3.4-3.5,5.1-5.2H252.9
		c-13.9,36.4-15,76.6-4.1,114.9c15-27.3,25.1-57.9,47.5-80.2c13.3-13.3,39.6-31.3,57.3-15.6c22.7,20.2,4.7,56.3-7.6,76.6
		c-17.9,29.3-37.2,57.5-37.3,93.4c0,20.4,5.4,40.2,16.1,57.4c3.5,5.7,7.4,11,11.6,16.2c3.1,2.7,6.2,5.4,9.5,7.9
		c17,13.1,35.8,23.2,55.6,30.7c-14.7-25.2-24.7-54.4-23.5-83.4c1-24.6,15.4-52.6,39.3-61.5c29-10.8,49.2,18.2,50.1,44.5
		c1.2,33.5-9,70.6,20.4,95.7c12.9,11,31.3,19.3,48,21.7c2.9,0.4,5.7,0.7,8.4,0.9c5.9-0.3,11.9-0.6,17.8-1
		c-12.8-12.3-23.7-27.2-30.9-42.8c-7.6-16.6-12.3-55.5,14.4-57.8c29.5-2.6,34.7,41.4,41.5,60.5c6.4,17.9,17.8,27.2,33.5,34.7
		c24.9-3.1,52.5-5.8,72.7,7.3c6.9,4.5,19.4,0.5,17.4-9.7c-5.6-29.5-5.7-59.5,0.5-89c5.6-26.7,18-50.3,28-75.3
		c-4.3-6.9-11.1-11.7-21.8-12.6c-16.9-1.5-33,4.8-48.8,10.1c-15.7,5.3-53.7,21.8-66.3,1.8c-10.3-16.5,20.3-29.4,30.5-34.1
		c17-7.8,35.9-15.9,54.7-17.7c15-1.4,30.4-1.6,45.5-0.1c5.9,0.6,12.3,1.4,18.5,3c1.2-13.2,0.9-26.5-0.5-39.9
		C748.9,47.9,746.3,38.8,742.9,29.9z"/>
	<path class="st57" d="M626.7,212.9c1.8-0.2,3.5-0.5,5.1-0.8c5.9-1,11.6-2.8,17.3-4.7c10.2-3.3,22.1-8.2,29.3-16.5
		c1.7-1.9-0.4-4.9-2.7-3.6c-9.5,5.1-17.6,11.2-28.2,14.1c-4.9,1.4-10,1.7-15,1.7c-4.8,0.1-10.8-1.6-15.3,0.1
		c-19.5-19.1-40.5-36.4-62.4-52c-9-6.4-18.4-12.2-27.8-18c1.1-0.3,2.2-0.6,3.2-0.8c7.3-1.7,14.5-3.9,21.5-6.5
		c14.3-5.4,27.9-12.5,41.3-20c13.8-7.7,27.2-16.2,41.1-23.7c6.8-3.7,13.7-7.2,20.7-10.4c7.2-3.4,16-5.5,22.6-9.8
		c1-0.6,0.7-2.5-0.6-2.4c-7,0.5-14.2,4.3-20.6,7c-7.2,3.1-14.2,6.5-21.2,10c-13.9,7-27.7,14.3-41.5,21.4
		c-13.8,7.1-27.8,13.8-42.6,18.6c-7.1,2.3-14.3,4.4-21.7,5.8c-4.1,0.8-8.2,1.3-12.4,1.5c-0.4,0-0.7,0-1.1,0.1
		c-1.4-0.9-3.2-1.2-4.8-0.9c-13.4-9.1-24.9-20.1-34.4-33.4c-18.8-26.3-30-57.4-39.1-88.3c-0.1-0.3-0.2-0.6-0.3-0.9h-9.9
		c0.2,0.7,0.5,1.5,0.7,2.2c0.5,3.5,1,6.9,1.1,10.5c0.2,7.1-0.2,14.3-1.4,21.3c-2.3,13.7-7.5,26.7-14.3,38.7
		c-6.6,11.4-14.8,21.5-23,31.6c-7.5,9.2-15.3,19-19,30.5c-1.3,4.1,5.1,7,7,3c11.3-24.9,32.6-42.8,45-67.1
		c6-11.8,10.3-24.5,11.9-37.7c0.3-2.3,0.5-4.8,0.6-7.4c7.1,20,15.4,39.4,26.7,57.5c8.3,13.3,18.2,25.7,30.3,35.7
		c4,3.3,8.1,6.3,12.4,9.2c-0.5,1.7,0.1,3.7,1.3,5c-1,7.6-1.8,15.3-3,22.9c-1.5,9.5-3.4,18.9-4.8,28.4c-1.3,9.1-1.5,18.2-1.6,27.4
		c-0.1,9.3-0.5,18.7,2.4,27.6c0.4,1.1,1.9,0.9,2-0.3c0.8-9.1-0.1-18.3,0.8-27.4c1-9.8,3.2-19.7,4.9-29.4c2.7-15.7,7.2-31.3,9.6-47.1
		c6.1,3.6,12.3,7.1,18.3,10.8c26.8,16.2,51.9,35.2,74.6,56.8c0.1,0.1,0.3,0.3,0.4,0.4c0,0.1,0.1,0.3,0.1,0.4
		c1.5,2.7,2.3,6.9,3.5,9.9c1.2,3.2,2.2,6.4,3.1,9.7c2,7,3.2,14.2,4.5,21.4c2.4,13.3,3.9,29.6,11.3,41.1c0.3,0.5,1.2,0.3,1.2-0.3
		c-0.5-7.5-1.9-15-2.7-22.4c-0.7-7.7-1-15.6-2.1-23.3c-1.1-7.3-2.6-14.7-5.3-21.6c-0.3-0.8-0.7-1.6-1-2.4
		c20.6,21.4,39.1,44.7,56.2,69.2c1.3,1.8,4.3,0.2,3.1-1.8C666.3,258.1,647.6,234.5,626.7,212.9z"/>
	<path class="st58" d="M613.9,992.3c14.5,12.4,31.7,22.1,49.7,28.2c20.2,6.8,41.3,9.2,62.5,7.1c0.5,2.8,1,5.6,1.5,8.4
		c-0.1,0.9,0,1.6,0.4,2.3c1.5,8.5,3.1,16.9,4.7,25.4c-13.9-8-30.9-11.5-46.3-14.7c-7.2-1.5-15-3-22.1,0c-5.3,2.3-10.4,7.6-10.3,13.8
		c0,7.2,7.5,9.4,12.9,11.6c7.9,3.2,15.9,6.1,24.1,8.4c15.1,4.3,31.4,8,47.2,8.1c4.6,21.8,9.6,43.5,15.3,65h9.7
		c-0.4-1.3-0.7-2.7-1.1-4c8.4-4.5,15.9-10.8,23.4-16.5c8.3-6.4,16.4-13,23.9-20.2c12.8-12.4,24.4-26.9,30.7-43.9
		c2.2-6,6.8-17.1,3.9-23.4c-3.6-7.9-14.2-3.2-19.9-1c-17.5,6.8-32.1,20.2-42.9,35.5c-10.4,14.7-17.8,31.4-24.4,48.2
		c-2.3-9.6-4.5-19.3-6.6-28.9c-4.6-21.4-8.8-42.9-12.7-64.4c0.7-1.3,1.4-2.5,2.1-3.8c8.2-1.5,16.4-5.1,23.8-8.3
		c9.4-4,18.4-8.8,26.8-14.7c13.3-9.2,24.7-21.5,31.6-36.4c2.6-5.5,6.6-13.9,3-19.8c-3.5-5.6-11.2-5.7-16.8-4
		c-17.2,5-32.4,17.4-44.3,30.5c-11.4,12.5-20.5,26.8-28.8,41.6c-1.1-6.5-2.3-13-3.4-19.5c-1.4-8.2-2.7-16.4-3.9-24.6
		c15.7-12.6,30.3-26.8,44.9-40.7c7.2-6.8,14.5-13.6,21.4-20.8c5.8-6,13.2-12.5,16.3-20.4c2.5-6.3,0.8-14.3-5.6-17.4
		c-2.9-1.4-6.1-1.4-9.3-1.3c-5.5,0.2-11.2,0.5-16.6,1.8c-18.8,4.3-28.6,21-37.6,37c-6.9,12.2-12.4,25.1-16.7,38.4
		c-1.9-16.4-3.3-33-3.7-49.5c-0.3-11.4-0.2-22.8,0.1-34.2c2-3.1,5.1-6,6.9-7.9c4-4.3,8.5-8.1,13.3-11.5c8.5-6.2,17.6-11.4,26.5-16.9
		c15.3-9.4,30.6-20.5,38.7-37.2c3.7-7.8,6.7-18.6,3.4-27c-3-7.5-10.4-10.7-18-10c-19.7,1.8-34.3,22.6-44.7,37.5
		c-6.9,9.8-13,20.2-18.5,30.9c-2.3,4.4-4.5,9-6.5,13.5c0.2-7,0.4-14.1,0.7-21.1c0.1-4.2,0.5-8.5,0.6-12.8c0.7-0.6,1.2-1.5,1.4-2.8
		c1.8-8.7,4.5-17.1,5.8-25.9c1.2-8.2,1.7-16.4,1.6-24.7c-0.2-17.5-3.4-34.9-9.5-51.3c-2.2-5.8-4.6-15-10.8-17.6
		c-5.8-2.4-12,1.9-15,6.7c-8.1,12.6-3.4,32.9-0.8,46.4c2,10.3,4.8,20.4,8.4,30.2c2.8,7.6,6,15.8,10.2,23c0,0.1-0.1,0.1-0.1,0.2
		c-2.1,8.4-1.6,17.4-1.8,26c0,1.2-0.1,2.3-0.1,3.5c-5.9-14.4-12.7-28.5-20.6-42c-8.4-14.5-18.8-28.5-33.2-37.2
		c-5.1-3.1-11.8-6.1-15.6,0.5c-3.9,6.6-0.3,16.1,1.8,22.8c5.8,18.6,16.9,35.1,28.8,50.1c7.6,9.6,23,33.6,38.1,28.6
		c-0.5,16.3-0.9,32.6-0.8,49c0,3.4,0.1,6.9,0.2,10.3c-3.1-5.6-7.1-10.9-10.8-15.7c-5.7-7.5-12-14.6-18.7-21.2
		c-11.7-11.6-25.8-22.8-42.9-22.8c-13.3,0-31.7,10-24.9,26.1c3.3,7.7,10.9,13,17.6,17.3c7.6,4.9,15.7,9,23.9,12.9
		c9.7,4.5,19.5,8.8,29.1,13.6c9.5,4.8,17.8,11.5,27.2,16.5c0.4,0.2,0.7,0.3,1.1,0.4c1.7,20.5,4.4,41,7.8,61.4
		c1,5.8,1.9,11.7,2.9,17.5c-11.4-15.4-27.6-26.5-43.9-36.2c-9.4-5.5-19-10.7-28.7-15.6c-8.3-4.2-16.7-7.3-26-4.7
		c-8.3,2.3-15.9,8.4-19,16.7C602,979.5,607.1,986.5,613.9,992.3z M788,1088.9c6.1-8.6,13.2-16.5,21.5-22.9c4-3,8.1-5.7,12.6-7.9
		c3.3-1.6,8.7-4.6,13-5c0.1,3.6-2.8,10.7-3.5,12.6c-1.6,4.7-3.7,9.3-6.1,13.7c-4.7,8.7-10.9,16.6-17.6,23.8
		c-7.6,8.2-16.1,15.4-24.6,22.5c-7.4,6.2-15.5,12-22.3,18.9C768.5,1125.4,776.1,1105.9,788,1088.9z M769.7,987.9
		c6.3-7.1,13.4-13.4,21.1-18.7c4.3-2.9,8.8-5.4,13.5-7.5c1.8-0.8,10.1-5,12.2-2.6c1.6,1.9-3,10.5-3.8,12.2c-1.8,3.8-4,7.4-6.5,10.8
		c-5.1,7-11.2,13.1-18,18.3c-8.4,6.5-17.7,11.7-27.2,16.3c-5.2,2.5-10.9,4.6-16.3,7.1C752.1,1011.2,760,998.9,769.7,987.9z
		 M735.9,1080.7c-11-1.2-21.9-2.1-32.9-4.4c-12.9-2.7-25.8-6.5-37.8-11.9c-1.5-0.7-2.3-0.7-2.6-2.2c-0.3-1.8,1.5-3.4,2.8-4.3
		c2.6-1.9,5.9-2.4,9-2.4c6.5,0.1,13.1,1.9,19.3,3.3c13.3,3,26.3,8,39.8,10C734.3,1072.8,735.1,1076.8,735.9,1080.7z M749.6,920.3
		c4.7-8.3,9.9-17.3,16.7-24.1c7.8-7.8,19.6-9.4,30.1-9.3c2.4,0,5-0.1,5.6,3c0.5,2.7-1.9,5.6-3.4,7.6c-3,3.9-6.4,7.6-9.7,11.2
		c-7.3,7.8-15.1,15.1-22.8,22.5c-11.9,11.4-24.1,22.9-35.5,35C735,950.1,741.4,934.6,749.6,920.3z M732.8,840.8
		c4.4-9.2,9.3-18.1,14.7-26.7c5.3-8.4,11-16.5,17.3-24.1c6-7.3,13.5-15.3,22.4-18.7c3-1.2,7.3-2.2,10.4-0.7
		c5.1,2.4,4.2,9.8,3.3,14.3c-1.6,8.4-6.1,15.7-11.4,22.2c-11.5,13.9-27.3,22.4-42.1,32.2c-7.4,4.9-14.5,10.2-20.7,16.5
		C728.7,850.8,730.6,845.6,732.8,840.8z M690.6,822.7c-5.8-6.9-11.5-13.9-16.8-21.2c-5.9-8.1-11.3-16.5-15.6-25.6
		c-1.9-4-3.5-8.1-4.9-12.3c-0.7-2.1-4.6-12.1-3-14.1c1.8-2.3,17.3,13,19,15c5.4,6.3,10.1,13.2,14.2,20.4
		c9.4,16.3,17.2,33.6,23.8,51.2C700.4,834.9,695.6,828.6,690.6,822.7z M693.7,909.4c-8.5-4.6-17.3-8.4-26.1-12.2
		c-8.9-3.9-18-7.6-26.5-12.4c-7-3.9-23.4-12.3-21.3-22.5c2.2-10.6,18.3-11.3,26.2-9.4c9.5,2.2,17.6,8.2,24.8,14.6
		c7.8,7,15,14.6,21.6,22.8c6.4,7.9,11.6,17,18.2,24.6c0.2,0.2,0.4,0.4,0.6,0.5c0.1,1.7,0.2,3.3,0.3,5
		C706.2,916,699.6,912.6,693.7,909.4z M720,789.8c-0.2-0.1-0.4-0.2-0.7-0.3c-3.1-7.1-6.7-14-9.3-21.4c-3.3-9.3-5.9-18.8-7.7-28.6
		c-1.7-9-3-18.4-3.1-27.6c-0.1-4.2,0.2-8.9,1.9-12.7c2.2-5,7.2-8.3,10.2-1.5c7.1,16.2,11,33.9,11.9,51.5
		C723.9,762,723.4,776.6,720,789.8z M626.9,961c9.1-2.2,17.2,2.9,25,7c8.5,4.4,16.9,8.9,25.1,13.8c16.7,10,31.8,22.1,45.8,35.7
		c-30.7,2.9-62.7-4.1-89.1-20.5c-6.5-4.1-14.4-8.8-19.4-14.9C607,973.1,618.6,963,626.9,961z"/>
	<path class="st56" d="M794.9,1105.4c5.2,13.3,16,28.2,31.6,27.9c11.1-0.2,21.3-7.1,30-13.6c10.3-7.7,19.7-16.6,29.6-24.8
		c8.1-6.7,16.9-13.8,27.1-16.8c9.3-2.7,24.6-3.2,28.6,8.1c4.5,12.5-4.7,27.7-12.8,36.5c-10.7,11.7-24.3,20.2-38.1,27.7
		c-3.5,1.9-7.2,3.8-10.9,5.7h258.5c1.2-1.5,2.3-3.1,3.4-4.7c22.2-32.7,27-73,16.1-110.7c-10.9,20.2-18.2,42.7-34.6,59.2
		c-9.7,9.8-29,23.2-42.1,11.7c-16.7-14.7-3.7-41.4,5.3-56.3c13-21.6,27.1-42.4,27-68.9c-0.1-15-4.1-29.5-12-42.2
		c-2.6-4.2-5.5-8.1-8.6-11.9c-2.3-2-4.6-3.9-7-5.8c-12.5-9.6-26.4-16.9-41-22.4c10.9,18.5,18.4,39.9,17.6,61.2
		c-0.6,18.1-11.1,38.7-28.7,45.4c-21.3,8.1-36.2-13.2-37-32.5c-1-24.6,6.3-52-15.4-70.3c-9.5-8-23.1-14.1-35.4-15.8
		c-2.1-0.3-4.2-0.5-6.2-0.6c-4.4,0.2-8.7,0.5-13.1,0.8c9.5,9,17.5,19.9,22.9,31.4c5.7,12.2,9.3,40.8-10.3,42.6
		c-21.7,2-25.7-30.3-30.8-44.3c-4.8-13.1-13.2-19.9-24.7-25.4c-18.3,2.4-38.6,4.5-53.5-5.1c-5.1-3.3-14.2-0.3-12.8,7.2
		c4.2,21.7,4.4,43.7,0,65.4c-4,19.7-13.1,37.1-20.3,55.5c3.2,5.1,8.2,8.5,16.1,9.2c12.5,1.1,24.3-3.6,35.8-7.6
		c11.5-4,39.4-16.2,48.7-1.6c7.7,12.1-14.8,21.7-22.3,25.2c-12.5,5.8-26.4,11.8-40.2,13.2c-11.1,1.1-22.4,1.3-33.4,0.3
		c-4.4-0.4-9.1-1-13.6-2.1c-0.8,9.7-0.6,19.5,0.5,29.3C790.5,1092.2,792.4,1098.9,794.9,1105.4z"/>
	<path class="st57" d="M1033.9,1126.6c-2.9-19.9-16-38.1-29.5-52.2c-15.2-15.9-32.8-29.5-49.5-43.6c-17.2-14.5-34.4-28.8-51.6-43.2
		c-14.7-12.3-29.4-24.6-42.4-38.7c-7.4-7.9-14.3-16.3-20.3-25.3c-6-9-10.4-18.6-15.3-28.3c-0.8-1.5-3-0.4-2.6,1.1
		c4.4,17.4,15.8,33.5,26.9,47.1c12.1,14.8,26,28.1,40.2,40.8c16.1,14.4,32.6,28.3,48.9,42.4c17,14.7,34.5,28.7,50.9,44
		c8.7,8.1,16.9,16.8,23.5,26.7c6.6,9.8,11.4,20.5,17.2,30.8C1031.4,1130.4,1034.2,1128.8,1033.9,1126.6z"/>
	<path class="st59" d="M8.1,1097.3c1.9,12.4,4.5,25.3,9.6,36.8c-9.5,7.1-19,14.4-28.2,21.9H1.4c4.2-3.3,8.4-6.6,12.7-9.8
		c13.5-10.2,27.2-20.2,41-29.9c1.1,0.1,2.2,0.2,3.3,0.3c3.7,5.4,8.8,10.2,13.5,14.6c5.9,5.5,12.1,10.5,18.9,14.7
		c8,4.9,16.9,8.6,26.1,10.2h19.7c1.9-0.6,3.6-1.7,4.7-3.3c2.8-4.4,0.4-9.9-2.6-13.5c-9-10.8-22.6-17.8-35.6-22.3
		c-12.4-4.3-25.4-6.2-38.4-7.4c4.2-2.9,8.4-5.8,12.6-8.8c5.3-3.7,10.6-7.3,16-10.8c13.9,7.3,28.6,13.3,43,19.4
		c7.1,3,14.2,6.1,21.5,8.8c6,2.2,13,5.5,19.6,5.2c5.2-0.2,10.3-4,10.4-9.7c0-2.6-1-4.9-2.1-7.1c-1.9-3.9-4-7.9-6.6-11.4
		c-9.1-12.2-24-13.9-38-15.3c-10.8-1-21.6-0.9-32.3,0.3c10.9-6.7,22-13,33.5-18.7c7.9-3.9,15.9-7.5,24-11c2.8,0.5,5.9,1.8,7.7,2.4
		c4.3,1.5,8.4,3.6,12.3,5.9c7.1,4.1,13.7,9,20.4,13.7c11.5,8,24.2,15.6,38.6,16c6.7,0.2,15.2-1.2,20-6.3c4.3-4.6,4.1-11,1.2-16.3
		c-7.6-13.7-26.9-17.6-40.7-20.3c-9.1-1.8-18.3-2.9-27.6-3.5c-3.9-0.2-7.7-0.3-11.6-0.3c5-2.1,10-4.2,15-6.3c3-1.3,6.1-2.4,9.2-3.7
		c0.7,0.3,1.5,0.4,2.4,0.1c6.7-1.5,13.4-2.3,20-4.2c6.1-1.8,12.1-4.1,17.8-6.8c12.2-5.8,23.4-13.7,32.9-23.4c3.4-3.4,9-8.1,8.8-13.5
		c-0.2-4.9-5.2-8-9.5-8.7c-11.4-1.8-24.1,8.1-32.8,14.4c-6.5,4.7-12.8,10-18.4,15.8c-4.4,4.5-9.1,9.4-12.8,14.8c-0.1,0-0.1,0-0.2,0
		c-6.6,1.1-12.7,4.5-18.8,7.1c-0.8,0.3-1.6,0.7-2.5,1c8.2-9,15.9-18.4,22.8-28.4c7.4-10.8,13.9-22.8,15.3-36.1
		c0.5-4.7,0.5-10.5-5.4-11.1c-5.9-0.7-11.4,5-15.4,8.7c-11.1,10.2-19.1,23.5-25.8,37c-4.3,8.6-16.1,27.5-7.7,36.8
		c-11.6,4.9-23.2,9.9-34.6,15.2c-2.4,1.1-4.8,2.3-7.2,3.5c2.9-4.1,5.3-8.6,7.5-12.9c3.4-6.6,6.3-13.4,8.8-20.4
		c4.3-12.2,7.7-26,2.1-38.4c-4.3-9.6-17.2-19.8-26.3-9.6c-4.3,4.8-5.6,12-6.4,18.3c-1,7.1-1.2,14.3-1.3,21.5
		c-0.1,8.5,0.1,17-0.1,25.4c-0.3,8.5-2.3,16.6-2.8,25c0,0.3,0,0.6,0.1,0.9c-13.9,7.8-27.3,16.4-40.5,25.4c-3.8,2.6-7.6,5.2-11.3,7.7
		c7.1-13.2,9.7-28.6,11.2-43.4c0.9-8.6,1.3-17.2,1.7-25.8c0.3-7.4-0.3-14.4-5.1-20.3c-4.3-5.2-11-8.8-17.8-8.4
		c-7.6,0.5-10.9,6.5-12.8,13.2c-4,14.5-5.3,30.1-3.7,45.1c1.7,16.8,6.9,32.9,15.2,47.5c-1.8,1.3-3.6,2.5-5.4,3.8
		c-0.6,0.2-1.1,0.6-1.5,1c-5.4,3.8-10.9,7.7-16.2,11.6c1.1-12.6-1.9-26.1-4.7-38.3c-1.3-5.7-2.7-11.9-7.2-16c-3.3-3.1-8.6-5.1-13-3
		c-5,2.3-4.2,8.5-4,13.1C6.4,1083.9,7.1,1090.6,8.1,1097.3z"/>
	<g>
		<path class="st59" d="M1436.6,863.4c-3.7-9.6-7.3-19.2-10.6-28.8c-7.2-20.7-13.2-42-15.3-63.9c-2-20.8-0.3-41.7-0.2-62.5
			c0.1-37.3-7.3-78.5-42.5-98c-33-18.3-78.1-3.8-86.9,35.6c-4.2,18.7-0.7,38.3,4,56.6c5.4,21.3,13.2,42,22.3,62
			c18.8,41.5,42.9,80.2,64.5,120.2c21.2,39.1,40.1,80.1,47.7,124.5c6.3,36.8,4.9,75.1-3.3,111.6c-6.6,10.8-10.3,22.8-11.8,35.4h19.4
			c4.6-6.9,8.8-14.1,12.7-21.5V863.4z"/>
		<g>
			<path class="st57" d="M1436.6,967.4v-14.5c-0.7-2.4-1.5-4.7-2.3-7c-12.6-36.6-32.7-69.8-49.2-104.6
				c-16.6-35.1-28.4-72.5-39.1-109.8c-9.9-34.5-17.4-72.1-5.1-107c0.9-2.5-3-3.7-3.9-1.2c-10.6,30.2-6.8,62.8,0.7,93.2
				c4.1,16.4,9.2,32.5,14.3,48.5c6,19.1,12.3,38.1,19.9,56.6c14.8,35.9,35.3,69,50.6,104.7C1428.2,939.6,1433.1,953.3,1436.6,967.4z
				"/>
			<path class="st57" d="M1436.6,1107c-1.2,4.9-2.7,9.7-4.6,14.3c-3.4,8.4-8.4,16-14.1,23c-0.6,0.7,0.2,1.6,1,1
				c8.5-6.8,14-16.6,17.8-27V1107z"/>
		</g>
		<g>
			<path class="st57" d="M1306.6,648c6.1,15.8,15.2,30.6,24.8,44.4c0.6,0.9,1.7,1.2,2.6,0.4c12.8-11.4,26.7-22.6,41.7-30.9
				c2.4-1.3,0.2-5.3-2-3.8c-7.2,4.9-14.5,9.6-21.5,14.9c-7.1,5.4-13.9,11.2-20.5,17.3c0.8,0,1.6,0,2.4,0.1
				c-9.9-13.7-17.8-28.4-25.7-43.4C1307.7,645.8,1306.1,646.8,1306.6,648L1306.6,648z"/>
		</g>
		<g>
			<path class="st57" d="M1312.4,702.9c3,8.3,7.8,16,12.8,23.1c2.7,3.8,5.6,7.6,8.7,11.1c2.5,2.8,5.4,7.1,8.8,8.7c2.5,1.2,5,0,6.6-2
				c2.7-3.5,4.2-8.2,6.4-12c2.1-3.7,4.4-7.3,6.8-10.8c1.3-1.9,2.7-3.8,4.2-5.6c0.9-1.1,1.7-2.1,2.6-3.2c0.6-0.7,1.9-1.4,1-2.2
				c-0.3-0.5-0.5-1-0.8-1.4c0,0,0-0.1,0-0.1c0.5-0.2,1.1-0.4,1.6-0.6c-0.1,0-0.2-0.1-0.2-0.1c-1.4-0.6-2.1,1.3-1.4,2.2
				c0.1,0.1,0.1,0.1,0.2,0.2c0.4,0.5,1.1,0.5,1.7,0.3c1.7-0.7,1.7-3.1,0-3.8c-2.9-1.4-5.6,3.6-7,5.4c-5.7,7.1-10.6,14.7-14.6,22.9
				c-1,2-1.8,4.2-3,6.1c-2.2,3.5-5-0.2-6.8-2.1c-3.4-3.5-6.6-7.2-9.7-11.1c-6.3-8-11.1-16.8-16.4-25.5
				C1313.6,701.5,1312.1,701.9,1312.4,702.9L1312.4,702.9z"/>
		</g>
		<g>
			<path class="st57" d="M1332,761.4c3.2,5.6,7,11,11.5,15.6c2.2,2.2,4.6,4.3,7,6.3c2.4,1.9,5.2,4.4,8.1,5.5
				c1.7,0.7,3.2,0.3,4.5-1.1c2.4-2.5,4.2-5.9,6.2-8.7c4.5-6.5,9.2-13,13.6-19.6c1.5-2.2-2-4.3-3.5-2.2c-3.7,5.2-7.3,10.6-11,15.9
				c-1.7,2.5-3.4,5-5.1,7.4c-0.7,1-1.3,2.2-2.2,3.2c-1.5,1.7-1.6,1.5-3.5,0.3c-9.6-5.8-18.2-14-24.4-23.5
				C1332.9,759.8,1331.5,760.5,1332,761.4L1332,761.4z"/>
		</g>
		<g>
			<path class="st57" d="M1341.1,810.2c8.7,9.7,21,17.7,33.1,22.2c6.2,2.3,6.2-3.9,7.4-8.4c1.7-6.8,4.7-12.9,8.7-18.7
				c1.5-2.2-2-4.4-3.5-2.2c-3,4.5-5.4,9.5-7.2,14.7c-0.9,2.7-1.6,5.4-2.1,8.2c-0.2,1.1,0,2.9-1.3,3.3c-0.7,0.2-2.7-1.1-3.4-1.4
				c-11-4.9-20.8-11.9-30.8-18.7C1341.3,808.9,1340.7,809.7,1341.1,810.2L1341.1,810.2z"/>
		</g>
		<g>
			<path class="st57" d="M1375.9,858.2c6,3.2,12.2,5.8,18,9.6c0.8,0.5,2.1,0.3,2.6-0.6c3.8-7.4,7.7-14.7,11.4-22.1
				c1.1-2.3-2.2-4.4-3.4-2.1c-3.9,7.3-7.5,14.8-11.3,22.2c0.9-0.2,1.7-0.4,2.6-0.6c-5.9-3.8-12.5-7.2-19.5-8
				C1375.5,856.4,1375.1,857.8,1375.9,858.2L1375.9,858.2z"/>
		</g>
		<g>
			<path class="st57" d="M1400.7,902.7c4.8,2.3,9.8,3.7,14.4,6.3c1.1,0.6,2.5,0.1,2.9-1.1c2.1-6.3,4.1-12.7,6-19
				c0.8-2.6-3.1-3.8-3.9-1.2c-2,6.4-4,12.7-5.8,19.1c1-0.4,1.9-0.7,2.9-1.1c-4.8-2.5-10.3-5.1-15.7-5.3
				C1400.2,900.3,1399.5,902.1,1400.7,902.7L1400.7,902.7z"/>
		</g>
		<g>
			<path class="st57" d="M1436.6,941.5c0,0.1,0,0.1-0.1,0.2c-0.6,1.6-1.1,3.3-1.8,4.8c-0.2,1-0.7,1.8-1.4,2.5
				c-0.5-0.3-1.1-0.6-1.6-0.9c-5.2-3-10.4-5.9-15.6-8.9c-1.3-0.8-2.6,1.3-1.3,2.1c3.5,2.2,7,4.4,10.5,6.6c2.3,1.5,5.5,4.5,8.4,4.8
				c1.4,0.1,2.3-0.6,2.9-1.7V941.5z"/>
		</g>
		<g>
			<path class="st57" d="M1436.6,988.9c-2.3-2.5-4.7-5-7.1-7.5c-0.7-0.7-1.6,0.3-1,1c2.7,3.6,5.4,7.1,8.1,10.7V988.9z"/>
		</g>
		<g>
			<path class="st57" d="M1436.6,1070.3c-0.8-1-1.5-2-2.2-3c-0.7-1-2.4,0.2-1.8,1.3c1.4,2.2,2.7,4.4,4,6.6V1070.3z"/>
		</g>
	</g>
	<g>
		<path class="st60" d="M1036.6,991.4c27.1,19.8,61.8,27.5,93,38.1c32,10.8,64.1,22.8,92.2,42c16.1,10.9,29.9,24.1,42.1,39.3
			c12.7,16,24.5,32.8,41.3,44.8c0.2,0.1,0.4,0.3,0.6,0.4h94.6c-8.5-10.8-18.4-20.4-28.1-30.3c-14.4-14.8-24.7-30.7-32.9-49.8
			c-7.1-16.8-14-33.3-24.1-48.6c-8.9-13.5-19.6-25.6-31.5-36.4c-23.6-21.3-52.3-36.7-83-44.1c-15.4-3.7-30.8-4.9-46.6-5.4
			c-17.2-0.5-34.9-0.6-51.3-6.4c-16.6-5.9-30.2-18.6-47.1-23.8c-14-4.4-31.3-3.9-41.8,7.7C992.7,942.5,1016.7,976.9,1036.6,991.4z"
			/>
		<g>
			<path class="st57" d="M1095.2,979.5c13.9,3.2,28.1,5,42.1,7.4c14.7,2.5,29.3,5.9,43.5,10.5c13.8,4.4,27.6,9.6,40.3,16.7
				c12.5,6.9,23.7,15.7,33.7,26c19.9,20.3,35.1,44.7,52.6,67c15,19.1,32.3,37.5,53.7,48.9h11.2c-49.2-21.1-73.2-74.2-107.5-112.5
				c-9.3-10.4-19.6-19.9-31.1-27.6c-11.6-7.7-24.3-13.6-37.3-18.4c-13.3-5-26.9-8.9-40.8-12c-13.8-3.1-27.9-5-41.9-7.2
				c-29.3-4.7-62.2-13.6-78.8-41c-1.1-1.9-4.2-0.5-3.1,1.5C1045.1,962.1,1070.3,973.7,1095.2,979.5z"/>
		</g>
		<g>
			<path class="st57" d="M1032.8,964.4c11.6,2.6,23.6,2.8,35.4,2.1c1.4-0.1,2.4-2,1.7-3.2c-5.3-9.9-8.4-20.5-9.3-31.7
				c-0.2-3.1-5-2.3-4.7,0.8c1,11.6,4.3,22.7,9.9,32.9c0.6-1.1,1.1-2.2,1.7-3.2c-11.5,0.8-22.9-0.1-34.3-1.1
				C1030.9,960.7,1030.7,963.9,1032.8,964.4L1032.8,964.4z"/>
		</g>
		<g>
			<path class="st57" d="M1078.1,996.4c12.5-5.2,25-10,38.4-12.5c1.8-0.3,2.2-2.3,1.3-3.7c-3.2-5-6.4-10-9.6-14.9
				c-1.6-2.5-3.2-5-4.8-7.4c-1.5-2.2-2.7-4.8-5-6.2c-1.2-0.7-2.7,0.1-2.5,1.6c0.3,2.6,1.9,4.5,3.3,6.5c1.7,2.6,3.5,5.3,5.2,7.9
				c3.4,5.1,6.7,10.2,10,15.4c0.4-1.2,0.9-2.5,1.3-3.7c-13.5,2.6-27.2,6.8-38.9,14.4C1075.4,994.8,1076.4,997.1,1078.1,996.4
				L1078.1,996.4z"/>
		</g>
		<g>
			<path class="st57" d="M1133.9,1011.4c5.3-3.2,10.8-6.1,16.1-9.5c5.1-3.2,10.1-6.7,15.1-10.1c1.1-0.7,0.9-2.4,0.3-3.3
				c-6.6-9.2-13.2-18.6-20-27.7c-1.8-2.4-5.3,0.6-3.6,3.1c6.5,9.3,13.3,18.4,20.1,27.6c0.1-1.1,0.2-2.2,0.3-3.3
				c-5,3.4-10.1,6.8-15,10.4c-4.9,3.6-9.5,7.5-14.3,11.2C1132,1010.4,1132.9,1012,1133.9,1011.4L1133.9,1011.4z"/>
		</g>
		<g>
			<path class="st57" d="M1176.1,1024.7c6.9-7.8,14.7-14.8,23.9-19.8c1.2-0.6,1.5-1.8,1.1-3.1c-1.7-5.7-3.2-11.5-4.3-17.3
				c-1.1-5.6-1.1-11.6-2.4-17.1c-0.6-2.3-4-2.4-4.2,0.1c-0.5,5.9,1.1,12.5,2.2,18.3c1.2,6.1,2.7,12,4.6,17.9c0.4-1,0.7-2.1,1.1-3.1
				c-9.8,5.4-18.5,12.6-24.4,22.3C1172.6,1024.6,1174.9,1026.1,1176.1,1024.7L1176.1,1024.7z"/>
		</g>
		<g>
			<path class="st57" d="M1210.4,1038.3c4.8-0.1,9.8-3,14-5c5.1-2.4,10.2-4.7,15.3-7.2c0.9-0.4,1.5-1.5,1.3-2.5
				c-1.1-6.6-2.1-13.3-2.8-20c-0.4-3.3-0.7-6.7-0.9-10c-0.2-3,0.1-6.5-1.2-9.2c-0.7-1.4-2.8-1.4-3.3,0.1c-1,2.7-0.4,5.8-0.2,8.6
				c0.2,3.6,0.6,7.1,0.9,10.7c0.7,6.9,1.7,13.8,2.9,20.6c0.4-0.8,0.9-1.7,1.3-2.5c-5.1,2.4-10.2,4.9-15.3,7.3
				c-4.2,2-9.6,4.1-12.8,7.7C1209.4,1037.4,1209.8,1038.3,1210.4,1038.3L1210.4,1038.3z"/>
		</g>
		<g>
			<path class="st57" d="M1245.2,1060.4c2.5,0,4.8-1.2,7.1-2.2c2.9-1.2,5.9-2.5,8.8-3.8c2-0.9,4.4-1.7,5.8-3.5
				c1.2-1.6,1.2-3.7,1.3-5.7c0.4-6,0.7-12,1-18c0.2-3,0.3-6,0.5-9c0.2-2.9,0.7-5.9-0.2-8.7c-0.5-1.6-2.7-1.1-3.3,0.1
				c-0.9,2.2-0.8,4.5-0.9,6.8c-0.1,2.6-0.3,5.1-0.4,7.7c-0.3,5.4-0.5,10.7-0.8,16.1c-0.1,2.2,0.2,5.2-0.5,7.3
				c-0.7,2.3-5.1,3.6-7.2,4.7c-3.8,1.9-9.1,3.7-11.9,7.1C1244.4,1059.7,1244.7,1060.4,1245.2,1060.4L1245.2,1060.4z"/>
		</g>
		<g>
			<path class="st57" d="M1273.7,1087.6c6.1,1.1,12.7,2.7,18.9,2.5c5.4-0.1,5.1-4.7,4.9-8.8c-0.3-6-0.2-12.1,0.4-18.1
				c0.3-2.7,0.6-5.4,1.1-8.1c0.5-2.8,1.6-5.7,1.2-8.5c-0.2-1.6-2.3-2-3.2-0.7c-2.3,3.3-2.4,8.9-3,12.8c-0.6,4.8-1,9.7-1,14.5
				c0,2.1,0,4.3,0.1,6.4c0,1.1,0.3,2.4,0.2,3.5c0.4,1.2-0.1,2.1-1.5,2.7c-0.4,0-0.9-0.1-1.3-0.1c-2.4,0.3-5.3-0.3-7.7-0.4
				c-3-0.1-6-0.2-9-0.2C1272.4,1085.2,1272.1,1087.3,1273.7,1087.6L1273.7,1087.6z"/>
		</g>
		<g>
			<path class="st57" d="M1300.6,1125.9c7.2,0.4,14.5-0.8,21.5-2.4c1.1-0.2,1.9-1.3,1.7-2.5c-1.3-7.8-1.4-15.5-0.3-23.3
				c0.4-2.9-4.1-3.4-4.5-0.4c-1.1,8.1-0.9,16.4,0.6,24.5c0.6-0.8,1.2-1.6,1.7-2.5c-6.9,1.9-13.9,2.9-20.9,4.2
				C1299.2,1123.7,1299.2,1125.8,1300.6,1125.9L1300.6,1125.9z"/>
		</g>
		<g>
			<path class="st57" d="M1338.1,1150.6c3.4-2.6,6.9-4.8,11.1-5.6c1.4-0.3,2-1.7,1.5-2.9c-0.8-2.1-1.4-4.3-1.8-6.6
				c-0.3-1.9,0-3.7-1-5.4c-0.6-0.9-2.1-1.4-2.8-0.2c-2.2,3.8,0.3,10.2,1.8,14c0.5-1,1-2,1.5-2.9c-4.9,1.2-9.5,3.7-12,8.3
				C1336,1150.3,1337.1,1151.4,1338.1,1150.6L1338.1,1150.6z"/>
		</g>
	</g>
	<g>
		<path class="st61" d="M1122.3,804.6c33.9,33.9,70.9,64.7,103.1,100.3c16.6,18.3,31.6,38,44.4,59.3c12.5,20.8,23.2,42.7,33.7,64.6
			c10.6,22.3,21,44.8,32.9,66.5c8.7,16,18.1,32.1,29.5,46.4c-0.2,0.3-0.2,0.7,0,1.2c0.1,0.1,0.1,0.3,0.2,0.4c2,4.5,4.4,8.7,7.2,12.7
			h48.8c3.8-14-2.4-29.5-8.9-42.1c-10.6-20.6-21.2-41.3-29.2-63.1c-8.3-22.6-13.1-45.7-14.6-69.8c-1.4-22.9-2.4-45.5-8.7-67.7
			c-5.8-20.5-14.9-40.1-26.3-58c-24.3-38.2-57.9-66.2-95.3-90.4c-19.4-12.6-38.4-25.3-55.4-41.2c-14.4-13.5-28-28-43.5-40.1
			c-14-10.9-30.7-20.9-48.6-22.8c-8.5-0.9-17.7,0.7-23.2,7.9c-5.1,6.6-6.2,16.1-6.8,24.2C1058.8,738.5,1092.6,775,1122.3,804.6z"/>
		<g>
			<path class="st57" d="M1407.6,1148.2c-48.5-63.6-63.8-144.2-93.8-217.1c-13.4-32.5-29.7-64.1-52-91.3
				c-11.1-13.5-23.7-25.8-37.9-35.9c-15.3-10.9-32.4-18.3-48.9-27c-36.7-19.3-67.1-49.9-86.6-86.9c-1.3-2.6-5.1-0.2-3.8,2.4
				c17,32.6,42.4,60.3,73.1,79.9c15.8,10.1,33.3,17,49.5,26.4c15.3,8.8,29.1,20.1,41.4,33c51.9,54.5,71.8,130.1,96.2,199.5
				c14.8,42,32.2,83.7,59.6,119C1406,1152,1409.1,1150.1,1407.6,1148.2L1407.6,1148.2z"/>
		</g>
		<g>
			<path class="st57" d="M1090.5,742.3c12.5,2.4,25.7,2,38.3,1.7c1.1,0,2.2-1.1,2.1-2.3c-0.6-6.4-1.3-12.8-2.2-19.2
				c-0.4-2.9-0.8-5.7-1.3-8.6c-0.5-3-0.6-6.3-2-9c-0.7-1.4-3.3-1.1-3.5,0.6c-0.3,2.8,0.5,5.6,1,8.5c0.5,3.1,1,6.2,1.4,9.2
				c0.9,6.2,1.6,12.3,2.3,18.5c0.7-0.8,1.4-1.5,2.1-2.3c-12.6,0.6-25.3-0.3-37.9,0.5C1089.5,740.1,1089.2,742,1090.5,742.3
				L1090.5,742.3z"/>
		</g>
		<g>
			<path class="st57" d="M1128.8,785.9c10.8-6.2,22-11.2,34.4-12.9c1.7-0.2,2.9-2,1.9-3.7c-7.9-12.8-7.1-28.5-6.3-43
				c0.2-3.1-4.5-2.9-4.7,0.2c-0.9,15.4-1.5,31.9,7,45.4c0.6-1.2,1.3-2.5,1.9-3.7c-13.1,1.8-26,6.5-36.1,15.4
				C1125.6,784.8,1127.4,786.7,1128.8,785.9L1128.8,785.9z"/>
		</g>
		<g>
			<path class="st57" d="M1164.8,819.2c4.4,0.4,9.1-1.2,13.3-2.3c4.5-1.2,8.9-2.6,13.2-4.2c8.7-3.2,17.1-7.2,25.2-11.7
				c1.1-0.6,1.5-2.4,0.8-3.4c-9.1-11.6-16-24.7-20.4-38.8c-1-3.1-5.6-1.6-4.7,1.4c4.5,14.6,11.6,28.1,21,40c0.3-1.1,0.5-2.3,0.8-3.4
				c-8.1,4.6-16.4,8.6-25,12c-4.1,1.7-8.3,3.2-12.5,4.6c-4,1.4-8.4,2.3-12.1,4.5C1163.8,818.3,1164.2,819.2,1164.8,819.2
				L1164.8,819.2z"/>
		</g>
		<g>
			<path class="st57" d="M1259.7,840.6c-4.5-2.4-10.2-2.7-15.2-2.9c-5.3-0.2-10.6,0.1-15.8,0.9c-10.4,1.6-20.9,4.8-30,10.2
				c-2.7,1.6-0.2,5.4,2.5,4.1c9.1-4.7,18.5-8.3,28.7-9.9c4.9-0.7,9.8-1.1,14.7-1c4.8,0.1,9.8,1.1,14.6,0.6
				C1260.3,842.5,1260.7,841.1,1259.7,840.6L1259.7,840.6z"/>
		</g>
		<g>
			<path class="st57" d="M1267.3,851.8c-3-8.4-6.7-16.2-8.5-25.1c-1.9-9-2.5-18.5-1.1-27.6c0.6-3.6-4.7-4.2-4.9-0.5
				c-0.5,9.5-0.2,18.9,1.8,28.2c1.9,8.8,5,18.8,10.6,25.9C1265.9,853.7,1267.7,853.2,1267.3,851.8L1267.3,851.8z"/>
		</g>
		<g>
			<path class="st57" d="M1245.3,890.4c3.7,0.5,7.6-0.3,11.3-0.9c4.2-0.6,8.3-1.3,12.5-1.9c7-1.1,14.4-2,20.9,1.3
				c1.3,0.6,2.7-0.3,2.7-1.7c0.1-7.7,0.4-15.3,1.1-23c0.3-3.9,0.8-7.7,1.3-11.5c0.5-3.7,1.5-7.5,1.6-11.3c0.1-2.3-3.2-2.4-3.8-0.4
				c-1.1,3.8-1.3,8.1-1.8,12c-0.4,3.6-0.8,7.2-1.1,10.7c-0.7,7.8-1,15.7-1,23.6c0.9-0.6,1.8-1.2,2.7-1.7c-6.7-3.3-14.1-2.9-21.3-1.8
				c-4,0.6-8,1.3-12,2c-4.4,0.8-9.3,1.3-13.4,3.2C1244.5,889.3,1244.7,890.3,1245.3,890.4L1245.3,890.4z"/>
		</g>
		<g>
			<path class="st57" d="M1269.1,929c11.7-0.4,23,0.9,34.3,3.6c1.2,0.3,2.4-0.7,2.3-2c-0.4-8.2,1.8-16,5.3-23.3
				c1.6-3.5,3.5-6.9,5.5-10.3c1.9-3.2,4.7-6.4,5.8-10c0.7-2.1-2-2.9-3.3-1.8c-2.9,2.7-4.9,7.2-6.9,10.6c-2.1,3.6-4.1,7.4-5.7,11.2
				c-3.1,7.5-5,15.4-4.5,23.6c0.8-0.7,1.6-1.3,2.3-2c-11.5-2.5-23.5-3.5-35.3-3C1266.9,925.8,1267,929,1269.1,929L1269.1,929z"/>
		</g>
		<g>
			<path class="st57" d="M1300.8,967.5c5.2,0.6,10.5,1,15.7,2c3.5,0.6,9.2,3.5,11.9,0c1.6-2,2.7-4.8,3.9-7.1
				c1.4-2.6,2.9-5.3,4.3-7.9c3-5.5,6.1-10.9,9-16.4c1.3-2.6-2.5-4.6-4-2.1c-5.3,9.1-10,18.6-15,27.8c-0.6,1.1-1,2.6-2.1,2.9
				c-1,0.3-2.4-0.4-3.3-0.6c-2.2-0.5-4.5-0.8-6.8-1.1c-4.5-0.5-9.1-0.6-13.5,0.1C1299.9,965.4,1299.4,967.3,1300.8,967.5
				L1300.8,967.5z"/>
		</g>
		<g>
			<path class="st57" d="M1319.6,1004.2c6.9,2.5,13.4,5.9,19.2,10.5c1.1,0.9,2.9,0.8,3.5-0.6c1.6-3.6,3.6-6.9,6.2-9.8
				c2-2.3,5.7-4.1,6.4-7.1c0.2-0.8-0.3-1.8-1.2-1.9c-3.5-0.4-6.4,3.4-8.6,5.9c-2.8,3.2-5.1,6.9-6.8,10.8c1.2-0.2,2.3-0.4,3.5-0.6
				c-6.4-4.9-13.7-8.3-21.7-9.7C1318.5,1001.3,1318.1,1003.6,1319.6,1004.2L1319.6,1004.2z"/>
		</g>
		<g>
			<path class="st57" d="M1336.2,1048c6.3,2.3,12.6,4.7,18.8,7.3c1.1,0.5,2.5,0.2,3.1-1c2.6-5.2,4.5-10.5,5.8-16.2
				c0.7-3-4-4.1-4.7-1.1c-1.1,5.3-2.8,10.3-5.1,15.1c0.8-0.4,1.7-0.8,2.5-1.2c-6.6-1.8-13.2-3.8-19.7-5.9
				C1335,1044.6,1334.5,1047.4,1336.2,1048L1336.2,1048z"/>
		</g>
		<g>
			<path class="st57" d="M1354.7,1086.1c1.8,2.3,4.4,4,6.9,5.4c2.1,1.2,5.3,3,7.9,2.9c2.6-0.1,3.3-2.8,4.1-4.9
				c1.4-3.6,3.5-7.6,4-11.5c0.1-0.9-1-1.3-1.5-0.6c-1.6,2.4-2.3,5.4-3.3,8.1c-0.8,2.1-1.4,6.7-4.2,6.6c-2.2-0.1-5-1.8-7-2.8
				c-2.2-1.1-4.1-2.6-6.3-3.8C1354.9,1085.3,1354.4,1085.8,1354.7,1086.1L1354.7,1086.1z"/>
		</g>
		<g>
			<path class="st57" d="M1379.2,1122.1c3.3,0.2,8.9,6.1,11.8,1.5c1.2-1.8,0.6-4.7,0.5-6.8c-0.1-3.2,0.3-6.8-0.6-9.9
				c-0.2-0.8-1.5-0.8-1.7,0.1c-0.9,4.3,0.2,9.2,0.2,13.5c0,5.6-7.2,0.3-10.2,0.5C1378.5,1121.1,1378.5,1122.1,1379.2,1122.1
				L1379.2,1122.1z"/>
		</g>
	</g>
	<path class="st62" d="M417.2,957.2c27.2,4.1,54.1,10.3,81.3,14.7c0.8,0.1,1.6,0.2,2.4,0.2c1.8,1.1,3.8,1.9,5.7,2.2
		c0.8,1.5,1.6,3,2.4,4.6c-10.6-2.6-22.2-2.6-32.4-1.3c-8.3,1-16.6,2.9-24.4,5.8c-8.3,3.1-18.6,7-22.8,15.6
		c-4.9,9.9,0.5,20.8,10,24.9c8.5,3.7,18.7,2.9,27.7,1.9c9.8-1.2,19.6-2.9,29.3-4.5c5.6-0.9,11.3-1.8,16.9-2.7
		c5.3-0.9,10.5-1.1,15.3-3.1c4.3,7.7,8.8,15.3,13.4,22.8c-5.4,0.7-10.9,1.9-16,2.4c-9.9,0.9-19.8,1.3-29.6,3.3
		c-9.7,2-19.5,5.5-27.6,11.3c-7.4,5.3-16.9,14.2-17.8,24c-2.4,25.3,39.6,14.8,52,10.4c19.9-7,41-9.9,61-16.3
		c5.8,8.7,11.7,17.4,17.7,25.9c-5.8,0.2-11.5,1.2-17.1,2.3c-9.7,1.9-19,5-28,9.1c-9.3,4.3-18.3,9.3-26.5,15.4
		c-9.2,6.8-19,14.9-18.9,27.6c0,0.8,0.1,1.6,0.1,2.4h72.5c15-6.4,29.7-13.6,43.9-21.7c5.7,7.3,11.5,14.5,17.4,21.7h29.2
		c-3.3-4.1-6.6-8.2-9.9-12.4c6-7.5,12.9-14.2,19.5-21.2c7.7-8.1,14.5-16.8,20.8-26.1c6.2-9.2,11.2-18.7,14.8-29.3
		c3.2-9.7,7.5-23.8,1.9-33.3c-7.2-12.2-21.8-9-30.5-0.7c-8.5,8.2-15.6,18.6-22.1,28.5c-6.6,9.9-12.4,20.3-17.3,31.1
		c-2.5,5.4-4.7,10.9-6.7,16.5c-0.7,2-1.3,4.1-2,6.2c-4.7-6.3-9.3-12.7-13.8-19.1c-1.9-2.7-3.8-5.4-5.6-8.1
		c7-5.2,12.5-12.4,17.9-19.4c7.6-9.8,14.6-20.1,21.2-30.7c9.1-14.6,32.3-45.5,8.8-58.7c-21.4-12.1-37.5,19.4-46.5,33.7
		c-8.5,13.5-16.6,27.7-23.3,42.4c-7.8-12.2-15.4-24.7-22.7-37.2c1.7-0.9,3.2-2.2,4.4-3.8c2.6-1.5,5-3.3,7-4.9
		c7.1-5.6,13.1-12.5,18.2-20c10.1-14.8,16.9-31.6,19.2-49.5c1.5-11.2-9.5-19.4-19.4-13.7c-13.2,7.7-24.4,18.6-33,31.4
		c-4.1,6.2-7.7,12.6-10.3,19.6c-1.2,3.3-2.4,6.6-3.3,9.9c-4.3-8.1-8.6-16.3-12.7-24.5c0.6-1.1,1.1-2.3,1.4-3.6
		c0.6-1.4,1.1-2.9,1.7-4.3c1.7-4.3,3.5-8.5,5.2-12.8c3.5-8.6,6.9-17.2,10.1-25.8c6.4-17.5,12.3-35.4,15.8-53.7
		c1.6-8.3,5.2-20.4,0.4-28.1c-6.7-10.7-20.6-4.3-27.6,2.1c-13.8,12.6-18.9,35-22.8,52.7c-0.8,3.4-1.4,6.9-2,10.3
		c-2.6-9.7-5.5-19.3-8.8-28.8c-7.7-22.1-16.3-45.8-31.1-64.1c-6.5-8-17.1-21.1-28.8-17.6c-10.6,3.1-12.9,15.6-13.7,25.2
		c-1.7,19.7,4.8,38.5,13.5,55.8c10.9,21.7,25,41.8,39.5,61.2c-3.4-0.8-6.8-1.5-10.1-2.4c-8.3-2.2-16.6-3.8-25.1-4.3
		c-15.1-0.8-41.6,4.4-37.9,25C409.4,953.1,413.6,956.7,417.2,957.2z"/>
	<path class="st62" d="M691.3,1135.9c-1.8,6.7-3.5,13.4-5.3,20.1h39.6c2.6-7.6,5-15.3,7-23c2.4-9.1,3.6-18.6-4.7-25.1
		c-6.6-5.2-16.4-4.8-23.1,0C696,1114.2,693.9,1126,691.3,1135.9z"/>
	<path class="st63" d="M1159.6,571.6c-0.3-2.4-3.3-3.7-5.4-3.1c-2.5,0.7-3.4,3.1-3.1,5.5c1,6.8-0.7,14-4,19.9
		c-2.2,3.9-5.6,8-9.7,10.6c2.1-2.5,3.5-5.7,4.3-8.7c2-7.8,1.8-16.4,2.3-24.4c0.4-5.6-8.3-5.6-8.7,0c-0.4,6-0.5,12.1-1.1,18.1
		c-0.2,2.4-0.7,4.9-1.7,7c-0.5,1.2-2.4,4.7-4.2,4.4c-2.9-0.5-1.8-11.4-1.8-13.2c0.1-5.8,1.6-12.9-0.7-18.3c-0.3-0.7-1.4-0.8-1.9-0.2
		c-2.7,3-3.3,7.3-3.9,11.1c-0.6,4.4-0.9,8.9-1,13.4c-0.1,3.7,0.3,8.2,2.2,11.4c-2.6-1.5-4.9-3.7-6.4-6.3c-4.3-7.1-4-16-1.8-23.7
		c0.9-3.2-4.1-5.6-5.5-2.4c-4.1,9.6-4.9,20.8,0.5,30.1c3.7,6.4,10.5,11.4,17.9,12.6c-0.3,4.7,0,9.5,0.1,14.2
		c0.3,7.2,0.9,14.4,1.8,21.5c0.8,6.7,10.4,5.4,9-1.2c-1.4-6.9-2.3-13.8-2.8-20.8c-0.3-4.6-0.3-9.2-0.6-13.8
		c8.5-1.8,15.8-8.4,20.4-15.7C1159.1,591.2,1160.9,581.4,1159.6,571.6z"/>
	<path class="st63" d="M442.9,486.7c2.3,0.6,4.6-1.6,4.9-3.8c0.4-2.6-1.5-4.4-3.7-5c-6.6-1.8-12.4-6.1-16.4-11.7
		c-2.7-3.6-5-8.4-5.7-13.3c1.4,2.9,3.8,5.5,6.2,7.4c6.3,4.9,14.1,8.1,21.1,11.8c4.9,2.6,8.4-5.5,3.4-8.1c-5.3-2.7-10.7-5.3-15.9-8.2
		c-2-1.2-4.1-2.6-5.7-4.3c-0.9-1-3.3-4.1-2.3-5.6c1.6-2.5,11,2.8,12.7,3.5c5.2,2.4,11,6.6,16.8,6.6c0.8,0,1.3-1,1-1.7
		c-1.6-3.7-5.3-6-8.5-8c-3.7-2.3-7.7-4.3-11.7-6.2c-3.3-1.5-7.5-3-11.1-2.5c2.4-1.8,5.3-3.1,8.2-3.5c8.1-1.2,16,2.6,22.1,7.7
		c2.6,2.1,6.7-1.6,4.3-4.2c-7-7.6-16.9-12.8-27.4-11.4c-7.3,0.9-14.5,5.3-18.4,11.7c-4.2-2.1-8.6-3.8-12.9-5.5
		c-6.6-2.6-13.3-4.8-20.1-6.9c-6.3-1.9-9,7.5-2.4,8.9c6.8,1.4,13.4,3.3,19.9,5.6c4.3,1.5,8.5,3.3,12.7,4.9
		c-1.8,8.7,1.3,18.1,6.1,25.2C425.5,478.5,433.6,484.1,442.9,486.7z"/>
	<path class="st57" d="M1046.3,795.1c7.5-9.3,13.4-19.6,18.1-30.6c3.5-8.1,6.1-16.5,8.3-25c15.4-2.2,30.7-10.7,38.3-24.9
		c1.1,0.8,2.4,1.2,3.7,1.3c4.1,0.2,7.3-3.7,6.1-7.8c-0.6-2.1-2.1-3.7-4.1-4.4c-1.7-0.6-4-0.5-5.6,0.5c-0.8,0.5-1.5,1.2-1.8,2.1
		c-0.7,0.8-1.1,1.7-1.2,2.8c-0.1,1.1,0.2,2.2,0.7,3.1c-6.6,7.2-14.7,12.5-23.7,15c0.3-0.3,0.6-0.6,0.9-0.9
		c6.6-6.5,11.4-14.5,14.4-23.4c0.1-0.2,0.1-0.4,0.2-0.6c0.3,0,0.6-0.1,0.9-0.2c4.6-1.3,6-7.1,2.7-10.5c-3.4-3.5-8.6-2.3-11.6,1
		c-1.1,1.2-1.9,2.4-1.9,4.1c0,1.3,0.7,2.4,1.5,3.4c0,0.1-0.1,0.2-0.1,0.2c-2.2,6.7-5.6,13-10.4,18.3c-1.7,1.9-3.5,3.6-5.5,5.2
		c0.7-3.6,1.3-7.2,1.8-10.8c0.7-5,1.6-10.1,1.6-15.1c2.7-0.5,5.2-2.1,6.2-4.7c1.8-4.5-1.1-10.1-6-10.6c-4.3-0.4-8.3,3.1-8.7,7.4
		c-0.8,1.8-0.7,3.9,0.5,5.4c-1.9,4.6-2.8,9.5-4.1,14.3c-0.9,3.7-1.8,7.3-2.7,11c-1.3-3.5-2.2-7.4-2.9-10.6c-1-5.1-1.2-10.3-1.9-15.4
		c3.6-1,6.8-4.6,5.8-8.5c-1.6-6.2-10.4-7.5-13.7-2c-1.5,2.5-1.6,6.1,0.5,8.4c0.5,0.5,1,0.9,1.7,1.2c0.1,0.1,0.3,0.2,0.5,0.3
		c0.5,0.3,0.9,0.5,1.4,0.6c-2.1,6.1-1.7,13-0.6,19.3c0.5,3.1,1.4,6.2,2.4,9.2c-2.8-1.9-5.3-4.5-7.2-6.5c-2.4-2.5-4.7-5.2-6.6-8
		c-1-1.4-1.8-3-2.7-4.4c0.5-0.6,0.9-1.4,1-2.1c0.2-1.1,0.1-2.4-0.4-3.5c0-1.1-0.3-2.2-0.9-3.2c-1.5-2.2-4.3-2.8-6.7-1.9
		c-2,0.7-3.6,2.3-4.3,4.4c-0.8,2.2-0.2,4.6,1.2,6.5c1.4,1.9,3.9,2.8,6.2,2.4c0.3-0.1,0.6-0.2,0.9-0.3c0.8,2.1,1.8,4.1,2.6,6.2
		c1.5,3.6,3.1,6.9,5.3,10.1c3.9,5.7,8.9,9,14.7,12.2c-2.2,7.8-4.8,15.5-8,23.1c-4.2,10-9.8,19.7-16.7,28.1
		c-3.2,3.9-6.8,7.5-10.6,10.8c-4.3,3.7-9.2,6.4-13.8,9.7c-2.7,1.9-2.7,6.5-0.9,8.9c2.1,2.9,5.4,3.5,8.6,2.2
		c5.4-2.3,10.5-6.4,14.9-10.2C1038.8,803.8,1042.7,799.6,1046.3,795.1z"/>
	<path class="st57" d="M441.9,742.8c-17-0.4-32.8-8-45.4-19.4c-0.9-0.9-1.9-1.8-2.8-2.7c10.5-10.7,16.6-28.1,10.1-42.1
		c0.1,0,0.2-0.1,0.4-0.2c1.5-0.8,2.5-2.3,2.5-4.1c0-0.1,0-0.1,0-0.2c0.1-1.9-0.8-4-2.4-5.1c-2.4-1.7-5.4-0.5-7,1.8
		c-1.7,2.5-0.8,6.2,1.9,7.6c0.7,0.3,1.4,0.5,2.1,0.6c0.3,6.5-0.3,12.8-2.9,18.9c-1.4,3.3-3.2,6.5-5.4,9.4c-0.3,0.4-0.6,0.7-0.9,1.1
		c1.7-11.4,0-23.8-7.2-32.5c0.1-0.1,0.1-0.2,0.2-0.3c1-1.7,0.9-4-0.1-5.7c-1.1-2-3.6-3.7-5.9-2.9c-0.7,0.2-1.3,0.7-1.7,1.2
		c-0.4,0.2-0.8,0.5-1.1,0.8c-2.1,2.1-2.1,5.8-0.1,7.9c1.1,1.2,2.6,1.7,4.1,1.6c3.5,10.1,6,20.4,3.5,30.6c-1.2-1.6-2.3-3.3-3.5-5
		c-4.2-6.3-7.4-13.2-12-19.3c1.7-1.9,2.4-4.9,1-7.3c-0.8-1.5-2.6-2.1-4.1-1.5c-2-0.7-4.3-0.2-5.8,1.4c-1.3,1.4-1.7,3.6-1.1,5.4
		c0.9,2.3,2.8,3.8,5.2,4c0.4,0,0.9,0,1.3-0.1c1.1,8.1,5,15.6,9.1,22.6c0.6,1,1.3,2.1,1.9,3.1c-4.6-0.7-8.8-2.1-13.2-4.9
		c-5.5-3.5-9.2-8.3-12.7-13.6c4.1-2.7,4.6-10.6-1.1-11.6c-3-0.6-6.2,0.5-7.8,3.2c-1.6,2.6-1.3,6.6,1.2,8.6c1.1,0.9,2.6,1.1,3.9,0.9
		c2.5,14.2,18.4,25.3,32.6,26c-6.4,1.6-14.2,0-20.2-0.8c-7.2-1-13.1-3.5-17.9-8.2c0.4-0.8,0.7-1.6,0.7-2.5c0.2-0.7,0.2-1.5,0-2.2
		c0,0,0-0.1,0-0.1c0-0.4,0.4-1.6,0-0.3c0.2-0.7,0.2-1.6,0-2.3c-0.2-1-0.8-1.9-1.6-2.6c-3.5-3.1-8.9-1.1-10.3,3.1
		c-0.7,2-0.5,4.3,0.7,6c1.6,2.5,4.2,3.5,7,3.1c3.4,5.8,11.5,9.1,17.5,10.7c11,3,21.4,5.5,32.5,1.6c1.4,1.5,2.8,2.9,4.3,4.3
		c13.7,12.6,31.7,20.5,50.3,20.3C447.4,751.4,447.4,743,441.9,742.8z"/>
	<path class="st63" d="M1029.9,19.6h-8.5c-1.2,1.6-2.5,3.3-3.7,4.9c-5.6,7.4-11.1,14.8-16.6,22.2c-7.7-12.8-27.2-15.9-39.6-9.4
		c-0.8,0.4-0.9,1.5-0.3,2.1c4.8,5.9,11.1,10.1,18.3,12.3c4.9,1.4,11.5,2.5,17,1.2c-23.7,31.9-47.1,64.1-70,96.6
		c-3,0.4-6.2,0.4-7.2-1c0.1-1.1,0.2-2.2,0.5-3.4c0.8-3.5-3.5-6.5-6-4.7c0.9-5.3,1.9-10.6,2.8-15.9c0.3-1.7-2.3-2.5-2.6-0.8
		c-1.5,8.3-3.1,16.5-4.6,24.8c-0.7-0.7-1.3-1.5-1.8-2.4c-0.3-0.5-0.6-0.9-1-1.2c-1.9-7.6-3.5-15.3-4.7-23.1c-0.2-1.3-2-1.2-2.4-0.1
		c-2.6,8.5-2.3,17.6,0.9,25.7c0,0.1,0,0.2,0,0.2c-32.4-11.6-66.6,0.9-95.4,19.3c-0.4-0.2-0.9-0.3-1.4-0.4c1.3-3.5-1.9-7.8-6.1-6.2
		c-1.2,0.5-2.3,1.4-3.3,2.3c-0.9,0.8-2,1.5-2.6,2.5c-0.3,0.6-0.4,1.4-0.2,2.1c-4.2-0.9-8.5-0.8-9.4,4.3c-0.6,3.5,1.9,5,5.1,5.7
		c0.1,1.3,0.5,2.6,1.2,3.7c-0.8,1.5-0.5,3.7,1.4,4.1c0.7,0.1,1.3,0.2,2,0.3c-0.2,0.9-0.5,1.9-0.7,2.8c-0.2,0.8,0.5,1.7,1.4,1.5
		c2-0.6,3.4-2.9,5.4-2.6c2.1,0.4,1.2,0.5,1.6,2.2c0.2,0.8,0.3,1.3,0.8,2c0.5,0.7,1.6,0.7,1.8-0.2c0.9-3.5,1.5-6.8,1.7-10.3
		c0.6-0.7,1.2-1.4,1.7-2.3c0.2-0.3,0.3-0.6,0.4-1c3,1.8,7.8-1.3,5.4-4.8c-0.1-0.2-0.3-0.4-0.4-0.6c22.6-14.1,48.6-24.4,74.2-20.6
		c-8,2.2-16,6.3-22.8,9.9c-19,9.9-36.2,23-51.2,38.4c-0.6-0.1-1.1-0.2-1.7-0.2c-3.4-0.1-6.5,1.6-8.6,4.2c-1.8-0.1-3.6,0.1-5.2,0.3
		c-1,0.2-0.9,1.4-0.3,2c0.8,0.6,1.5,1.3,2.3,1.9c-0.2,0.5-0.5,1-0.7,1.5c-0.5,0.6-0.1,2,0.9,1.7c0.2-0.1,0.7-0.3,1.4-0.6
		c0.5,0.7,1.2,1.2,2,1.4c0,0,0,0.1,0,0.1c-1.1,2.5-2.7,4.9-3.9,7.3c-0.4,0.8,0.5,1.7,1.2,1c3-2.8,6.4-5.2,9.7-7.7
		c-0.3,0.7-0.6,1.5-1.1,2.2c-0.5,0.8-0.5,1.9,0,2.8c0,0,0,0-0.1,0.1c-2.5,2.3-1.2,4.6,1.6,6.2c0.6,0.3,1.4,0.2,1.8-0.4
		c1.1-1.9,1.9-3.9,2.4-6c1.2-1.1,2-2.7,2.2-4.4c1.6,0.7,3.5,0.2,4.4-1.8c0.5,1.6,0.2,3.3-0.3,4.8c-0.3,0.9-0.7,1.7-1.3,2.4
		c-1.2,1.4-3.5,1.7-3.8-0.7c0-0.4-0.7-0.5-0.9-0.1c-1.3,2.3,1.1,4.4,3.4,4.2c3.3-0.4,5.1-4.6,5.5-7.5c0.4-2.6-0.3-5.3-2.2-7
		c-0.2-1.3-0.8-2.6-1.6-3.6c11.9-11.9,25.2-22.3,39.7-30.8c11-6.4,28.3-17.2,41.8-14.5c-2.1,1.2-4.1,2.8-5.7,4.3
		c-7.5,6.5-14.5,13.9-20.9,21.5c-6,7.2-11.6,14.8-16.7,22.8c-4.7,7.4-10.4,15.8-12.9,24.4c-1.1,0.2-1.9,0.7-2.4,1.5
		c-1.6,0.3-3.1,0.9-4.5,1.9c-0.1-0.4-0.4-0.8-0.9-0.7c-3,0-5.9,1.8-7,4.8c-0.6,1.6-0.5,3.9,0.3,5.6c-2.6,1.1-2.5,5.6,0.4,6.3
		c2.6,0.6,4.4,2.1,5.2,4.8c0.7,2.5,4.6,3.7,5.9,1c0.5-1,0.7-2,0.8-2.9c0.9-0.7,1.9-1.7,2.8-2.8c0.6,2.7,1,5.5,1.1,8.3
		c0,0.8,1.1,1.4,1.7,0.8c3-3.1,3.8-8.4,0.7-11.7c-0.6-0.6-1.6,0.1-1.2,0.9c1.2,2.4,1.5,4.9,0.6,7.1c-0.2-2.5-0.7-5-1.3-7.5
		c0.3-0.4,0.6-0.9,0.8-1.4c2.8-1.9,5.9-2.9,9.1-0.8c1.2,0.8,2.5-0.9,1.6-1.9c-1-1.1-2.2-2.2-3.7-2.9c0.4-0.8,0.4-1.9-0.1-2.9
		c-0.8-1.8-2.1-3.7-3.7-5.1c3.7-5.6,6.2-12.2,9.7-17.9c3.9-6.6,8.2-12.9,12.8-19c5-6.6,10.5-12.8,16.3-18.7c2.7-2.7,5.4-5.4,8.3-7.9
		c1.9-1.8,6.9-7.7,8.7-4.5c2.2,3.9-5.4,17.9-7,22c-3,7.8-6.2,15.6-9.5,23.4c-6.6,15.4-14.3,30.3-20.8,45.7c-0.2,0.5-0.2,0.9-0.1,1.3
		c-0.8,0.4-1.6,1-2.3,1.6c-0.8-0.6-1.7-1.2-2.6-1.8c-2.9-1.7-6,1.4-4.6,4.4c0.7,1.6,2.2,2.9,3.9,3.8c-0.1,0.7-0.1,1.4-0.1,2.2
		c-0.4,0.2-0.9,0.3-1.3,0.6c-0.2-0.9-1.8-1.2-2.3-0.1c-0.7,1.6-1.3,3.3-2,4.9c-0.3-0.4-0.9-0.1-1,0.4c0,0.7,0.1,1.3,0.1,2
		c-0.1,1.4,1.7,1.5,2.2,0.4c0.4-0.9,0.8-1.9,1.2-2.8c0.7,1.1,2.2,2,3.6,1.8l2-0.3c0.7,0.9,1.6,1.8,2.6,2.5c2.5,1.8,5.3-0.9,4.9-3.5
		c0.4-0.1,0.8-0.3,1.1-0.5c0.2,2,2.4,3.3,4.4,3c3.2-0.4,4.5-4.2,4.4-7.1c-0.1-1.9-0.7-3.9-1.9-5.4c1.3-1.7,1.3-3.8-0.6-5.2
		c-1.9-1.4-4.2-2.1-6.5-2.1c11-17.3,19.5-36.5,27.4-55.3c4.4-10.5,9.4-21.3,12.6-32.3c8.9,15.4,6.9,36.6,2.4,53
		c-3.3,12.1-8.9,23.1-14.1,34.3c-0.2,0-0.3,0-0.5,0.1c-3.5,1.3-6.1,3.3-8.2,6.4c-1,1.5-0.5,3.9,1.1,4.8c0.6,0.3,1.2,0.6,1.8,0.9
		c-2.8,1-5.1,2.9-7,5.7c-1,1.6-0.1,3.7,1.4,4.5c0.8,1.4,2.6,2.2,4.4,1.5c0.4-0.1,0.7-0.3,1-0.5c-0.1,1.1-0.1,2.3-0.1,3.4
		c0.1,1.5,2,2.7,3.2,1.4c2.1-2.2,3-5.5,3.2-8.8c0.9-0.7,1.8-1.5,2.6-2.4c0.3-0.3,0.5-0.6,0.6-1c3,2,7.3,0.2,7.6-3.6
		c0.1-1.8-0.6-3.7-2.1-4.8c-1.6-1.2-3.9,0-5.7,1.1c3.3-6,6.2-12.3,8.9-18.3c4.7-10.6,8.8-21.6,11-33c2.6-13.6,3.2-30.5-2.5-44
		c0.1,0.1,0.2,0.2,0.4,0.3c9.8,10,15.5,23.2,15.5,38.4c-0.1,22.5-8.3,46-15.6,67.3c-3.5-1.3-7.8-1-10.2,2.2
		c-0.8,1.1-1.3,2.4-1.4,3.7c-1.3,2-1.9,4.5-1.4,7.1c0.1,0.7,1,1.1,1.6,0.7l2.1-1.3c0.4,0.3,0.8,0.7,1.2,0.9c0.2,0.1,0.4,0.2,0.6,0.3
		c0,0,0,0.1,0,0.1c0,0.1-0.1,0.2-0.1,0.3c-0.4,1.2,0,2.3,0.8,3c0.8,2.4,2.5,4.6,4.8,5.9c0.2,0.1,0.5,0,0.6-0.2
		c0.6-1.6,0.7-3.5,1-5.3c1.7-0.2,3.4-0.4,5.1-0.6c0.6-0.1,1.1-0.3,1.5-0.6c1-0.1,1.9-0.8,1.9-2.1c0-0.7,0-1.3-0.1-2
		c0.1,0,0.2,0.1,0.3,0.1c1.3,0.5,2.3,1.3,3.7,1.7c0.6,0.2,1.2-0.5,0.9-1.1c-1.3-2.4-2.5-4.9-3.8-7.2c3,0.4,5.2-4.1,2.1-6
		c-2.1-1.3-4.6-1.7-6.9-1.3c9.9-22,19.4-46.6,17.9-70.9c-0.6-9.4-3.3-18.2-7.6-25.9c3.2,1,6.5,1.7,9.7,2.1c5.5,0.7,5.5-7.8,0.2-8.6
		c-5.3-0.8-11.6-2.5-16.8-5.4c1.9-0.3,3.8-0.7,5.6-1.3c6.7-0.2,13.4-0.5,20.1-0.7c2.6-0.1,9.2,1.1,11.1-1.4c1.4-1.7,0.2-3.6-1.7-3.9
		c-1.4-0.2-1.4,1.8-0.4,2.3c-1.6-0.7-4.1-0.1-5.8,0c-1.6,0.1-3.2,0.1-4.7,0.2c-3.5,0.2-6.9,0.3-10.4,0.4c0.8-0.4,1.6-0.8,2.4-1.2
		c0.8,0,1.5,0,2.3,0c0.9,0,1.7-1.1,1.2-2c-0.1-0.1-0.1-0.2-0.2-0.3c1.6-2.5-0.3-6.7-3.6-5.6c-0.6,0.2-1.2,0.4-1.8,0.6
		c0.1-0.1,0.2-0.3,0.3-0.4c1.8-2.3-0.4-6.4-3.3-6.1c-1.5,0.2-2.9,0.4-4.3,0.7c13.9-19.7,27.9-39.3,42.1-58.7
		c1,13.9,10,27.7,20.4,35.6c0.8,0.6,1.9-0.2,2-1.1c0.4-9.4,0.8-19.2-2.7-28.1c-2-5.1-7.4-14.2-13.7-14.6
		c12.4-17,24.8-33.9,37.5-50.7C1025,26.2,1027.5,22.9,1029.9,19.6z M787.9,172.9c-0.3,0.6-0.5,1.1-0.6,1.7c-1.5-0.4-1.5-2-0.1-4.8
		c0.8-0.5,2-0.4,3.3-0.1C789.5,170.5,788.6,171.6,787.9,172.9z M797.3,168.5c-0.2-0.1-0.3-0.1-0.5-0.1c-0.3-0.1-0.6-0.1-1-0.1
		c0,0,0,0,0-0.1c-0.1,0-0.1,0-0.2,0c-0.3,0-0.6,0-0.9,0c-0.2,0-0.3-0.1-0.5-0.1c0.1-0.4,0-0.9-0.4-1.2c-0.6-0.5,1-1.6,1.4-2
		c0.9-0.7,1.7-1.6,2.8-2.1c2.5-1.1,4.4,1.8,2.9,3.8C799.6,167,798.3,167.6,797.3,168.5z M801.2,186.7c-0.1-1.1-0.5-2-1.5-2.7
		c0,0-0.1,0-0.1,0c0.9-0.4,1.7-0.9,2.5-1.5C801.9,183.9,801.6,185.3,801.2,186.7z M808.4,211.6c-0.2-0.1-0.4-0.1-0.5,0.1
		c-2.5,1.9-5,3.9-7.6,5.8c0.9-1.6,1.8-3.2,2.7-4.8c0.2-0.3,0.5-0.7,0.7-1.2c1.4-0.6,3.6-1.3,4.8-0.3
		C808.4,211.3,808.4,211.4,808.4,211.6z M833.5,243.4c-0.7,0.2-1.5,0.4-2.2,0.6c-0.7-1.1-1.1-2.2-0.8-3.8c0.5-2.3,2.5-3.8,4.7-4
		c-0.6,1.1-0.4,2.6,0.3,3.7C834.6,240.9,833.9,242.1,833.5,243.4z M901.6,145.2c-1.6-5.5-2-11.1-1.1-16.8c1,5.3,2.1,10.6,3.3,15.8
		C903,144.3,902.3,144.7,901.6,145.2z M876.3,267.9c0.2,0.1,0.4,0.1,0.6,0.2c1.1,0.3,1.7-0.9,1.3-1.7c0.1-0.1,0.3-0.2,0.4-0.4
		c0.5,0.7,0.8,1.5,1,2.3c0.3,1.5,0.3,3.4-0.5,4.7c-0.8,1.5-3.9,2.4-4.1-0.2c0-0.4-0.2-0.6-0.5-0.7c0.3-0.9,0.3-2-0.1-2.8
		C875,268.9,875.6,268.4,876.3,267.9z M904.9,267.5c0.7-0.1,1.3-0.2,2-0.4c0.7-0.2,1.4-0.5,2.1-0.7c1.1,0.9,1.6,2.4,0.9,3.7
		c-0.8,1.4-2.8,1.8-4.2,1.1c-0.1-0.1-0.2-0.1-0.3-0.1c0-0.6-0.2-1.2-0.5-1.7C905.1,268.8,905.1,268.2,904.9,267.5z M917.1,282.1
		c0.4-0.8,1.2-0.9,2-0.8c-0.1,0.5-0.2,0.9-0.2,1.4c-0.5,0.5-1,1-1.4,1C917.2,283.7,916.8,282.6,917.1,282.1z M920.3,297.6
		c-0.7,0.2-1.8-2-2.4-3.7c0.2,0,0.5,0,0.8,0c0.8-0.1,1.7-0.2,2.5-0.3C920.9,295.6,920.7,297.5,920.3,297.6z M930.3,281.1
		c0,0.1,0,0.3,0,0.4c0.9,2.1,1.9,4.1,2.8,6.1c-0.9-0.5-1.9-1-2.8-1.4c-0.4-2-1.1-3.9-2.2-5.6C928.7,280.5,929.5,280.6,930.3,281.1z
		 M991.6,87.2c2.7,3,4.6,6.7,5.8,10.6c2.2,7.2,2,14.9,1.6,22.4c-5.2-4.4-9.4-9.8-12.4-16c-3.1-6.5-4-12.9-4.7-19.8
		c0.7-1,1.5-2,2.2-3.1C986.4,83.5,989.4,84.8,991.6,87.2z M999,49.6c-2.9,0.2-5.8,1-8.8,1c-3.4,0-6.7-0.5-10-1.5
		c-6.2-1.8-11.6-5.3-15.9-10.1c6.3-2.8,13.4-3.2,20-1.2c6.5,1.9,11.1,5.8,15.4,10.7C999.5,48.9,999.2,49.2,999,49.6z"/>
	<path class="st64" d="M261.7,1151c-1.4,1.7-2.8,3.3-4.2,5h6.9c15.1-17.8,30-35.8,44.8-54c2.3-0.1,4.7,0,5.4,1.1
		c-0.1,0.8-0.3,1.6-0.5,2.5c-0.8,2.6,2.3,5.1,4.2,3.8c-1,3.9-2,7.8-2.9,11.8c-0.3,1.3,1.6,2,1.9,0.7c1.6-6.1,3.1-12.2,4.7-18.3
		c0.5,0.6,0.9,1.2,1.2,1.9c0.2,0.4,0.4,0.7,0.7,0.9c1,5.8,1.8,11.7,2.4,17.6c0.1,1,1.5,1,1.8,0.2c2.4-6.2,2.6-13.1,0.6-19.3
		c0-0.1,0-0.1,0-0.2c23.7,10.4,49.9,2.8,72.5-9.5c0.3,0.1,0.7,0.3,1,0.3c-1.2,2.6,1.1,6,4.3,4.9c1-0.3,1.8-0.9,2.6-1.5
		c0.7-0.5,1.6-1,2.1-1.8c0.3-0.4,0.4-1,0.3-1.5c3.1,0.9,6.3,1.1,7.2-2.7c0.6-2.6-1.1-3.9-3.5-4.6c0-1-0.2-2-0.7-2.8
		c0.7-1,0.6-2.8-0.9-3.2c-0.5-0.1-1-0.2-1.5-0.3c0.2-0.7,0.4-1.4,0.7-2.1c0.2-0.6-0.3-1.3-0.9-1.2c-1.5,0.4-2.7,2-4.1,1.7
		c-1.6-0.4-0.9-0.5-1.1-1.7c-0.1-0.6-0.2-1-0.5-1.6c-0.3-0.5-1.2-0.6-1.4,0c-0.8,2.6-1.5,5-1.8,7.6c-0.5,0.5-1,1-1.4,1.6
		c-0.2,0.2-0.3,0.5-0.3,0.7c-2.1-1.5-5.9,0.6-4.3,3.3c0.1,0.2,0.2,0.3,0.3,0.5c-17.6,9.4-37.7,15.8-56.6,11.6
		c6.1-1.2,12.3-3.9,17.6-6.2c14.7-6.5,28.3-15.4,40.3-26.1c0.4,0.1,0.8,0.2,1.3,0.3c2.5,0.3,5-0.9,6.6-2.7c1.3,0.1,2.7,0.1,3.9,0
		c0.8-0.1,0.8-1,0.3-1.4c-0.5-0.5-1.1-1-1.6-1.5c0.2-0.4,0.4-0.7,0.6-1.1c0.4-0.4,0.2-1.5-0.6-1.3c-0.1,0-0.6,0.2-1,0.4
		c-0.3-0.6-0.8-1-1.4-1.1c0,0,0,0,0-0.1c0.9-1.8,2.3-3.5,3.3-5.3c0.3-0.6-0.3-1.3-0.9-0.8c-2.4,2-5.1,3.6-7.7,5.3
		c0.2-0.5,0.5-1.1,0.9-1.6c0.4-0.6,0.4-1.4,0.1-2.1c0,0,0,0,0.1,0c2-1.6,1.2-3.4-0.9-4.7c-0.4-0.3-1-0.2-1.4,0.2
		c-0.9,1.4-1.6,2.8-2.1,4.4c-1,0.8-1.7,1.9-1.9,3.2c-1.1-0.6-2.6-0.3-3.4,1.2c-0.3-1.2,0-2.5,0.5-3.6c0.3-0.6,0.6-1.2,1.1-1.7
		c1-1,2.7-1.1,2.8,0.7c0,0.3,0.5,0.4,0.6,0.2c1.1-1.7-0.6-3.4-2.4-3.3c-2.5,0.1-4.1,3.2-4.5,5.3c-0.4,1.9-0.1,4,1.3,5.4
		c0.1,1,0.5,2,1,2.8c-9.5,8.3-20,15.4-31.3,21c-8.6,4.2-22.1,11.4-32.1,8.7c1.7-0.8,3.2-1.9,4.5-2.9c6-4.5,11.6-9.6,16.8-15.1
		c4.9-5.1,9.5-10.5,13.6-16.2c3.9-5.3,8.6-11.3,10.9-17.6c0.8-0.1,1.5-0.5,1.8-1c1.2-0.2,2.4-0.6,3.4-1.2c0,0.3,0.2,0.6,0.6,0.6
		c2.3,0.1,4.5-1,5.5-3.2c0.5-1.2,0.6-2.9,0.1-4.2c2-0.7,2.2-4,0-4.8c-1.9-0.6-3.2-1.8-3.6-3.8c-0.4-1.9-3.3-3-4.4-1
		c-0.4,0.7-0.7,1.4-0.8,2.1c-0.7,0.5-1.5,1.2-2.3,1.9c-0.3-2.1-0.5-4.2-0.4-6.3c0-0.6-0.7-1.1-1.2-0.7c-2.4,2.2-3.3,6.1-1.1,8.8
		c0.4,0.5,1.2,0,0.9-0.6c-0.7-1.8-0.9-3.7-0.1-5.4c0.1,1.9,0.3,3.8,0.6,5.7c-0.2,0.3-0.5,0.6-0.7,1c-2.2,1.2-4.6,1.9-6.9,0.2
		c-0.9-0.6-1.9,0.5-1.3,1.4c0.7,0.9,1.6,1.8,2.6,2.4c-0.3,0.6-0.4,1.4-0.1,2.2c0.5,1.4,1.4,2.9,2.5,4c-3,4-5.3,8.8-8.1,12.9
		c-3.3,4.7-6.8,9.3-10.6,13.6c-4.1,4.7-8.5,9.1-13.1,13.2c-2.1,1.9-4.3,3.7-6.6,5.5c-1.5,1.2-5.5,5.4-6.8,3
		c-1.5-3,4.9-13.1,6.4-16.2c2.7-5.7,5.5-11.4,8.3-17c5.7-11.2,12.2-22,17.9-33.2c0.2-0.3,0.2-0.6,0.2-0.9c0.7-0.3,1.3-0.6,1.8-1.1
		c0.6,0.5,1.2,1,1.9,1.5c2.1,1.4,4.6-0.7,3.7-3.1c-0.5-1.2-1.5-2.3-2.8-3c0.1-0.5,0.2-1.1,0.2-1.6c0.3-0.1,0.7-0.2,1-0.4
		c0.1,0.7,1.3,1,1.7,0.2c0.6-1.2,1.2-2.4,1.7-3.6c0.2,0.3,0.7,0.1,0.7-0.2c0.1-0.5,0-1,0-1.5c0.2-1-1.2-1.2-1.6-0.4
		c-0.3,0.7-0.7,1.4-1,2c-0.5-0.9-1.5-1.6-2.6-1.5l-1.5,0.1c-0.5-0.7-1.1-1.4-1.8-2c-1.8-1.4-4,0.4-3.9,2.4c-0.3,0-0.6,0.2-0.8,0.3
		c-0.1-1.5-1.6-2.6-3.1-2.5c-2.4,0.2-3.6,2.9-3.7,5.1c-0.1,1.4,0.3,3,1.1,4.1c-1.1,1.2-1.2,2.8,0.2,3.9c1.4,1.1,3,1.8,4.8,1.9
		c-9.1,12.4-16.4,26.3-23.3,40.1c-3.8,7.7-8.1,15.5-11,23.6c-5.9-12-3.3-27.8,0.8-39.9c3.1-8.9,7.8-16.9,12.3-25
		c0.1,0,0.3,0,0.4-0.1c2.7-0.8,4.7-2.1,6.5-4.4c0.8-1,0.6-2.9-0.6-3.6c-0.4-0.3-0.8-0.5-1.3-0.8c2.1-0.6,4-1.9,5.5-3.9
		c0.8-1.1,0.2-2.8-0.8-3.4c-0.5-1.1-1.9-1.8-3.2-1.4c-0.3,0.1-0.5,0.2-0.8,0.3c0.1-0.8,0.2-1.7,0.2-2.6c0-1.1-1.3-2.2-2.3-1.2
		c-1.7,1.6-2.5,4-2.8,6.4c-0.7,0.5-1.4,1-2.1,1.6c-0.2,0.2-0.4,0.4-0.5,0.7c-2.1-1.6-5.5-0.5-5.9,2.3c-0.2,1.4,0.3,2.8,1.3,3.7
		c1.2,1,2.9,0.2,4.3-0.5c-2.8,4.3-5.3,8.9-7.6,13.3c-4.1,7.7-7.7,15.7-9.9,24.2c-2.6,10.1-3.9,22.7-0.3,33.2
		c-0.1-0.1-0.2-0.2-0.3-0.3c-6.9-8-10.5-18.2-9.7-29.6c1.2-16.8,8.6-34.1,15.1-49.6c2.6,1.2,5.8,1.1,7.7-1.1
		c0.7-0.8,1.1-1.7,1.2-2.7c1.1-1.4,1.6-3.3,1.4-5.2c-0.1-0.5-0.7-0.9-1.2-0.6l-1.6,0.9c-0.3-0.3-0.6-0.5-0.9-0.7
		c-0.2-0.1-0.3-0.2-0.5-0.3c0,0,0-0.1,0-0.1c0-0.1,0.1-0.2,0.1-0.2c0.4-0.9,0.1-1.7-0.4-2.3c-0.5-1.9-1.6-3.5-3.3-4.7
		c-0.2-0.1-0.4,0-0.4,0.1c-0.5,1.2-0.7,2.6-1,3.9c-1.3,0.1-2.6,0.1-3.8,0.2c-0.5,0-0.8,0.2-1.1,0.4c-0.7,0-1.5,0.5-1.6,1.4
		c0,0.5-0.1,1,0,1.5c-0.1,0-0.1-0.1-0.2-0.1c-0.9-0.5-1.7-1.1-2.7-1.5c-0.5-0.2-0.9,0.3-0.7,0.8c0.8,1.9,1.6,3.8,2.5,5.6
		c-2.2-0.4-4.1,2.8-1.9,4.4c1.5,1.1,3.3,1.5,5.1,1.3c-8.5,16-16.9,33.9-17,52.2c0,7.1,1.5,13.8,4.4,19.8c-2.4-0.9-4.8-1.6-7.2-2.1
		c-4.1-0.8-4.5,5.6-0.6,6.5c4,0.9,8.6,2.5,12.3,4.9c-1.4,0.1-2.9,0.4-4.2,0.6c-5-0.2-10.1-0.3-15.1-0.5c-1.9-0.1-6.8-1.3-8.4,0.5
		c-1.1,1.2-0.3,2.7,1.1,3c1,0.2,1.2-1.3,0.4-1.7c1.2,0.6,3.1,0.3,4.4,0.3c1.2,0,2.4,0.1,3.6,0.1c2.6,0.1,5.2,0.1,7.8,0.2
		c-0.6,0.2-1.3,0.5-1.9,0.8c-0.6,0-1.1-0.1-1.7-0.1c-0.7-0.1-1.3,0.7-1,1.4c0,0.1,0.1,0.1,0.1,0.2c-1.3,1.8-0.1,5,2.4,4.4
		c0.5-0.1,0.9-0.2,1.4-0.4c-0.1,0.1-0.2,0.2-0.3,0.3c-1.4,1.6,0,4.9,2.1,4.8c1.1,0,2.2-0.1,3.2-0.3c-11.4,14-22.9,28-34.5,41.9
		c0-10.4-6.1-21.3-13.5-27.7c-0.6-0.5-1.5,0-1.5,0.7c-0.8,7-1.5,14.3,0.6,21.2C253.4,1143.3,257,1150.4,261.7,1151z M414.2,1091.8
		c0.2-0.4,0.4-0.8,0.6-1.3c1.1,0.4,1.1,1.6-0.2,3.6c-0.6,0.3-1.5,0.2-2.5-0.1C412.9,1093.5,413.6,1092.8,414.2,1091.8z
		 M404.9,1080.7c0.1,0.8,0.2,1.6,1,2.1c0,0,0,0,0.1,0c-0.7,0.3-1.3,0.6-1.9,1C404.3,1082.8,404.6,1081.8,404.9,1080.7z
		 M404.1,1095.7c1-0.1,2-0.5,2.8-1.2c0.1,0,0.2,0.1,0.4,0.1c0.2,0.1,0.5,0.1,0.7,0.1c0,0,0.1,0,0.2,0c0.2,0,0.4,0,0.6,0
		c0.1,0,0.3,0.1,0.4,0.1c-0.1,0.3,0,0.6,0.2,0.9c0.5,0.4-0.8,1.1-1.2,1.4c-0.7,0.5-1.4,1.1-2.2,1.4
		C404.1,1099.4,402.8,1097.1,404.1,1095.7z M400.8,1061.7c0.1,0.1,0.3,0.1,0.4,0c2-1.3,4-2.7,6-3.9c-0.8,1.1-1.5,2.3-2.3,3.4
		c-0.2,0.2-0.4,0.5-0.6,0.9c-1.1,0.4-2.8,0.8-3.6,0C400.7,1061.9,400.8,1061.8,400.8,1061.7z M383.6,1036.6c0.6-0.1,1.1-0.2,1.7-0.4
		c0.4,0.9,0.7,1.7,0.4,2.9c-0.5,1.7-2.1,2.7-3.7,2.8c0.5-0.8,0.5-1.9,0-2.8C382.6,1038.4,383.2,1037.5,383.6,1036.6z M327.6,1106.6
		c0.9,4.2,0.9,8.4,0,12.6c-0.5-4-1-8-1.7-12C326.5,1107.2,327.1,1107,327.6,1106.6z M354.3,1015c-0.5,0.3-1.1,0.6-1.6,0.9
		c-0.2-0.1-0.3-0.1-0.5-0.2c-0.8-0.3-1.3,0.6-1,1.2c-0.1,0.1-0.2,0.2-0.3,0.3c-0.3-0.5-0.5-1.2-0.6-1.8c-0.2-1.2-0.1-2.5,0.6-3.5
		c0.7-1,3.1-1.6,3.1,0.4c0,0.3,0.2,0.5,0.3,0.6C354,1013.6,354,1014.4,354.3,1015z M329.7,1015c-0.5,0.1-1.1,0.3-1.6,0.4
		c-0.8-0.7-1.1-1.9-0.5-2.8c0.7-1,2.2-1.2,3.2-0.6c0.1,0.1,0.2,0.1,0.2,0.1c0,0.5,0.1,0.9,0.3,1.3c-0.2,0.4-0.2,0.9-0.2,1.4
		C330.7,1014.8,330.2,1014.8,329.7,1015z M322.8,1003.2c-0.4,0.6-0.9,0.6-1.5,0.5c0.1-0.3,0.2-0.7,0.2-1c0.4-0.3,0.8-0.7,1.1-0.7
		C322.9,1002,323.1,1002.8,322.8,1003.2z M321.2,991.4c0.5-0.1,1.2,1.6,1.6,2.9c-0.2,0-0.4,0-0.6,0c-0.6,0-1.2,0.1-1.9,0.1
		C320.7,992.9,320.9,991.5,321.2,991.4z M312.9,1003.3c0-0.1,0-0.2,0-0.3c-0.6-1.6-1.2-3.2-1.8-4.7c0.7,0.4,1.4,0.8,2,1.2
		c0.2,1.5,0.7,3,1.4,4.3C314,1003.8,313.5,1003.7,312.9,1003.3z M253.3,1120.3c3.7,3.6,6.5,7.9,8.5,12.7c2,5,2.4,9.8,2.5,15.1
		c-0.6,0.7-1.2,1.5-1.8,2.2c-1.5-1.8-3.7-2.9-5.2-4.8c-1.9-2.4-3.1-5.3-3.8-8.3C252.1,1131.7,252.6,1125.9,253.3,1120.3z"/>
	<path class="st61" d="M-8.1,632.1c17-26.4,40.8-47.9,62.9-69.8c25.2-24.9,50.2-52.5,61.4-87.1c12.4-38.3,7.5-78.8,2.1-117.9
		c-1.4-10-16.4-8.5-15.4,1.6c2.4,23.6-19.6,38.9-35.7,51.5c-8.7,6.8-17.3,14.1-24,23c-7.1,9.5-12.3,20.2-18,30.5
		c-9.1,16.6-20.9,31-33.4,44.8V632.1z"/>
	<path class="st61" d="M138.3,847.6c11.4-16.4,19.8-34.6,28.5-52.6c8.8-18.2,18.2-36.5,32.4-51.2c13.3-13.8,30.2-23.2,44.2-36.1
		c14.8-13.7,22.5-29.7,27.9-49.1c3-10.9,5.5-22.2,11.2-32.1c4.9-8.7,12.2-15.9,19.4-22.5c14.7-13.3,29.6-25.6,39.4-43.3
		c9.6-17.4,13.6-37.4,12.6-57.3c-0.5-9.6-13.9-9-15.8-0.4c-4.4,20-20.8,32.9-36.7,43.8c-16.8,11.5-34.1,21.7-49.4,35.3
		c-34.4,30.6-66.1,64.8-98.7,97.3c-14.9,14.9-30.2,29.6-42.4,46.9C99.4,742.8,91,760.9,82,778.6c-9.8,19-21.1,37.1-33.3,54.6
		c-3,4.3-6.1,8.7-9.3,13c10.1-19.1,17-40.3,22.6-61.1c11.3-42,17.6-87.6,42.5-124.2c11.3-16.6,26.1-30.3,39.8-44.8
		c12.9-13.6,24.1-28.2,33-44.8c31.4-58.1,34.3-132.4,72.2-186.9c5.8-5.7,11.2-11.9,15.6-19.1c0.3-0.5,0.6-1,0.9-1.5
		c3.9-6.6-6-11.5-10.5-6.7c-6,6.2-11.3,12.8-16.1,19.7c-10.2,9.4-22,17.2-32.9,25.7c-18.2,14.4-31.1,31.2-40.8,52.4
		c-9.1,19.9-16.5,40.2-29.4,58c-12,16.7-26.4,31.3-40.6,46c-14.8,15.5-29.6,31.3-41.2,49.4c-11.3,17.6-19.6,36.7-25.7,56.7
		c-12.5,41-17,83.8-27.9,125.2c-2.5,9.4-5.7,18.5-9.1,27.5v104.6c8.7,4.8,17.9,8.8,27.4,11.9c27,8.6,55.7,9.3,83,1.5
		c30.2-8.6,57.2-25.7,83.6-42.3c14.2-8.9,28.4-17.9,41-29c12.9-11.4,22.3-25.1,32.1-39.2c10.5-15.1,23.4-27.8,36.3-40.6
		c13.3-13.2,26.6-26.4,39.9-39.7c0.5-0.5,0.2-1.5-0.4-1.7c-12-5.3-25.7-6.2-38.3-2.2c-14.9,4.7-24.5,17.3-37.6,25.1
		c-11.8,7-25.6,9.1-38.2,14.2c-11.3,4.6-21,12.1-29.6,20.8c-18.3,18.6-31.9,41.5-52.9,57.3c-7.7,5.8-15.8,10.6-24.2,14.8
		C123.2,866.1,131.4,857.5,138.3,847.6z"/>
	<path class="st57" d="M112.6,368.5c-7.1,45.4-32.7,84.5-60.9,119.3c-19.9,24.6-40.9,48-59.8,73.3v3.7c0,0,0.1-0.1,0.1-0.1
		c44.6-61.5,110.8-115.8,121.3-196.1C113.5,368.1,112.7,368,112.6,368.5z"/>
	<path class="st57" d="M84.8,621.6c11.3-16.8,25.3-31.4,39.2-46.1c14.1-14.9,27.9-30,39.7-46.8c12.2-17.3,21.1-35.8,27.6-55.9
		c7.2-22,13.5-43.8,26.3-63.2c12.5-19.1,28.8-35.3,44.9-51.1c0.6-0.6,1.6,0.2,1,0.8c-14,14.4-28.2,28.7-39.9,45.1
		c-12.3,17.1-19.7,36-26,56c-6.1,19.6-12.6,38.6-23.2,56.3c-10.2,17.1-22.8,32.5-36.1,47.2c-26.5,29.4-56.8,56.7-68.9,95.9
		c-3.1,10.1-5.3,20.5-8.1,30.7c-2.6,9.5-5.8,18.6-9.5,27.7c-4.1,9.8-8.5,19.6-12,29.6c-3.6,10.1-6.5,20.3-9.1,30.7
		c-5.9,23-11.1,46.1-16.6,69.1c-5.3,22-10.8,44.3-9.9,67.2c0.1,1.9-2.8,2.2-2.8,0.3c-0.7-19.6,3.1-38.8,7.5-57.8
		c4.9-21,10-42.1,15-63.1c4.8-20.1,10-40.2,17.8-59.3c4-9.9,8.5-19.6,12.1-29.6c3.6-10,6.1-20.4,8.7-30.8
		C67.3,655.4,73.8,637.8,84.8,621.6z"/>
	<path class="st57" d="M18.4,921.3c37.6-5.5,52-46.8,62-78.5c5.6-17.8,11.9-35.1,20.5-51.5c8.1-15.5,17.8-30.1,28.8-43.6
		c11.2-13.7,23.7-26.2,37.4-37.2c13.9-11.3,29.5-19.6,44-30c7.1-5,13.8-10.8,18.6-18.2c5.5-8.3,7.7-18.2,10.5-27.6
		c5.1-16.8,14.9-30,28-41.2c28.8-24.8,77-44.5,76.7-89.6c0-0.8,1.2-1,1.3-0.1c2.5,36.9-33.4,60.3-59.2,78.8
		c-15.1,10.8-30.5,22.8-39.1,39.9c-4.4,8.8-6.3,18.5-9.5,27.8c-2.9,8.6-7.3,16.1-13.7,22.5c-12.5,12.6-29,20.3-43.3,30.4
		c-15.3,10.9-29.4,23.5-42,37.5c-25.3,28.3-43.3,61.6-54.8,97.8c-6.4,20.3-12.2,41.4-25,58.7c-10.1,13.7-24.1,24.5-41,27
		C16.9,924.5,16.6,921.6,18.4,921.3z"/>
	<path class="st57" d="M48.4,923c21.8-1.6,43-8.8,61.2-21.1c18-12.2,30.6-31.2,49.9-41.5c18.5-9.8,39.9-13,57.5-24.7
		c19.4-12.9,30.6-34.4,44.7-52.4c14.7-18.8,34.5-34.7,57.1-42.6c0.6-0.2,0.9,0.7,0.3,0.9c-21.4,9.9-40.1,23.2-54.8,42
		c-13.7,17.5-24.5,38.1-42.5,51.7c-16.5,12.5-37.1,16.3-55.5,24.7c-11,5-20,12.3-28.6,20.8c-7.8,7.7-15.4,15.4-24.3,21.8
		c-19,13.5-41.6,21.5-64.7,23.1C47,925.9,46.7,923.2,48.4,923z"/>
	<path class="st57" d="M234.4,497.8c3.1,2.6,8.1,4.7,12,7c3.3,2,7.1,2.3,10-0.7c2.5-2.6,3.4-7.3,0.8-10.2c-0.2-0.3-0.5-0.6-0.7-0.8
		c0-1.3-0.4-2.5-1.4-3.6c-2.3-2.4-4.7-4.8-7.1-7.2c-2.1-2.1-6.1-1.9-8.5-0.4c-3,0.1-5.9,2.1-7.3,4.5
		C230.1,490.3,231,495.1,234.4,497.8z"/>
	<path class="st57" d="M107.5,502.7c3.2,3.3,6.4,6.7,9.5,10.1c5.2,5.7,14-0.7,9.6-7.4c-0.2-0.3-0.4-0.6-0.6-1
		c0.9-6.7-4.9-13.1-9.3-17.3c-2.4-2.3-5-1.6-6.7,0.2c-1.1-0.4-2.3-0.6-3.7-0.4c-2.5,0.2-4.2,2.3-4.7,4.7
		C100.6,496.7,104.3,499.4,107.5,502.7z"/>
	<path class="st57" d="M51.4,514.4c2.4,2.3,5,4.5,7.4,6.9c2.7,2.7,7.8,1.8,10.2-0.7c2.8-2.9,2.9-7,0.8-10.3c-0.4-0.7-0.8-1.3-1.2-2
		c0.1-0.5,0.2-1,0.2-1.5c0-5.1-3-10.1-7.1-13c-2.3-1.7-5.6-1.7-8.2-0.6c-7.5-2.8-14.3,5.7-9.8,13.2C45.6,509.5,48.8,512,51.4,514.4z
		"/>
	<path class="st57" d="M39.1,454.3c6,5,13.7-3.4,9.4-9.5c-0.1-0.1-0.1-0.2-0.1-0.2c2.1-2.7,2.5-6.8-1.1-9.4
		c-2.1-1.6-4.2-3.2-6.4-4.8c-1.1-0.8-2.2-1.2-3.3-1.4c-2.6-2.9-6.7-3.8-10.1-1.8c-3.1,1.9-5.6,6.5-3.6,10.2
		C27.6,444.2,33.4,449.5,39.1,454.3z"/>
	<path class="st57" d="M71.7,442.1c3,3.1,5.8,6.3,9.6,8.4c5.4,3,12.2-4.1,9.6-9.6c-0.1-0.3-0.3-0.6-0.4-1c0-1.4-0.5-2.8-1.5-4.2
		c-1-1.3-2-2.7-3-4c-1.5-2.3-3.1-4.6-5-6.7c-1-1-2-1.7-3.2-2.1c-0.8-0.9-1.6-1.8-2.5-2.6c-3-3.1-8.7-2-11.4,0.8
		c-3,3.1-3.6,8-0.9,11.5C65.6,436,68.7,439.1,71.7,442.1z"/>
	<path class="st57" d="M159.5,492.1c2.2,2.9,5.4,5.4,8.4,7.4c3.5,2.4,7.9,2.4,11-0.8c2.9-2.9,3.5-7.8,0.8-11.2
		c-1.5-2.3-3.3-4.7-5.3-6.7c-1-1.3-2.1-2.6-3.1-4c-2.7-3.6-7.9-4.3-11.4-1.6c-3.2,2.5-4.1,7-2.2,10.5
		C157.4,487.9,157.9,490.1,159.5,492.1z"/>
	<path class="st57" d="M127.2,445.5c3.4,2.8,8.6,2.2,11.6-0.8c0.5-0.5,0.9-1,1.3-1.7c2.7-2.6,3.8-7.1,1.1-10.1
		c-2.2-2.4-4.4-4.6-6.8-6.7c-1.6-1.8-3.4-3.3-5.5-4.3c-7.2-3.4-15.3,4.9-12.2,12.2C118.6,438.9,123.4,442.3,127.2,445.5z"/>
	<path class="st57" d="M201.5,541.1c1.5,0.7,3.2,1.1,4.8,1.5c1.6,0.4,3.1,0.4,4.7,0.4c5.3-0.1,7.6-7.2,4.6-11.1
		c-1.4-1.9-2.7-3.9-4.2-5.7c0,0,0,0-0.1,0.1c-0.7-0.9-1.5-1.7-2.7-2.2c-1.9-0.9-4.1-0.6-5.8,0.4c-1.1,0.7-2,1.5-2.5,2.5
		c-1.4,0.8-2.5,2-3.1,3.7C195.8,534.9,197.5,539.3,201.5,541.1z"/>
	<path class="st57" d="M194.7,458.1c0.1,0.1,0.6,0.3,1,0.6c0.2,0.3,0.4,0.6,0.7,0.9c0,0,0,0,0,0c2,2.6,5.6,3.9,8.7,2.5
		c1.7-0.8,2.9-1.9,3.6-3.3c0.6-0.4,1.1-0.9,1.5-1.5c2-2.9,1.7-6.9-1.2-9.1c-2.7-2.2-5.4-4.4-8.2-6.4c-2.8-2.1-6.6-1.9-9.1,0.6
		c-2.5,2.5-2.7,6.3-0.7,9.2c0.2,0.3,0.4,0.6,0.6,0.9C192,454.7,192.8,457,194.7,458.1z"/>
	<path class="st57" d="M135.9,398.3c6.4,3.5,13.5-6,8.7-11.5c-0.8-0.9-1.5-1.9-2.2-2.9c0-1.3-0.3-2.6-1-3.8
		c-1.3-2.3-3.5-3.9-5.6-5.5c-5.7-4.5-13.8,1.9-11.2,8.6c0.9,2.2,2.1,4.4,3.4,6.4c0.1,0.5,0.1,1,0.3,1.6
		C129.3,395.1,132.8,396.6,135.9,398.3z"/>
	<path class="st57" d="M69.5,394c2.9,1.8,5.9,3.6,9.1,4.8c4,1.5,8.4-0.6,9.6-4.8c0.6-2.2,0.1-4.5-1.2-6.2c0-0.1-0.1-0.1-0.1-0.2
		c-0.3-0.4-0.6-0.7-0.9-1c-0.3-0.3-0.5-0.6-0.8-0.8c-1.3-3-4-5.7-6.1-7.9c-2.4-2.6-6-3.6-9-1.3c-2,1.5-2.8,3.9-2.4,6.2
		C65.7,386.2,65.8,391.7,69.5,394z"/>
	<path class="st57" d="M157.3,355.5c0.6,1.8,1.6,3.6,3,5c1.6,1.5,3,3.4,4.8,4.6c2.5,2.2,6.4,2.5,9.1,0.8c2.3-1.4,3.6-3.5,3.9-5.8
		c1.2-1.5,1.6-3.7,0.8-5.5c-2.9-6.7-9.5-11.4-15.7-14.6c-6.8-3.5-14,6.1-9.1,12C155.2,353.2,156.2,354.3,157.3,355.5z"/>
	<path class="st57" d="M73,337.3c3.4,4.1,8.5,6.4,13,9c2.8,1.6,6.7,0.2,8.8-1.8c1.8-1.8,2.4-3.9,2.3-6.2c1.9-3.4,1.7-8.4-1.8-10.7
		c-1.9-1.3-3.8-2.6-5.7-3.9c-2.2-1.5-5-2-7.5-1.2C74.7,320.7,67.6,330.9,73,337.3z"/>
	<path class="st57" d="M21.8,360c0.4,0.3,0.7,0.5,1.1,0.8c0.2,0.3,0.4,0.5,0.6,0.8c2.6,3.4,7.5,5.1,11.4,3.3c5-2.3,7.4-7.7,5.5-12.9
		c-1.7-4.8-5.3-9.2-9.9-10.9c-0.2-0.3-0.5-0.5-0.7-0.8c-3.2-3.5-8.7-5.2-12.7-1.8c-4,3.3-4.6,8.6-1.8,13c0.4,0.6,0.9,1.3,1.5,2
		c0.1,0.2,0.1,0.3,0.2,0.5C18.2,356.5,19.4,358.2,21.8,360z"/>
	<path class="st64" d="M426.3,530.9c0,0-0.1,0-0.1-0.1c-2.3-3-6.4-3.6-9.3-1.2c-2.9,2.4-2.8,6.4-1.9,9.7c1,3.5,3.6,5.8,6.3,7.9
		c4.6,3.4,11.3-0.2,12.7-5.2C435.4,536.8,431.6,531.1,426.3,530.9z"/>
	<path class="st65" d="M509.3,404.7c-1.9-2.1-4.7-3.3-7.3-4.5c-1.3-0.6-2.6-1.4-4-1.8c-0.5-0.2-3.1-0.7-2.6-0.5
		c-0.4-0.2-0.9-0.4-0.9-0.4c-4.9-1.6-10.2,4.8-7,9.3c0.6,0.9,1.2,1.8,1.7,2.8c0.7,1.4,1.9,2.5,2.9,3.7c1.8,2,3.8,4.6,6.3,5.8
		c4.1,2,8.7,1.5,11.6-2.4C512.8,413.1,512.4,408.1,509.3,404.7z"/>
	<path class="st65" d="M789,278.6c-0.8-3-1.5-7-5.3-9.2c-2.3-1.4-5.4-1-7.3,1c-1.2,1.2-2.1,2.6-2.6,4.3c-0.1,0.6-0.2,1.2-0.3,1.8
		c0.2-0.4,0.2-0.4,0,0.1c-0.5,1.5-1.2,2.9-1.6,4.3c-0.1,0.2-0.1,0.4-0.2,0.6c-0.2,0.5-0.5,1.1-0.8,1.5c-2.9,5.1-0.7,11.6,4.6,13.8
		c5,2.2,11.6-0.6,12.9-6.3C789.1,286.8,790.1,282.3,789,278.6z"/>
	<path class="st64" d="M991.6,323.4c-1.4-4.3-6.4-6.8-10.4-4.3c-3.6,2.2-5.6,5.8-8,9.2c-2.1,3.2-5.2,6.6-6.3,10.7
		c-1.2,4.4,0.8,9.4,4.7,11.7c4.1,2.4,8.9,1.4,12.3-1.6c3.5-3.1,5.2-8.3,6.6-12.7C991.7,332.2,993,327.8,991.6,323.4z"/>
	<path class="st64" d="M1388.7,541.8c-2.1-1.3-4.3-1.8-6.8-2c0.1,0,0.2,0,0.3,0c-4.1-0.2-8.1,1.7-10.9,4.7c-0.8,0.7-1.5,1.5-2,2.4
		c-0.9,1.7-1.5,3.6-1.3,5.5c0.3,3.6,1.7,6.7,4.9,8.6c3.3,1.9,6.6,1.5,9.9,0c1.6-0.7,3-2.2,3.9-3.9c0.4-0.2,0.7-0.5,1-0.8
		c0.2-0.1,0.5-0.3,0.7-0.4c-0.2,0.1-0.4,0.2-0.5,0.2c0,0,0,0,0,0c2.5-1.3,4.2-3.2,4.6-6.3C1393,546.7,1391.5,543.5,1388.7,541.8z"/>
	<path class="st64" d="M1166.3,795.1c-0.9-2.3-2.3-3.6-4.3-5.1c-0.6-0.5-1.3-1-1.9-1.4c-1.6-1.2-3.7-1.8-5.7-1.8
		c-0.7-0.1-1.5-0.1-2.3,0c-1.9,0.3-3.8,1-5.1,2.5c-1,1.2-1.8,2.5-2.3,4c-0.4,1.3-0.4,2.6-0.1,3.8c0,2,0.7,4,1.8,5.5
		c0.5,0.7,0.9,1.3,1.4,2c1.4,1.9,2.8,3.4,5,4.4c2,0.9,4.7,1.4,6.8,0.5c1.7-0.7,3.4-1.3,4.6-2.7c1.3-1.4,2-2.9,2.7-4.7
		c0.1-0.9,0.2-1.9,0.4-2.8C1167.3,797.7,1167,796.3,1166.3,795.1z"/>
	<path class="st64" d="M733.8,750.2c-0.9-0.6-2-0.8-3-0.9c-0.1,0-0.2,0-0.3,0c-2.4-0.3-4.6,1.5-5.8,3.4c-1.2,1.9-2.7,3.2-4.1,5.2
		c0.6-0.7,0.4-0.5-0.4,0.6c-0.5,0.5-0.9,1.1-1.2,1.7c-1.4,2.5-1.6,5.4-0.7,8.1c1.9,5.6,7.6,8.2,12.9,5.3c2.4-1.3,4.2-3.3,5-6.1
		c0.2-0.7,0.6-4.4,0.4-3.2c0.2-1.3,0.4-2.5,0.3-3.8c-0.1-0.5-0.1-0.8-0.1-1.1c0.1-0.5,0.2-1,0.2-1.5
		C737.4,754.6,736.4,752.1,733.8,750.2z"/>
	<path class="st65" d="M476.9,893.2c-2.8-1.5-7-1.5-9.2,1.2c-2.2,2.7-4.7,5.2-6.9,8c-2.2,2.7-3.7,6.1-2.5,9.7c0.8,2.5,2.3,4.6,4.5,6
		c5.7,3.4,12.3,0.1,14.4-6c1.2-3.4,2-6.8,3.2-10.2C481.4,898.8,479.7,894.7,476.9,893.2z"/>
	<path class="st65" d="M371.8,787.6c-6.1,2.1-14,1.1-18.8,6.1c-2.1,2.2-2.1,5.8,0,8c4.9,5,12.7,4.1,18.8,6.1
		c6.5,2.2,13.1-3.6,13.1-10.2C384.9,791.2,378.3,785.4,371.8,787.6z"/>
	<path class="st57" d="M395.6,875.7c-0.6-4.4-4.5-8.4-9.1-8.1c-1.9,0.1-3.8,0.7-5.4,1.9c-0.5,0-1,0-1.5,0.1c-0.1,0-0.1,0-0.2,0
		c-0.3-0.1-0.5-0.2-0.8-0.3c-1.1-0.3-2.2-0.5-3.3-0.5c-5-0.3-6.8,5.3-5.1,9.1c1.1,2.6,3.9,4.5,6.3,5.8c1.3,0.7,2.8,1.3,4.2,1.5
		c0.7,0.1,1.3,0.2,2,0.3c1.9,0.9,4,1.3,6.2,0.6C393.4,884.5,396.3,880.5,395.6,875.7z"/>
	<path class="st57" d="M223.1,77.1c-0.1-0.2-0.1-0.4-0.1-0.5c0-0.2,0-0.4,0-0.7c-0.1-1.4-0.2-2.8-0.4-4.2c0.1,0.6-0.6-3.5-0.8-4.1
		c-1.7-6.2-9.2-7.8-13.7-3.7c-5.4,5-7.6,15-5.4,22.1c1.6,5.3,6.5,8.7,11.9,7.9c5.2-0.7,9.6-5.3,9.4-10.9
		C224,81.1,223.6,79.1,223.1,77.1z"/>
</g>
<rect x="-11" y="-1" class="st53" width="1454" height="1157"/>
</svg>
