<?xml version="1.0" encoding="utf-8"?>
<!-- Generator: Adobe Illustrator 24.0.0, SVG Export Plug-In . SVG Version: 6.00 Build 0)  -->
<svg version="1.1" id="Capa_1" xmlns="http://www.w3.org/2000/svg" xmlns:xlink="http://www.w3.org/1999/xlink" x="0px" y="0px"
	 viewBox="0 0 1440 1024" style="enable-background:new 0 0 1440 1024;" xml:space="preserve">
<style type="text/css">
	.st0{clip-path:url(#SVGID_2_);fill:#ADDEA6;}
	.st1{opacity:0.45;clip-path:url(#SVGID_2_);fill:#FFFFFF;}
	.st2{clip-path:url(#SVGID_2_);fill:#8FB995;}
	.st3{clip-path:url(#SVGID_2_);fill:#468066;}
	.st4{clip-path:url(#SVGID_2_);fill:#519073;}
	.st5{clip-path:url(#SVGID_2_);}
	.st6{fill:#519073;}
	.st7{clip-path:url(#SVGID_2_);fill:#D78839;}
	.st8{opacity:0.41;clip-path:url(#SVGID_2_);fill:#F2F894;}
	.st9{opacity:0.5;clip-path:url(#SVGID_2_);fill:#F2F894;}
	.st10{opacity:0.63;clip-path:url(#SVGID_2_);fill:#D78839;}
	.st11{fill:#26491F;}
	.st12{fill:#91A0AB;}
	.st13{fill:#66788A;}
	.st14{opacity:0.51;fill:#66788A;}
	.st15{fill:#375E1D;}
	.st16{clip-path:url(#SVGID_2_);fill:#337D51;}
	.st17{fill:#266943;}
	.st18{clip-path:url(#SVGID_2_);fill:#266943;}
	.st19{clip-path:url(#SVGID_2_);fill:#003721;}
	.st20{clip-path:url(#SVGID_2_);fill:#0F442C;}
	.st21{fill:#455C46;}
	.st22{fill:#6CAE32;}
	.st23{clip-path:url(#SVGID_2_);fill:#224D21;}
	.st24{fill:#003721;}
	.st25{clip-path:url(#SVGID_2_);fill:#316211;}
	.st26{fill:#316211;}
	.st27{fill:#3A7C00;}
	.st28{clip-path:url(#SVGID_2_);fill:#207426;}
	.st29{clip-path:url(#SVGID_2_);fill:#2D7534;}
	.st30{clip-path:url(#SVGID_2_);fill:#277D00;}
	.st31{clip-path:url(#SVGID_2_);fill:#0D561E;}
	.st32{clip-path:url(#SVGID_2_);fill:#BE7037;}
	.st33{opacity:0.65;clip-path:url(#SVGID_2_);fill:#965F4A;}
	.st34{opacity:0.42;clip-path:url(#SVGID_2_);}
	.st35{fill:#A15B5D;}
	.st36{clip-path:url(#SVGID_2_);fill:#007139;}
	.st37{clip-path:url(#SVGID_2_);fill:#25571A;}
	.st38{clip-path:url(#SVGID_2_);fill:#54A405;}
	.st39{clip-path:url(#SVGID_2_);fill:#5A903D;}
	.st40{clip-path:url(#SVGID_2_);fill:#234E22;}
	.st41{clip-path:url(#SVGID_2_);fill:#1B431D;}
	.st42{clip-path:url(#SVGID_2_);fill:#214921;}
	.st43{fill:#1B431D;}
	.st44{fill:#254E25;}
	.st45{fill:#234925;}
	.st46{fill:#143510;}
	.st47{fill:#28612B;}
	.st48{clip-path:url(#SVGID_2_);fill:#5B394E;}
	.st49{clip-path:url(#SVGID_2_);fill:#4A2C3F;}
	.st50{fill:none;}
	.st51{fill:#442739;}
	.st52{clip-path:url(#SVGID_2_);fill:#3A7C00;}
	.st53{opacity:0.8;}
</style>
<g>
	<defs>
		<rect id="SVGID_1_" x="0" width="1440" height="1028"/>
	</defs>
	<clipPath id="SVGID_2_">
		<use xlink:href="#SVGID_1_"  style="overflow:visible;"/>
	</clipPath>
	<rect x="-70.9" y="-30.6" class="st0" width="1881.1" height="956.4"/>
	<path class="st1" d="M1721.1-30.6H96.3c-22.1,23.7-42,51.4-59.2,74.8C27.7,57,18.3,71.4,19,87.3c1.3,29.2,33.7,45.2,61.2,55
		l129.6,46.2c28,10,55.9,19.9,83.9,29.9c9.6,3.4,19.5,6.9,29.6,6.2c28.7-1.8,46.8-34.5,75-40.1c14.7-2.9,29.7,2.1,44.5,5
		c58,11.3,117.6-11.4,176.4-6.2c47.1,4.2,90.6,25.8,132.8,47c41,20.6,82,41.3,123.1,61.9c13,6.6,26.6,13.3,41.2,13.4
		c10.7,0.1,21-3.3,31.1-6.7c31.3-10.5,63.3-21.4,88.6-42.6c14.9-12.5,26.9-28.3,42.4-39.9c23.7-17.8,53.6-24.7,82.5-31.2
		c114.2-25.6,228.3-51.1,342.5-76.7c78-17.5,162.9-39.4,209.6-104.1c6.5-9,12.3-19.9,9.7-30.6C1722.3-27.7,1721.7-29.2,1721.1-30.6z
		"/>
	<path class="st1" d="M1563.2-30.6l-19.1,6.7c2.7-2,5.1-4.2,7.3-6.7H281.5c-1.6,6.4-1.9,13.2-1.4,19.7c4.2,48.3,48.9,84.5,95.4,98.2
		c46.6,13.7,96.2,10.7,144.6,14.6c150.2,12,297.4,90.7,444.7,59.4c62.6-13.3,119.6-45.8,181.6-61.3c44.1-11,89.8-13.4,134.6-21
		c103.2-17.6,199-62.8,292.8-109.7H1563.2z"/>
	<polygon class="st2" points="1816.8,132.8 1631.5,174 1444.2,315.9 1118.8,545 850,603.5 616.7,557.5 472.6,415.6 275.8,427.1 
		109.7,196 -68.7,85.5 -68.7,573.3 85.7,728.2 313.3,826 991.1,861.5 1816.8,695.7 	"/>
	<path class="st2" d="M901.2,636c0,0-32.8,7.4-76.3-7.3c-43.5-14.7-43.4-71.9-43.4-71.9l37.4,37.8L790.3,499c0,0,23.4,0.6,36.6,54.1
		c13.2,53.5,6,66.2,6,66.2s-22-85,26.6-109.3l-5.7,49.8c0,0,30.8-49.7,14.4-82.7c0,0,43.9,61-7.1,121.7c0,0,40.2-41.6,70.9-21.6
		L901.2,636z"/>
	<path class="st2" d="M949.2,645.5c0,0,91.4,1.8,107.6-57.8s-87.9,28.7-87.9,28.7s57.5-34.9,48-73.9S967.7,603,967.7,603
		s-24-68.3-29.1-26.9c-5.1,41.3,0.8,69.4,0.8,69.4L949.2,645.5z"/>
	<path class="st2" d="M692,545.6c10.8,11.5,19.5,25,25.3,39.6c-0.4-9.4,1.2-19,4.8-27.7c3.3,9,5.5,18.3,6.6,27.8
		c2.1-5.7,5.2-11.1,9.1-15.7c0.3,6.1,0.7,12.3,1,18.4c1.6-4.4,4.4-8.3,8-11.3c-0.1,4.8-0.2,9.6-0.3,14.5c2.4-2.5,5.2-4.7,8.2-6.3
		c0.8,3.4,1,6.9,0.6,10.3c6.3-7.9,9.7-18.1,9.3-28.2c2.3,10.6,4.6,21.2,7,31.8c1.9-4.4,4.4-8.6,7.2-12.4
		c9.3,17.5,17.8,35.3,25.7,53.5c-16.5-5.8-33-11.6-49.5-17.4c-16.8-5.9-37.8-12.4-49.7-26.7c-4.6-5.5-6.2-12.7-8-19.6
		c-1.4-5.2-2.5-10.4-3.4-15.6C693.4,557.9,693.8,547.5,692,545.6z"/>
	<path class="st2" d="M553.6,512.9c-4.6-17.3-5.2-35.4-5.8-53.3c12.5,16.8,20.8,36.8,23.9,57.5c2.2-12.5,4.4-25,4.2-37.7
		c-0.2-12.7-3-25.6-10-36.1c25,21.5,32.8,58.3,26.2,90.6c4.3-10.9,11.4-20.7,20.5-28.1c-2.3,10-4.6,20-6.9,30.1
		c7.9-7,15.8-13.9,23.7-20.9c2.6,12.4-1.5,25.9-10.5,34.8c-9.7,9.6-28.4,15.7-39.7,6.4C566.1,545.2,557.9,529.1,553.6,512.9z"/>
	<path class="st2" d="M641.3,554.3c7.7-7.7,12.8-17.7,17.1-27.8c-3.3,7.3-10,13-17.7,15c4.3-9,7-18.8,8-28.7
		c-3,6-7.9,10.9-13.9,13.9c-0.3-5.5-0.5-11-0.8-16.6c-8,7.6-15.1,16.2-21.1,25.5c-3.9,6-14.3,19.6-12,27.3
		C605.6,578.9,635.6,560,641.3,554.3z"/>
	<path class="st2" d="M816.8,397.5l-77.9-15.1l-1.8,7.9l-11.4-8l-44.3-5.6l-32.8-25.3l-18,5.6l-12.5,20.9l17.4,14.9l2.9,6.7
		l-8.4-7.7l-21-15.2l-7.9,14.1l-5.2-1.9l-13,6.4l-6.1,12.1l-14.3,12.8l30.6,12.3l21.3,11.6l0.2,9.6l12.3-13.5l25.3,9.5v0
		c9.7,15,15.2,32.2,16,50l-39,227.5l22.3,6.1l27.7-249.6l28.9-7.5l15.3,6.6l24.1,10.1l12-25.4l-7.7-2.3l-1.8-18.6l-32.4,2.6
		l-0.7-0.3l25.7-20l1,0.3l0.4,0.7l0.4-0.5l34.5,10.1l26.9,3.5l19.4-9.9L816.8,397.5z M627.4,439.8l11.2-12.3l1.8-8.9l15.4,25.2
		L627.4,439.8z M641.1,416l1.4-6.8l2.7,6.4l16.2,9.7l4.7,10.3l21.6,16.5l-0.9,4.7l-11.5,0.8L641.1,416z M677.4,474.7l12.1-6.4l9.3,4
		L677.4,474.7z M709.2,445.6l-8.1-3.7l-14.7-15l34.2,6L709.2,445.6z"/>
	<path class="st3" d="M1594.9,12.7l-134,12.9l0.8,13.7l-22.4-7.4l-74.7,12.2l-65.5-25.4l-26.6,17.8l-10.2,40.1l35.5,15.9l8,9.6
		l-17.4-8.5L1246.7,79l-6,26.8l-9.3-0.6l-18.1,16.7l-4,22.7l-17.1,27.8l55.8,5.3l40.2,8.5l4.9,15.6l13.5-27.8l45.8,3.3v0
		c23,19.7,40.3,45.1,50.2,73.6l46.5,388.9l39.2-0.9L1413,219.4l43.3-26.1l28.2,3.4l44.1,4.7l7.3-47.1l-13.6,0l-12-29.3l-51.5,19.9
		l-1.3-0.2l32.2-44.9l1.8,0l1,1l0.3-1l61-0.3l45.5-7.3l26.8-25.4L1594.9,12.7z M1307.3,172.7l12.4-25.4l-1.3-15.3l37.2,33.5
		L1307.3,172.7z M1318,127.4l-1-11.7l7.5,9l30.9,7.9l12.7,14.4l43.1,16.3l0.9,8.1l-18.3,6.9L1318,127.4z M1405.4,205.4l16.5-16.3
		l17.1,2.1L1405.4,205.4z M1443.1,142.8l-15-2.1l-31.2-17.3l58.5-6.7L1443.1,142.8z"/>
	<polygon class="st4" points="1816.8,290.8 1795.6,287.1 1710.2,343.7 1572.9,468.3 1520.1,470.3 1513.4,542.2 1478.8,477 
		1461.5,535.5 1391.4,425.2 1200.4,637.1 1020.3,697.2 858.6,690.8 649.3,680.2 590.7,649.6 513.9,644.8 496.6,656.3 428.5,529.7 
		395.8,617 328.6,564.2 190.4,509.6 -68.7,418.7 -68.7,706.7 208.6,802 933,858.6 1816.8,659.5 	"/>
	<path class="st4" d="M742.4-42H119.9L92.4-1.5l175,27.2l41.1,6.3l36,5l30,79.8l14.4-6.7c2.6,12.4,5.2,24.8,6.7,37.4
		c6.7,56.4-9.6,112.7-25.8,167.2c-2-21.9-2.6-43.9-1.6-65.9c-4.7,1.1-9.4,2.2-14.2,3.3c7,45.2,6.4,91.5-1.7,136.5
		c-4.7,26.1-11.9,51.7-19.3,77.2c-29,100.6-60.8,202.7-57.9,307.4c0.2,7.7,40.6,3.5,45.9,2c14.6-4.1,18.1-7.8,21.5-21.4
		c9-35.7,7.4-77,13.5-113.7c12.8-76.9,31.9-152.6,51.1-228.2c14.2-56,28.3-112,42.5-167.9c2.7-10.6,5.5-21.5,11.2-30.9
		c7.5-12.2,19.3-21,29.7-30.9c23.5-22.5,39-50.3,51.7-80.1l11.7,10l61.6-30l61,21l37-31.9l45-47.9l9-58.9L742.4-42z M482.8,150.1
		c-5,14.8-20.2,23.5-34.7,29.6c-4.9-40.6-8.6-93-10.3-142.1l33.6,8.4l16.6-8.5c-1.2,35-2.5,70.7-2.9,94
		C484.9,137.9,484.8,144.2,482.8,150.1z M507.1,137.5c-9-6.5-10.5-19-10.8-30c-0.6-17.8,0.5-46.7,2.4-75.4l7.7-3.9l16,20V85
		l12.9,11.2C528.6,111.8,520.7,127.5,507.1,137.5z"/>
	<path class="st4" d="M186.1,608.5c0,0,57-112.8,76.9-278.5s13-317.4,13-317.4l28-25.9c0,0,26,477.1-46,617.8
		S186.1,608.5,186.1,608.5z"/>
	<path class="st4" d="M245,577.5c2.1,4.2,20.5-260-66.9-303.2l22,111.2l23.4-0.7l-14,14.9l3.8,31.5l13.5-2.5l-9.8,19.2
		C217.1,447.8,225,537.3,245,577.5z"/>
	<path class="st4" d="M242.2,566.7c0,0,4.6-267.7-270.4-295.6l96.1,95.2l35.6-15.5l-30.2,22.4l24.8,44.1l30.2-34L103.5,422
		l19.4,33.3l34.1-29.4l-25.6,42.6l16.3,30.2l30.2-27.9l-26.3,38.7c0,0,29.4,55.7,91.4,61.1L242.2,566.7z"/>
	<g class="st5">
		<path class="st6" d="M1591-5.6l-6-1.3C1588.7-6.7,1591-5.6,1591-5.6z"/>
		<path class="st6" d="M1272.3,95c0,0,36.7-82.8,95.3-89.9c22.8-2.8,43.6,4.1,60.5,13.5l-0.6-0.5c0,0,0,0,21.2-18
			c9.8-8.4,35.7,10.9,44.5,17.8c0-0.1,0-0.1,0.1-0.2c7.5-23.7,29.4-37.7,51.5-33l40.2,8.5l0,0l6,1.3c0,0,34.3,29.2,42.4,78.7
			l-27.2-30.4L1594,14.7l1,19.1l-14.1-6.7l-3-15.7v11.2l-15.1-2.2c0,0-17.2,7.9-20.2,13.5c-6.5,14.5-14,22-21.4,25.5
			c19.9,11.5,48.3,47.2,54.7,156.6l-1,30.4c0,0-39.3-24.7-52.5-67.5l3-15.7l-8.1,11.2l0.9-7.2l2.2-17.6l-34.6-55.7
			c23.5,77.2,58.9,163,113.2,233.3c118.6,153.5,166.9,232.2,166.9,232.2l4.7,23.2l0,0l11.2,54.6c0,0-115.4-194.1-193.9-295.3
			c-65.7-84.7-107.4-215.8-119.3-256.5c-3.1,12-6.8,34.1-6.8,72.1h-11.1l11.1,5.6h-11.1l13.1,11.2v37.1l-15.1-10.1l16.1,18
			c0,0,4,47.2,11.1,64.1c0,0-66.6-54-58.5-133.8c2.4-23.3,5.3-42.1,8.3-57c1.7-8.3,5.4-15.8,10.5-22c-28.9,20.3-43,39.7-43,39.7
			l-7.1-12.4l2,14.6l-19.2,29.2l2-22.5l-9.1,30.4l-2-20.2l-3,24.7l-25.2,54v-39.3c4.9-44.6,26.7-88.1,56.4-116.3l-4.1-15.8l0,16
			l-25.4,3.3l-8.4-19.9l2.4,20.2l-18.4,3.7l-3.4-15.3l0.2,16.9L1272.3,95z M1483,49.5l-1.5,0.5c0.8,0,1.6,0.1,2.4,0.2
			C1483.4,49.7,1483.1,49.4,1483,49.5c0.1-0.1,0.1-0.3,0.2-0.5L1483,49.5z"/>
	</g>
	<g class="st5">
		<path class="st6" d="M447.4,178.8l5.8-1.2C449.6,177.7,447.4,178.8,447.4,178.8z"/>
		<path class="st6" d="M755.2,277.4c0,0-35.5-81.1-92.1-88.2c-22-2.7-42.1,4-58.4,13.2l0.6-0.5c0,0,0,0-20.5-17.6
			c-9.5-8.2-34.5,10.6-43,17.5c0-0.1,0-0.1-0.1-0.2c-7.2-23.2-28.4-37-49.8-32.4l-38.8,8.4l0,0l-5.8,1.2c0,0-33.1,28.6-40.9,77.1
			l26.3-29.8l11.7-27.5l-1,18.7l13.6-6.6l2.9-15.4v11l14.6-2.2c0,0,16.6,7.7,19.5,13.2c6.3,14.2,13.5,21.6,20.7,25
			c-19.2,11.3-46.7,46.3-52.9,153.5l1,29.8c0,0,38-24.2,50.7-66.1l-2.9-15.4l7.8,11l-0.8-7l-2.1-17.2l33.4-54.6
			C526.3,351.9,492.1,436,439.6,505C325,655.5,278.4,732.6,278.4,732.6l-4.6,22.7l0,0L263,808.8c0,0,111.5-190.3,187.3-289.5
			c63.5-83,103.8-211.5,115.3-251.4c3,11.7,6.5,33.4,6.5,70.7h10.7l-10.7,5.5h10.7l-12.7,11v36.4l14.6-9.9l-15.6,17.6
			c0,0-3.9,46.3-10.7,62.8c0,0,64.3-52.9,56.5-131.1c-2.3-22.8-5.1-41.2-8-55.9c-1.6-8.2-5.2-15.5-10.2-21.6
			c27.9,19.9,41.6,38.9,41.6,38.9l6.8-12.1l-1.9,14.3l18.5,28.6l-1.9-22l8.8,29.8l1.9-19.8l2.9,24.2l24.4,52.9v-38.6
			c-4.7-43.7-25.8-86.3-54.5-114l4-15.4l0,15.7l24.6,3.2l8.2-19.6l-2.4,19.8l17.8,3.7l3.3-15l-0.2,16.6L755.2,277.4z M551.7,232.8
			l1.5,0.4c-0.8,0-1.6,0.1-2.3,0.2C551.4,233,551.6,232.7,551.7,232.8c-0.1-0.1-0.1-0.3-0.2-0.5L551.7,232.8z"/>
	</g>
	<path class="st4" d="M834.5,579.7L752,672.6l-12-57.2L720.5,657l-5.9-121.6l-12.9,158l-31.2-121.9c0,0-4.6,32.2-10.5,74.1
		c-14.2-119.8-40-133-40-133c-24.6,25.7-38.5,64.2-45.6,106.1c-34.7-78.8-56.6-83.7-56.6-83.7c-28.8,51-19.3,129.3-2,196.3l0.1,0
		l0.7-0.6c2.6-2,5.5-0.8,6.8,1.4l44.8,5.2l50.5,5.8l27.1,3.1l21.7,2.5l178.7,20.6L834.5,579.7z"/>
	<g class="st5">
		<path class="st6" d="M1142.9,489.2c-5.9-9.7-17.9-18.2-28.1-13.1c-4.5,2.2-7.4,6.5-10,10.7c-17.5,28.3-27.6,61.1-29.1,94.2
			c-1.7-5.2-1-11-2.7-16.2c-1.7-5.2-7.8-9.9-12.6-7.1c-1.8,1-2.9,2.8-3.8,4.6c-3.9,7.5-5.6,16.1-4.9,24.5c-1.1-3.8-2.3-7.8-5-10.6
			s-7.5-4.3-10.8-2c-2.8,2-3.5,5.8-3.8,9.2c-0.7,7.9-0.7,15.9,0.1,23.7c-2.4-3-4.7-6.1-7.1-9.1c-1.9,12.1-0.8,24.6,3.2,36.2
			c-3.6-10.8-10.9-20.4-20.3-26.8c-3.1-2.1-7.9-3.6-10.2-0.6c-1.1,1.5-1,3.6-0.9,5.5c0.6,7.4,1.2,14.7,1.9,22.1
			c-2.3-6.2-6.4-11.7-11.7-15.7c-1.9-1.4-4.5-2.7-6.5-1.5c-1.9,1.2-2.1,3.8-2.1,6c0.2,12.4,0.4,24.9,0.5,37.3
			c-4.7-6.8-11-12.4-18.3-16.4c-2.8-1.5-6.1-2.8-9.2-2.1c-9.9,2.3-6.2,18.2-12.8,25.8c-4.8-11.1-12-22-23.3-26.5
			c-11.3-4.4-26.8,0.8-29.3,12.5c-5.1-7.1-11.9-13-19.7-17.1c-4.2-2.2-9.3-3.9-13.7-1.8c-4.4,2.1-6.4,7.5-5.9,12.3s2.9,9.2,5.3,13.5
			c-7.2-2.3-17.1-3.6-20.4,3.1c-3.7,7.5,5.5,15.3,5.5,23.6c-6.5-5.5-14.1-9.6-22.2-12.2c-2.4-0.7-5-1.3-7.2-0.3
			c-4.1,1.9-4.2,7.6-3.4,12c1.7,9.7,4.4,19.2,8.1,28.4c-1.8-0.3-3.7-0.7-5.5-1c4.7,20.5,24.4,34.8,44.9,39.8
			c20.5,5,42.1,2.5,63.1,0.6c70-6.4,140.5-6.2,210.8-4.9c5,0.1,17.2-60.5,18.5-66.9c4.6-22.7,7.8-45.7,9.3-68.8
			c1.5-22.2,0.6-44-1-65.6C1151,528,1154.6,508.4,1142.9,489.2z"/>
		<path class="st6" d="M807.7,675.3c2.2-1,4.9-0.4,7.2,0.3c8.1,2.5,15.7,6.7,22.2,12.2c0-8.3-9.2-16.1-5.5-23.6
			c3.3-6.7,13.3-5.4,20.4-3.1c-2.4-4.2-4.8-8.6-5.3-13.5c-0.5-4.8,1.5-10.3,5.9-12.3c4.3-2,9.4-0.4,13.7,1.8
			c7.8,4.1,14.6,10,19.7,17.1c2.6-11.8,18.1-17,29.3-12.5c11.3,4.4,18.5,15.4,23.3,26.5c6.6-7.6,2.9-23.5,12.8-25.8
			c3.1-0.7,6.4,0.6,9.2,2.1c7.3,3.9,13.6,9.6,18.3,16.4c-0.2-12.4-0.4-24.9-0.5-37.3c0-2.2,0.2-4.9,2.1-6c2-1.2,4.6,0,6.5,1.5
			c5.3,4,9.4,9.5,11.7,15.7c-0.6-7.4-1.2-14.7-1.9-22.1c-0.2-1.9-0.3-4,0.9-5.5c5.5-7.4,21.6,8.6,23.6,13.3
			c-2.9-6.9-4.6-14.3-4.9-21.7c-0.1-1.9,0-3.8,0.6-5.5s2-3.3,3.9-3.7c2.6-0.6,5.1,1.3,6.9,3.4c1.6,1.8,2.9,3.9,3.9,6.1
			c-0.9-6.6-2.6-19.8,4.1-24.4c3.3-2.3,8-0.9,10.8,2c2.7,2.9,3.9,6.8,5,10.6c-0.7-8.4,1-17,4.9-24.5c0.9-1.8,2.1-3.6,3.8-4.6
			c4.8-2.8,10.8,1.9,12.6,7.1c1.7,5.2,1,11,2.7,16.2c1.5-33.2,11.6-65.9,29.1-94.2c2.6-4.2,5.6-8.5,10-10.7c2.2-1.1,4.5-1.5,6.7-1.5
			c-0.7,0.7-1.4,1.4-2.1,2.2c-4.7,5.4-7.2,12.4-9.2,19.1c-10.2,33.7-13.3,69.5-8.9,104.4c-0.4-3-0.9-6.2-2.8-8.6
			c-1.9-2.4-5.7-3.6-8.1-1.6c-1.4,1.1-1.9,2.9-2.3,4.6c-1.7,6.7-2.4,13.7-2.1,20.6c-1-4.7-2-9.6-4.8-13.6c-2.8-4-7.8-6.8-12.5-5.5
			c-11.7,3.2-6.3,23.1-15.4,31.1c-0.4-3.7-4.4-6.5-8.1-5.7c-3.6,0.8-6.2,4.7-5.5,8.4c-2.5-2-4.9-4.1-7.4-6.1
			c-2.3,10.7-3.3,21.7-2.9,32.6c-0.8-9.2-5.1-18.1-11.8-24.5c-2.2-2.1-5.9-4-8.1-1.9c-1.3,1.2-1.4,3-1.5,4.8
			c-0.3,6.9-0.7,13.9-1,20.8c-2.6-5.4-8-11.9-13.3-9c-2.1,1.2-3.2,3.6-4.1,5.9c-5.8,15.4-6.4,32.6-1.8,48.4
			c-4.7-17.4-13.9-34.7-29.5-43.8c-2.3-1.4-5.6-2.5-7.6-0.6c-1.2,1-1.5,2.7-1.7,4.2c-0.8,4.8-1.6,9.7-2.4,14.5
			c0-1.8-1.5-3.4-3.2-3.6c-1.9,1.7-3.3,4-4,6.5c-3.3-10.8-10.1-20.5-19.3-27.3c-5-3.7-12.2-6.3-17-2.5c-2.6,2-3.7,5.4-4.4,8.6
			c-2.5,10.9-2.5,22.3,0.2,33.2c-2.5-6.5-5.4-13.4-11.4-16.9c-6-3.5-15.8-0.9-16.5,6c-2.5-2.6-5.2-5.4-8.7-6.5
			c-3.5-1.2-8-0.2-9.6,3.1c-0.8,1.7-0.7,3.7-0.6,5.6c0.4,6.3,0.8,12.7,1.2,19c-1.8-4.2-7.8-5.8-11.4-3.1c-3.1-3.7-6.4-7.6-11-9.3
			c-4.6-1.7-10.7-0.2-12.4,4.3c-0.7-3.7-6.7-3.7-9-0.7c-2.3,3-2,7.1-1.6,10.9c0,0.4,0.1,0.9,0.1,1.3c-1.6-5.3-2.9-10.7-3.8-16.2
			C803.5,682.9,803.6,677.2,807.7,675.3z"/>
	</g>
	<path class="st4" d="M1473.2,103.8l-114.6,18.5l1.4,11.7l-19.7-5.2l-63.7,14.6l-57.8-18.3l-22,16.8l-6.6,35.1l31.5,11.7l7.4,7.8
		l-15.4-6.3l-36.6-10.2l-3.7,23.4h-8l-14.6,15.3l-2.2,19.7l-13.2,24.8l48.3,1.5l35.1,5.1l5.1,13.2l10.1-24.7l39.6,0.3v0
		c20.9,15.7,37.2,36.6,47.3,60.6l61.5,332.2l33.7-2.9l-88.2-356.8l35.9-24.9l24.4,1.4l38.3,1.6l3.7-40.9l-11.7,0.7l-11.9-24.6
		l-43.3,19.9l-1.1-0.1l25.2-40.5l1.6-0.1l1,0.8l0.2-0.8l52.5-3.6l38.8-8.8l21.7-23.4L1473.2,103.8z M1234.5,257.5l9.2-22.5l-2-13.1
		l33.9,26.8L1234.5,257.5z M1241.2,217.8l-1.5-10l7,7.4l27.1,5.1l11.7,11.7l38,11.7l1.2,7l-15.4,6.9L1241.2,217.8z M1320.7,280.2
		l13.3-14.9l14.8,0.8L1320.7,280.2z M1349.7,224.2l-13-0.9l-27.8-13.2l50-9L1349.7,224.2z"/>
	<polygon class="st4" points="1128.4,684.1 1185,534.5 1169.7,646.7 1199.4,579.6 1187.9,643.8 1226.3,537.4 1215.7,659.2 
		1157.2,677.4 	"/>
	<path class="st7" d="M1872.3,1038.2l8.4-492.9c0,0-219.9,25.9-602,135.2s-309.1,110.3-561.6,71.9S-46.2,834-46.2,834l-10.7,204.2
		H1872.3z"/>
	<path class="st8" d="M1752.3,551.9c-100.3,18.1-270.4,53.6-498.1,118.7C872,780,945,780.9,692.5,742.6
		c-171.5-26-462,20.9-630.9,53.7l59.6,108.4l458.9-35c78.5-6,157.4,4.4,231.7,30.5l0,0c111.3,39.1,229.3,55.3,347,47.7l154.4-10
		c95.3-6.1,189.5-23.3,280.8-51.2l214-65.4l44.2-152.5L1752.3,551.9z"/>
	<path class="st9" d="M692.5,742.6c-94.8-14.4-226.1-6.5-353,9c20.3,50.3,147.4,57.6,283.9,59.1c174.7,1.9,165.1,47.9,327.4,73.8
		c24.6,3.9,403.2,17.3,680.7-123.7c193.4-98.2,127-166.7,69-199.1c-102.8,20.1-254,54-446.3,109C872,780,945,780.9,692.5,742.6z"/>
	<path class="st10" d="M1454.8,615c0,0,14.4,17.3-6.7,29.7c-21.1,12.5-34.6,1.9-73,8.6c-38.4,6.7-56.6,25.9-78.7,28.8
		s-14.4-11.5-29.8-6.7c-15.4,4.8-49.9,5.8-49.9,5.8L1454.8,615z"/>
	<g class="st5">
		<path class="st11" d="M1424.9,583c0.5,14.8-3,29.7-10.2,42.7c0.8-7.5-3.4-15.3-10.1-18.6c1.9,3.6,2.4,7.9,1.5,11.9
			c-5.1-6.4-12.1-11.2-20-13.5c0.5,2.8,1,5.5,1.5,8.3c-8.7-4.3-19.1-5.2-28.4-2.3c1.7,2.6,3,5.5,3.6,8.6c-2.9-0.1-6.2-0.2-8.4,1.8
			c-3.9,3.4-1.5,10,2.1,13.7c3.6,3.8,8.3,7.2,8.9,12.3c1.1-5.4,7.5-8.1,13-7.9c5.5,0.2,10.8,2.3,16.3,2.5
			c12.9,0.6,24.4-7.7,37.4-4.2c-3.8-7.8-1-16.1-0.8-24.6C1431.5,603.1,1430.2,592.3,1424.9,583z"/>
		<path class="st12" d="M1274.4,637c5.5-6.8,12.6-11.9,19.7-17c13.5-9.7,27-19.4,40.5-29.1c5.3-3.8,11.8-7.8,18-5.6
			c7.1,2.5,9.1,11.4,10,18.9c1.5,12,2.9,24.1,4.4,36.1c0.1,1.2,0.3,2.5-0.3,3.6c-0.6,1.2-1.9,1.9-3.1,2.5
			c-23.4,11-48.3,19-73.8,23.4C1262.2,674.4,1256.9,658.6,1274.4,637z"/>
		<path class="st13" d="M1403,623.8c4.3,4.3,8.8,9.5,8,15.4c-28.4,5.7-56.5,12.7-84.3,21c2.2-7.8,9.7-12.6,14.6-19.1
			c7-9.3,9.5-32.1,11.2-43.7c0.8-5.4-1-9.3-5.4-12.6C1373.1,584.1,1386.9,607.7,1403,623.8z"/>
		<path class="st14" d="M1328.8,601.3c-4.8,5.9-4.9,14.6,0.3,20c1,1.1,1.8,2.4,2,4c0.5,3.1-1.2,6.1-2.8,8.8
			c-5.6,9.5-12.2,21.7-17.9,31.2c11.1-1.5,38.9-15.3,30.9-15.5c-4.3-0.1,3.9-7.7,5.2-11.8c2.9-8.9,17.5-43.5,8.2-50.9
			C1347.4,581.2,1337,591.2,1328.8,601.3z"/>
		<path class="st15" d="M1242.2,643.2c0.9-11.8,4.3-23.2,7.9-34.5c3.9,11.4,6.2,23.4,6.8,35.4c5-7,9-14.6,11.9-22.6
			c3.8,6.6,5.5,14.3,4.8,21.9c7.3-10.8,15.6-20.8,24.9-29.9c2.3,4.5,1.7,9.9,0.5,14.9c-4.3,17.3-16,32.5-31.2,41.8
			c-6,3.7-14.3,9.4-20.3,3.7C1240.9,667.8,1241.5,651.1,1242.2,643.2z"/>
	</g>
	<path class="st16" d="M780.7,781.2l1-14l-13.7-0.8c7.1-22.6,14.5-46.4,10.9-69.8c-2.3-14.9-5.4-29.6-9.5-44.1
		c-2.1-7.4-4.5-14.6-7.1-21.8c-1-2.8-9-17.6-8-19.8c-14.9,30.7-24.3,64-27.8,98c-21.6-32.3-27.4-74.7-55-102
		c3,39.3-6.8,79.5-27.6,113c7.2-18.1,11.1-37.5,11.6-57c-1.4,9.6-8.6,17.2-14.9,24.5c-10.1,11.8-18.9,24.8-26.1,38.7
		c-0.6-11.8-2.5-23.5-5.9-34.8c-4,12.3-7,25-8.9,37.8c-7.8-13.5-15-27.3-21.8-41.3c-2.1,20.4-3.1,42.2,3,61.4l1.2,1.7l-20.2-2.7
		l17,15L478.7,768c-17.2,0.8-34.4,2.4-51.5,4.6L317,787.1l40-1c0,0,71-9,83.9-8c13,1-9,6,16,7c32.8,1.3,66.3-3.7,99.1-6.4
		c5.5-0.5,12.5-0.1,14.6,5.1c1.1,2.8,0.3,6.4,2.3,8.7c1.7,1.9,4.5,2,7.1,2c69.3-0.4,141.6,6.4,209.7-5.4l13-8H780.7z M667.8,763.8
		l-0.3-0.1l0.3-0.5L667.8,763.8z"/>
	<g class="st5">
		<path class="st17" d="M664.3,665.1c-3.3,22.3-14.8,39.8-23.4,60c-2.5,5.8-4.4,11.7-5.8,17.9c-1.2,2.6-2,5.3-2.7,8.1
			c-1.7-15.4-0.2-31.3,6-45.4c3.5-7.9,8.4-15,12-22.8c3.7-7.8,6.2-16.5,4.4-25c-7.8,22.8-26.9,40-36.9,62c-1.5,3.4-2.9,7-3.1,10.7
			c-0.2,4.2,0.9,8.3,2.5,12.3c3.4,8.8,8.4,17,14.8,24c-1.1-1.2,0-6.7,0.8-10.6c-0.4,3.8-0.5,7.6-0.5,11.4
			c5.9-30.3,33.2-51.9,43.9-80.9c10.9-29.6,5.8-66.2-8.3-93.8C661.7,616.2,667.9,641.2,664.3,665.1z"/>
		<path class="st17" d="M577.8,688.6c-2.1,20.2-2.9,41.7,3,60.7l13,18.9h6l5.7-4.1c-7.6-10.1-13.8-21.3-18.4-33.3
			C581.7,716.9,580.1,703,577.8,688.6z"/>
		<path class="st17" d="M778.9,696.6c-1.6-15-5.4-29.6-9.5-44.1c-2.1-7.4-4.5-14.6-7.1-21.8c-0.8-2.2-5.9-11.8-7.6-16.9
			c0.8,21.3,0.5,42.7-1,64c-1.3,18.7-3.6,37.5-9.2,55.4c-4.5,14.5-11.2,27.8-20.3,40c-5.4,7.2-3.7,9.2,5.1,10.8c0.1,0,0.2,0,0.3,0
			c1.6-1.5,3.3-2.9,4.2-2.9c2,0,13,10,13,10l13-4C768.7,772.2,781.8,724.8,778.9,696.6z"/>
	</g>
	<path class="st16" d="M757.5,787.8c0,0,13.2-55.7,45.3-100.1c32.1-44.4,64.6-26.8,75-16.4l-23.2,22.3l-26.5-15.9l24.7,16.6
		l-5.3,6.9l-31.1-12.8l-2.5,2.9l28.1,16l-8.7,10.4L808,700.6l23.3,18.6l-16.1,14.7l-20.1-14.4l17.8,15.3l-19-12.5l16.5,15.4
		C810.4,737.8,777.3,760.8,757.5,787.8z"/>
	<path class="st18" d="M757,779.7c0,0,41.9-38.9,93.4-58c51.4-19,68.6,13.7,71.5,28l-31.7,5.7l-13.2-28l11.3,27.5l-8.3,2.8
		l-18.7-27.9l-3.7,1l14.5,28.9l-13,3.8l-11.5-28.4l9,28.4l-21.6,3.3l-8.7-23.1l6.2,22.6l-8.9-20.9l5.2,22
		C828.8,767.5,788.4,768.2,757,779.7z"/>
	<polygon class="st19" points="921.4,1071.6 853.6,971.8 785.7,980.8 707.7,995.7 655.9,1015.2 608.2,997 576.8,899.9 539.8,985.8 
		523.8,1030.7 466.9,1030.7 456.1,1071.6 	"/>
	<path class="st19" d="M1803.8,1028.3l0.5-29.7l-24-79.6l-21.1-11.5l-33-9l-66.8-47.6l-47,14.4l-74.9,73.8l-117.1-11.5l-31.7,24.9
		l-71-56.6l-22.1,26.8l-7.7,16.3l-43.2-95.9l-42.2,65.2l-83.5,41.2c0,0-15,43.3-26.9,78.6H1803.8z"/>
	<path class="st20" d="M1103.3,1028.3c82.9-81,53.8-187,53.8-187c-214.1,26.4-305.9,131.1-340.2,187H1103.3z"/>
	<g class="st5">
		<path class="st21" d="M-29.8-24.1C-16.5-4.1-2.5,15.2,11.8,34.4c3.6,4.8,7.2,9.5,10.9,14.2c3.7,4.7,7.3,9.4,11,14.1
			c7.4,9.3,15,18.5,22.7,27.7c7.7,9.1,15.5,18.1,23.5,27c7.9,8.9,16,17.7,24.2,26.3c16.6,17.1,33.5,33.8,51.2,49.8
			c8.8,8,17.8,15.8,27,23.4c4.6,3.8,9.2,7.5,13.9,11.2c4.7,3.6,9.4,7.3,14.3,10.7c19.2,14.1,39.6,26.6,61,37.1
			c10.7,5.2,21.7,9.9,32.9,13.9c11.2,3.9,22.7,7.3,34.3,9.8c2.9,0.6,5.8,1.2,8.7,1.8l8.8,1.5c2.9,0.5,5.9,0.7,8.8,1.1
			c2.9,0.4,5.9,0.6,8.9,0.8c11.8,0.9,23.7,1,35.5,0c2.9-0.1,5.9-0.5,8.9-0.8l8.9-1l4.4-0.5l2.2-0.2c0.7-0.1,1.5-0.2,2.2-0.3l8.8-1.3
			l8.8-1.3c1.5-0.2,2.9-0.5,4.4-0.8l4.4-0.9l8.7-1.7l4.4-0.8l4.3-1l8.7-2.1l4.3-1c1.4-0.3,2.9-0.7,4.3-1.1l17.1-4.8l16.9-5.5
			c1.4-0.4,2.8-1,4.2-1.5l4.2-1.6l8.3-3.1c22-8.7,43.3-19.2,63.4-31.4c20.2-12.3,39.4-26.1,57.3-41.5c18-15.3,34.8-32.1,50.4-49.9
			c3.9-4.5,7.6-9.1,11.4-13.6c3.7-4.7,7.3-9.3,10.9-14c3.5-4.8,7.1-9.5,10.5-14.4l5.1-7.3c1.7-2.4,3.4-4.9,5-7.4
			c6.5-9.9,12.8-20,18.8-30.3l4.5-7.7c1.5-2.6,2.9-5.2,4.3-7.8l4.3-7.8l4.1-7.9c10.9-21.2,20.7-43,29.8-65.2l1,0.4
			c-7.3,22.9-15.9,45.3-25.8,67.2l-3.7,8.2l-3.9,8.1c-1.3,2.7-2.6,5.4-4,8.1l-4.2,8c-5.6,10.7-11.6,21.2-17.9,31.4
			c-1.5,2.6-3.2,5.1-4.8,7.7l-4.9,7.6c-1.6,2.6-3.4,5-5.1,7.5l-5.1,7.5c-3.6,4.9-7.2,9.7-10.8,14.6c-3.8,4.7-7.5,9.5-11.4,14.2
			c-15.5,18.6-32.5,36-50.8,51.9c-36.7,31.8-79.3,56.7-124.7,73.7l-8.6,3.1l-4.3,1.5c-1.4,0.5-2.9,1-4.3,1.4l-17.4,5.3l-17.6,4.5
			c-5.9,1.4-11.8,2.5-17.7,3.7l-4.4,0.9l-4.5,0.7l-8.9,1.4l-4.5,0.7c-1.5,0.2-3,0.5-4.5,0.6l-9,1l-9,1c-0.7,0.1-1.5,0.2-2.2,0.2
			l-2.3,0.2l-4.5,0.3l-9,0.6c-3,0.2-6,0.5-9,0.5c-12.1,0.5-24.2-0.1-36.3-1.4c-3-0.3-6-0.6-9-1.1c-3-0.5-6-0.9-8.9-1.4l-8.9-1.7
			c-3-0.6-5.9-1.3-8.8-2c-11.7-2.9-23.3-6.3-34.6-10.3C292,288.7,280.9,284,270,279c-10.9-5-21.6-10.6-32.1-16.5
			c-10.5-5.8-20.8-12.2-30.8-18.8c-5.1-3.3-10-6.7-15-10.1c-4.9-3.5-9.8-7-14.6-10.6l-3.6-2.7l-3.6-2.8c-2.4-1.9-4.8-3.7-7.1-5.6
			l-7-5.7c-2.3-1.9-4.6-3.9-6.9-5.8c-9.1-7.9-18.1-15.9-26.8-24.3c-8.7-8.4-17.1-16.9-25.4-25.7c-8.3-8.8-16.3-17.7-24.2-26.8
			c-7.9-9.1-15.5-18.4-23-27.8C42.3,86.4,35,76.8,27.9,67.2c-3.6-4.8-7.1-9.7-10.6-14.6c-3.5-4.9-6.9-9.8-10.3-14.8
			c-6.8-9.9-13.3-20-19.7-30.2c-6.3-10.2-12.5-20.5-18.2-31.1L-29.8-24.1z"/>
	</g>
	<g class="st5">
		<path class="st22" d="M713.7-32.7C712.4-20.8,710.8-9,709,2.7c-1.9,11.8-3.8,23.5-6.1,35.2c-1.1,5.9-2.3,11.7-3.4,17.5
			c-1.2,5.8-2.5,11.7-3.7,17.5c-2.6,11.6-5.3,23.3-8.2,34.8c-2.9,11.6-6,23.1-9.3,34.6c-3.3,11.5-6.8,22.9-10.5,34.2
			c-3.7,11.4-7.6,22.7-11.8,33.8c-4.1,11.2-8.6,22.3-13.4,33.3c-9.5,21.9-20.2,43.4-32.3,64c-12.1,20.6-25.6,40.5-41.1,58.7
			c-7.7,9.2-16.1,17.7-25,25.7c-8.9,8-18.6,15.1-29,21.2c-2.6,1.5-5.2,3.1-7.9,4.3l-4.1,2c-0.7,0.3-1.3,0.7-2,1l-2.1,0.9
			c-5.5,2.4-11.2,4.4-17,6.1c-11.6,3.2-23.8,4.9-35.9,4.7c-12.2-0.2-24.2-2.1-36-5.1l-4.4-1.1l-4.3-1.4l-4.3-1.4
			c-1.5-0.4-2.8-1.1-4.3-1.6c-2.8-1.2-5.7-2.2-8.4-3.5l-4.1-1.9l-2.1-1c-0.7-0.3-1.3-0.7-2-1.1c-10.8-5.6-21-12.4-30.4-20.2
			c-9.4-7.7-18-16.4-25.9-25.6c-7.9-9.2-15.1-19-21.7-29.1c-6.6-10.1-12.5-20.7-17.9-31.4c-10.9-21.5-19.5-44-26.9-66.9
			c-3.6-11.4-6.8-23-9.8-34.6c-3-11.6-5.6-23.3-7.9-35c-2.3-11.7-4.4-23.5-6.2-35.3c-1.8-11.8-3.3-23.7-4.7-35.5
			c-1.4-11.9-2.5-23.7-3.4-35.6c-0.9-11.9-1.6-23.8-2.1-35.7c-0.5-11.9-0.8-23.8-0.8-35.7c0-11.9,0.1-23.8,0.7-35.7l1,0
			c0.3,11.9,0.9,23.7,1.6,35.6c0.7,11.9,1.6,23.7,2.6,35.5c1,11.8,2.3,23.6,3.6,35.4c1.4,11.8,2.9,23.5,4.6,35.2
			c1.7,11.7,3.6,23.4,5.7,35.1c2.1,11.6,4.4,23.2,6.9,34.8c5.1,23.1,11,46,18.3,68.4c3.7,11.2,7.5,22.3,11.9,33.2l3.3,8.2l3.5,8.1
			c1.1,2.7,2.4,5.3,3.6,8l1.8,4l1.9,3.9c10.3,21.1,22.6,41.2,37.5,59.1c7.4,9,15.6,17.3,24.4,24.9c8.8,7.6,18.4,14.2,28.5,19.9
			c10.1,5.6,20.9,10.2,32,13.5c11.2,3.3,22.7,5.6,34.3,6.2c11.6,0.5,23.3-0.5,34.7-3.4c5.7-1.4,11.3-3.2,16.7-5.4l2.1-0.8
			c0.7-0.3,1.3-0.6,2-0.9l4-1.9c2.7-1.2,5.2-2.7,7.8-4.1c10.3-5.7,19.8-12.8,28.7-20.6c4.5-3.8,8.7-8,12.8-12.3l6-6.5l5.8-6.7
			c7.5-9.1,14.4-18.7,20.9-28.6c6.4-9.9,12.3-20.2,17.9-30.6c5.6-10.4,10.7-21.1,15.6-31.9c4.9-10.7,9.5-21.7,13.9-32.6
			c8.8-21.9,16.9-44.2,24.4-66.7c3.8-11.2,7.3-22.5,10.7-33.9c3.5-11.3,6.8-22.7,9.9-34.1c3.1-11.4,6.2-22.9,9.2-34.4
			c1.5-5.7,2.9-11.5,4.3-17.3c1.4-5.8,2.8-11.5,4.2-17.3c5.4-23.1,10.5-46.3,15-69.7L713.7-32.7z"/>
	</g>
	<path class="st23" d="M512.7,965c0,0-99.8,23.7-92.8-76.1l2-78.8l78.5,38.1c28.6,13.9,45.9,44.2,42.3,75.7
		C540.8,941.1,532.9,957.3,512.7,965z"/>
	<g class="st5">
		<path class="st24" d="M505.8,956.8c0,0-73.9-13-71-28.9C437.9,911.9,505.8,956.8,505.8,956.8z"/>
		<g>
			<path class="st24" d="M513.8,961.8c0,0-59-116.8-82.9-137.7C430.9,824.1,479.9,857,513.8,961.8z"/>
			<path class="st24" d="M515.8,956.8c0,0,18-48.9,8-72.9C513.8,860,515.8,956.8,515.8,956.8z"/>
			<path class="st24" d="M510.8,942.8c0,0,2-72.9-6-79.8C496.9,856,510.8,942.8,510.8,942.8z"/>
			<path class="st24" d="M497.9,907.9c0,0-3-54.9-12-59.9S497.9,907.9,497.9,907.9z"/>
			<path class="st24" d="M479.9,876c0,0-10-37.9-13-38.9C463.9,836,479.9,876,479.9,876z"/>
			<path class="st24" d="M493.9,935.9c0,0-41-12-53-33.9C428.9,880,493.9,935.9,493.9,935.9z"/>
			<path class="st24" d="M478.9,908.9c0,0-50-27.9-48-35.9C432.9,865,478.9,908.9,478.9,908.9z"/>
			<path class="st24" d="M460.9,881c0,0-34-31.9-31-37.9C432.9,837,460.9,881,460.9,881z"/>
		</g>
	</g>
	<polygon class="st23" points="559.2,1055.3 486.9,893.9 528.1,1000.3 471.9,997.7 531.6,1009.3 555.8,1071.6 	"/>
	<polygon class="st19" points="600.8,1071.6 607.8,1071.6 635.3,983.5 607.8,1053.8 555.8,911.9 604.3,1062.7 	"/>
	<polygon class="st25" points="696.4,1071.6 714.7,967.8 685.4,1071.6 	"/>
	<path class="st19" d="M618.9,1033.3c0,0-52.7-78.9,23.4-104.4s86.7-18.2,86.7-18.2s-10,53.8-17.7,74
		C694.4,1029,690.3,1060.6,618.9,1033.3z"/>
	<path class="st25" d="M622.8,1025.7c0,0,41-91.8,102.9-110.8C725.7,914.9,664.7,946.8,622.8,1025.7z"/>
	<path class="st25" d="M624.8,1025.7c0,0,45,4,61-12L624.8,1025.7z"/>
	<path class="st25" d="M634.8,1014.7c0,0,53-13,62-27.9C705.7,971.8,634.8,1014.7,634.8,1014.7z"/>
	<path class="st25" d="M651.7,993.7c0,0,53-31.9,60-41.9C718.7,941.8,651.7,993.7,651.7,993.7z"/>
	<path class="st25" d="M677.7,963.8c0,0,40-23,41-29.9C719.7,926.9,677.7,963.8,677.7,963.8z"/>
	<path class="st25" d="M621.8,1016.7c0,0-22-46.9-10-56.9C623.8,949.8,621.8,1016.7,621.8,1016.7z"/>
	<path class="st25" d="M629.8,1001.7c0,0-7-49.9,2-59.9C640.8,931.9,629.8,1001.7,629.8,1001.7z"/>
	<path class="st25" d="M639.8,984.8c0,0,7-48.9,21-55.9C674.7,921.9,639.8,984.8,639.8,984.8z"/>
	<path class="st25" d="M662.7,952.8c0,0,22-29.9,29-32.9C698.7,916.9,662.7,952.8,662.7,952.8z"/>
	<g class="st5">
		<path class="st26" d="M705.5,1001.4c0,0-58.5-136.9,138.9-95.5l90.2,30.4c0,0-26.8,44.4-67,77.3
			C828.3,1045.6,757.3,1075.6,705.5,1001.4z"/>
		<g>
			<path class="st27" d="M706.7,999.6c0.2-1.3,0.5-2.5,0.9-3.7l0.3-0.9l0.4-0.9c0.2-0.6,0.5-1.2,0.8-1.8c1.1-2.3,2.5-4.5,3.9-6.7
				c0.8-1,1.5-2.1,2.3-3.1c0.8-1,1.7-2,2.5-2.9l2.7-2.8l2.8-2.6c7.8-6.8,16.7-12.2,26-16.6c9.3-4.4,19.1-7.8,28.9-10.6
				c4.9-1.5,9.9-2.6,14.9-3.8c2.5-0.5,5-1,7.5-1.5l3.8-0.7c1.3-0.2,2.5-0.4,3.8-0.6c20.2-3.3,40.6-4.9,61-5.3
				c20.4-0.4,40.7,0.4,61,2.4c-20.3,0.6-40.6,1.1-60.8,2.3c-20.2,1.3-40.3,3.2-60.2,6.5c-1.2,0.2-2.5,0.4-3.7,0.6l-3.7,0.7
				c-2.5,0.5-4.9,0.9-7.4,1.4l-7.4,1.6c-2.5,0.5-4.9,1.2-7.3,1.8c-9.7,2.5-19.3,5.6-28.5,9.4l-3.4,1.5c-1.1,0.5-2.3,1-3.4,1.6
				l-3.3,1.7c-0.6,0.3-1.1,0.5-1.7,0.8l-1.6,0.9l-3.3,1.8l-3.2,2c-0.5,0.3-1.1,0.7-1.6,1l-1.5,1.1l-1.5,1.1c-0.5,0.4-1,0.7-1.5,1.1
				c-4,3-7.7,6.4-11,10.2c-1.6,1.9-3.1,3.9-4.4,6.1C708.6,994.9,707.4,997.1,706.7,999.6z"/>
			<path class="st27" d="M723.5,985.9c0,0,0,40.2,48.1,46.2C771.6,1032.1,758.2,993.8,723.5,985.9z"/>
			<path class="st27" d="M744.5,975.9c0,0,34.7,34.7,85.3,35.9C829.8,1011.7,781.7,977.7,744.5,975.9z"/>
			<path class="st27" d="M782.3,961.3c0,0,56,28.6,87.7,24.3C870,985.6,810.3,958.8,782.3,961.3z"/>
			<path class="st27" d="M843.8,951.5c0,0,36.5,14,65.2,6.7C909,958.2,880.3,947.9,843.8,951.5z"/>
			<path class="st27" d="M717.1,969.8c0,0-15.2-45,14-56C731.1,913.8,731.7,935.7,717.1,969.8z"/>
			<path class="st27" d="M734.8,957c0,0,5.4-47,33.8-51.6c0.3-0.1,0.6-0.1,1-0.1C798.7,901.6,737.8,952.1,734.8,957z"/>
			<path class="st27" d="M760.9,944.8c0,0,21.3-36.5,53.6-37.7C814.6,907.1,761.6,944.2,760.9,944.8z"/>
			<path class="st27" d="M788.4,937.5c0,0,28.6-22.5,56.6-21.3C845,916.2,818.2,933.9,788.4,937.5z"/>
			<path class="st27" d="M840.1,930.2c0,0,23.1-10.3,39.6-7.9C879.7,922.3,852.3,930.8,840.1,930.2z"/>
		</g>
	</g>
	<path class="st25" d="M742.8,1071.6h8.7l38.9-202.8l23.3-55.7L793.4,853l17.2-89.8c0,0-12.1,53.6-26.4,118
		c-2.2-7.4-12.8-42.3-14.6-43.1c-1.8-0.9,10.6,41.6,13,50.1C767.9,954.8,751.1,1031.1,742.8,1071.6z"/>
	<path class="st28" d="M1439.5,1028.3c3-1.3,6-2.7,9-4.1c24.8-11.7,48.8-25.7,69.4-44c0,0,4.8-21-98.3,7.8l-39.7,11.1
		c0,0,60.5-31.5,53.7-37c-3.8-3.1-36.2,9.1-64.5,20.7c10.5-4.9,20-9.9,24.7-13.7c13.1-10.6-65.7,19.8-71.1,21.8
		c4.9-1.9,70.4-27.5,74.8-38.1c4.5-11-143,44.9-143,44.9s63.7-27.7,71.8-36.9c5.3-6-29.9,5-55.4,13.4c7.8-9.7,17.6-26.4,29.6-54.4
		c32-74.8-9.9-2.8-25.5,24.6c12-21.7,40.2-75.1,44-105.7c4.9-39.1-18.7,47-41.6,81c-22.8,34-67.2,61.1-67.2,61.1s68.2-60.9,79-112.6
		c10.8-51.8-29.8,51.5-54.7,67.9c-10.7,7.1-32.3,16.4-53.3,24.7c18.7-11.8,38.8-30.4,54.2-59.7c5.6-10.7,11.8-21.4,17-32.3
		c-17.7,24-36.5,44.4-57.3,65.3c-31.9,32-78.7,54.7-102.6,93.8c-0.1,0.2-0.2,0.4-0.3,0.6H1439.5z"/>
	<polygon class="st23" points="1277.3,247.2 1283.3,216.3 1299.3,230.2 1294.3,245.2 	"/>
	<polygon class="st25" points="1357.5,423.1 1363.3,462.8 1398.2,511.7 1411.2,480.7 1395.2,469.8 1404.2,436.8 1402.2,469.8 
		1416.2,417.9 1414.2,393.9 1402.2,364.1 1359,419.4 	"/>
	<polygon class="st23" points="1244.3,266.2 1195.4,288.1 1184.4,280.1 1139.4,306.1 1062.5,347 1139.4,279.1 1095.4,290.1 
		1096.4,259.2 1155.4,255.2 1186.4,237.2 	"/>
	<polygon class="st23" points="1340.3,464.8 1369.2,495.7 1376.2,546.6 1370.2,565.6 1330.3,508.7 	"/>
	<path class="st25" d="M1332,405.5c-2.1,0.3-4.1,0.7-6,1.7c-1.8,0.9-3.4,2.4-4.9,3.8c-12.7,11.9-25.5,23.8-38.2,35.7
		c-1.7,1.6-3.4,3.2-4.6,5.1c-1.6,2.4-2.4,5.3-3.2,8.1c-4.7,16.5-10.7,32.7-17.9,48.3c9-8.8,19.8-15.8,31.5-20.4c1.3-0.5,2.7-1,3.6-2
		c1.1-1.2,1.5-2.9,1.9-4.5c3-11.9,9.5-22.8,18.4-31.2c4.1-3.9,9.1-8,9-13.6c-2.3,8.3-7,15.7-10.1,23.8c-5.2,13.8-5.3,28.9-5.3,43.6
		c2.7-5.6,5.5-11.2,8.2-16.8c-0.4,13.4,1,26.8,4.1,39.8c1,4.1,2.1,8.2,4.1,12c4.7,8.7,14.1,15.8,13.9,25.7
		c0.5-6.4,5.2-11.6,7.3-17.7c2.5-7.3,1-15.2,1-22.9c-0.1-9.3,1.9-18.6,2.4-27.9c0.9-17.1-3.3-34-8.3-50.3c-0.4-1.4-0.9-2.9-0.8-4.4
		c0.1-1.5,0.8-2.9,1.4-4.3c2.8-5.6,5.9-11,9.4-16.2c3.5-5.2,9.3-10.3,12.1-15.8c3.7-7.3-3-3.6-8.1-2.6
		C1346.1,403.8,1339,404.4,1332,405.5z"/>
	<polygon class="st25" points="1365.6,397.9 1268.3,386.9 1259.3,359 1280.3,371 1291.3,373 1293.3,360 1304.3,367 	"/>
	<polygon class="st25" points="1242.1,261.8 1194.4,206.3 1192.4,223.2 1128.4,237.2 	"/>
	<polygon class="st25" points="1284.4,243.9 1237.9,229 1256.3,221.1 1263.6,208.2 	"/>
	<path class="st29" d="M137.1,7.2L119.6,23c-10.7,9.7-16.9,23.4-17.1,37.9c-0.4,38.9,3.1,117.4,35.5,162.2l3-63.1l-18-45.7
		l20.9,33.5l5.5-16.5l-2.3-4.5l-9.5-18.2l13.5,14.8c0,0-8.8-58.9,31.3-102l9.3-23.8l0,0C173.3-10,152-6.3,137.1,7.2z"/>
	<path class="st30" d="M71.8,3.3c0,0-139.4,121-45,350.4l20.1-86l-9.8-33.5l11.3,21.6l17.2-63.2l-11.2-53.8l13.9,33l17.9-61.1
		L71.8,73.7l15.9,25.2l59.6-127.2L71.8,3.3z"/>
	<path class="st31" d="M154.3,0.5c42.3-23.6,96-25.3,130.3-3.9c33,20.5,63.2,59.2,62.7,132.3c-1.1,159.8-31.9,177.3-31.9,177.3
		l-20.1-73.6l21.9-36.7l-23.1,32.4l-21.9-36.5l23.6-37.2l-25.6,29.9l-27.4-40.2l18.2-37L240.9,137l-25.7-47.2l12.2-25.5l-14.5,17
		L154.3,0.5L154.3,0.5z"/>
	<path class="st32" d="M70.1,727.3c0,0,63.3-169.3,90.4-449.8c7.5-77,7.9-154.6,1.5-231.7l-2-24.1h-22c0,0-10,215.6-137.9,435.2
		C0.2,456.8-56.8,708.3,70.1,727.3z"/>
	<path class="st33" d="M73.5,448.5c2.2-8.4,6.3-16.2,10.3-23.9c11.6-22.1,23.2-44.1,34.8-66.2c8.8-16.6,17.7-33.9,19.2-52.6
		c2-25-9.6-49.2-10.6-74.2c-0.5-11.6,1.2-23.1,3-34.5c2.1-13.9,4.2-27.8,6.3-41.7c0.5-3.4,1.2-7,3.8-9.2c0.3-0.2,0.6-0.4,1-0.6
		c7.6-3.7,13.2-10.6,13.8-19c0.6-9.1-0.7-18.5-2.6-27.4c-3.7-16.5-9.3-33-7.8-49.8c0.6-6.6,5-17.9,6.3-27.6h-12.9
		c0,0-10,215.6-137.9,435.2c0,0-5.7,25.1-9.5,60c7.4,34.2,21,67.1,41.5,95.5c1.9,2.7,4.8,4.6,8.1,5c8.5,1.3,12.3-7.7,14.1-15
		c10.2-40.3,15.7-81.9,16.4-123.5C71,468.7,70.9,458.3,73.5,448.5z"/>
	<g class="st34">
		<path class="st35" d="M134.5,58.7c-0.1,1-0.3,2-0.4,3.1c9.4,3.8,19.5,5.1,29.4,3.9c-0.1-1-0.1-2-0.2-3
			C153.6,63.9,143.8,62.6,134.5,58.7z"/>
		<path class="st35" d="M131.5,80.9c-0.1,1-0.3,2-0.5,3c10.8,4.5,22.2,5.8,33.8,3.9c0,0,0.1,0,0.1,0c0-0.9-0.1-1.9-0.2-2.8
			c-0.2-0.1-0.5-0.1-0.7,0C152.9,86.8,141.8,85.4,131.5,80.9z"/>
		<path class="st35" d="M165.5,108.9c0.1,0,0.2-0.1,0.2-0.1c0-0.9-0.1-1.8-0.1-2.7c-0.3-0.1-0.6-0.2-1-0.1
			c-12.4,2.9-25.1,1.7-36.7-3.5c-0.2,1-0.3,2-0.5,3C139.6,110.7,152.6,111.9,165.5,108.9z"/>
		<path class="st35" d="M166.2,123.3c-13.5,3-27.4,1.5-40-4.3c-0.4-0.2-0.8-0.2-1.1-0.1c-0.2,0.9-0.3,1.7-0.5,2.6
			c0,0,0.1,0.1,0.1,0.1c13.1,6.1,27.5,7.8,41.6,4.8C166.2,125.3,166.2,124.3,166.2,123.3z"/>
		<path class="st35" d="M163.3,159.3c-15.4,4.2-31.6,2.1-45.4-5.9c-0.2,1-0.5,2-0.7,3.1c14.2,8,31,10.1,46.9,5.7
			C165.9,161.6,165.2,158.7,163.3,159.3z"/>
		<path class="st35" d="M162.1,191.7c-8.7,0.9-17.5,0.9-26.2-0.2c-7.8-1-18.3-2.1-23.1-9.2c-0.4-0.6-1-0.8-1.6-0.6
			c-0.2,0.9-0.4,1.7-0.7,2.6c4.5,6.2,12.1,8,19.4,9.3c10.7,1.9,21.5,2.2,32.2,1.1C164,194.5,164,191.5,162.1,191.7z"/>
		<path class="st35" d="M120,231.6c11,2.9,22.4,4.1,33.8,3.7c1.9-0.1,1.9-3.1,0-3c-9.9,0.3-19.7-0.5-29.4-2.7
			c-7.8-1.8-17.6-3.9-21.4-11.8c-0.3-0.6-0.8-0.8-1.3-0.7c-0.3,1-0.6,2-0.9,3C104.6,227.1,112.6,229.7,120,231.6z"/>
		<path class="st35" d="M149.3,290.2c1.9-0.1,1.9-3.1,0-3c-22.8,1.8-45.5-4.9-63.7-18.7c-0.3,1-0.7,2-1,3
			C103.1,285.2,126.1,292,149.3,290.2z"/>
		<path class="st35" d="M153.4,320.1c-27.8,4.8-56.9-2.4-79.3-19.5c-0.4,1-0.7,1.9-1.1,2.9c23.1,17.3,52.6,24.5,81.2,19.5
			C156.1,322.7,155.3,319.8,153.4,320.1z"/>
		<path class="st35" d="M54.1,351.8c27.2,17.8,60.3,24.7,92.4,19.5c1.9-0.3,1.1-3.2-0.8-2.9c-31.3,5.1-63.6-1.8-90.1-19.2
			c-0.4-0.3-0.8-0.3-1.1-0.2c-0.3,0.7-0.6,1.4-0.9,2.1C53.7,351.4,53.9,351.6,54.1,351.8z"/>
		<path class="st35" d="M128.1,436.4c1.9-0.1,1.9-3.1,0-3c-35.3,2.2-70.5-10.5-96.1-34.9c-0.1-0.1-0.2-0.2-0.3-0.2
			c-0.5,0.9-0.9,1.8-1.4,2.8C56.4,425.7,92.2,438.7,128.1,436.4z"/>
		<path class="st35" d="M125.8,498.4c-42.6-1.6-79.8-26-110.3-53.9c-1.4-1.3-3.5,0.8-2.1,2.1c31.1,28.5,69,53.2,112.5,54.8
			C127.7,501.5,127.7,498.5,125.8,498.4z"/>
		<path class="st35" d="M118.9,547.3c-30.8,0.5-60.6-14.2-78.8-39c-0.7-0.9-1.9-1-2.6,0c-1,1.6-1.3,2.8-1.1,4.6c0.2,1.9,3.2,1.9,3,0
			c0-0.2,0.1-0.3,0.1-0.5c18.9,24,48.3,38.2,78.9,37.9c0.2-1,0.4-2,0.6-3C119.1,547.3,119,547.3,118.9,547.3z"/>
	</g>
	<path class="st36" d="M148-25.9c0,0-146.8-55.2-232.8,110.4l-19,55.9l80.9-47.9l9-36.9l-5,31.9l27-13l30-46.9l-14,37.9l30-10
		l10-43.9l-2,36.9l93.9-47.9L148-25.9z"/>
	<path class="st37" d="M209.1-34.3c0,0-64,15.1-125.2,63.9C6.4,91.4-27.8,189.9-5.6,284.1l0,0l49.7-89.5l2.4-75.5l7.3,58.1
		l12.1-20.9L72,91.2l7.3,45.3C79.3,136.6,133.9,8.7,209.1-34.3z"/>
	<path class="st38" d="M129.1-27.3c24.1-7.6,50.4-2.6,70.2,13.2c41.1,32.9,102.2,98.7,90.7,193.4C273,320.1,217,317.1,217,317.1
		l-6-121.8l28-54.9l-31,47.9l-10-58.9l19-43.9l-22,34.9l-15-62.9l20-19l-25,13L129.1-27.3L129.1-27.3z"/>
	<path class="st39" d="M343.4-31.8c-5.6-3.8-11-7.1-16.2-10.1H208.7c-5.3,6.7-7.5,12.2-7.5,12.2l129,99.1l4.6-30.4l8.8,35.4l34,11.4
		l3.7-42.3L385,90l58.2,51.5C443.1,141.6,455.5,43.5,343.4-31.8z"/>
	<path class="st40" d="M557,1069.2c8.8-93.1-8.5-107-8.5-107c-30.4,20.9-49.1,63.6-60.6,107H557z"/>
	<path class="st41" d="M385.1,1069.2C360.2,907.7,329,895.9,329,895.9c-31.5,41.4-28.5,115.3-19.5,173.2H385.1z"/>
	<polygon class="st19" points="294.6,1071.6 283,1030.7 279,1010.7 280,953.8 287,878 287,799.1 243,713.3 126.1,799.1 157.1,705.3 
		129.1,730.3 126.5,663.4 110.1,601.5 87.1,735.2 24.2,718.3 -59.8,739.2 -77.2,1071.6 	"/>
	<path class="st19" d="M368.6,1069.2h152.5l-25.2-141.3l-54,76.9l-14-41.9l-11,32.9l-15-90.8l4,119.8l-34-88.8
		C371.9,935.9,370,1010.9,368.6,1069.2z"/>
	<path class="st42" d="M269.7,1069.2l0.5-0.5c1.8-1.8,4-1,5.2,0.5h72.5c-61.8-144.2-93.8-147.6-93.8-147.6
		C236.9,962.3,250.8,1020.3,269.7,1069.2L269.7,1069.2z"/>
	<g class="st5">
		<g>
			<path class="st43" d="M317.7,1064.4c-23.4-38.9-41.3-80.8-53.6-124.5c-0.9-3.1-5.7-1.8-4.8,1.3c12.4,44.1,30.5,86.4,54.1,125.7
				C315.1,1069.7,319.4,1067.2,317.7,1064.4L317.7,1064.4z"/>
		</g>
	</g>
	<g class="st5">
		<g>
			<path class="st44" d="M354.2,1066.1c-4.9-50.2-16.6-99.5-19.7-149.8c-0.2-3.2-5.2-3.2-5,0c3,50.4,14.8,99.7,19.7,149.8
				C349.5,1069.3,354.5,1069.4,354.2,1066.1L354.2,1066.1z"/>
		</g>
	</g>
	<g class="st5">
		<g>
			<path class="st45" d="M527,1066.7c7.1-31.6,15.2-62.9,23.6-94.2c0.8-3.1-4-4.4-4.8-1.3c-8.4,31.3-16.5,62.6-23.6,94.2
				C521.4,1068.5,526.3,1069.8,527,1066.7L527,1066.7z"/>
		</g>
	</g>
	<g class="st5">
		<g>
			<path class="st46" d="M916.6,928.3l0,49.4l32.1-8.7l-29.9,23.5c0,0-6.1,14.4-0.4,35.8h43.4c9.7-77.3,18.3-220.7-37.4-293.3
				L912,914.6l23.1-2.6L916.6,928.3z"/>
			<path class="st46" d="M964.4,730.5c1,12.4,3.1,24.7,5.5,36.8c6.3,31.7,14.3,63.1,21.7,94.5c3.9,16.5,7.5,33.1,11.9,49.4
				c-5.9,33.3-13.4,66.4-22.7,99c-1.7,6.1-3.5,12.1-5.4,18.1h7.5c9.6-32,17.4-64.5,23.8-97c0.8-3.8,1.5-7.7,2.2-11.5
				c1.3-0.3,2.4-1.5,2-3.3c-0.2-1.3-0.5-2.6-0.8-3.8c3.4-19.4,6.3-38.8,8.6-58.4c21.5-40.9,48.3-78.3,79.3-112.2c0.1,0,0.3,0,0.4,0
				c0.8,1.1,1.7,2.4,2.5,3.2c2.3,1.9,5.1,3.3,8,4c6,1.6,12.6,0.8,18.6-0.4c4.2-0.9,2.7-6.9-1.4-6.4c-5.2,0.6-10.7,1.9-15.9,0.3
				c-2.2-0.7-4.5-1.8-6.1-3.5c-0.7-0.7-1.1-1.4-1.6-2.2c6.1-6.5,12.3-12.9,18.7-19.1c2.8-2.8-1.2-7.3-4.1-4.6
				c-6.6,6.1-13.1,12.4-19.4,18.9c-0.5-11.4,0.7-22.3,2-33.8c0.4-3.6-5.2-4.5-6.2-1.1c-3.9,13-3.6,27.7-1.6,41.1
				c-27.8,29.9-51.8,63.6-71.4,99.3c3.1-30.9,4.8-62,5-93.1c0.2-35.1-1.3-70.2-5.2-105.1c-0.5-4.2-6.8-2.8-6.5,1.4
				c5.5,61.9,6.3,123.8,0.8,185.8c-2,22.6-4.8,45.2-8.4,67.6c-5.4-24.5-11.8-49-17.5-73.4c-6.7-28.7-14.4-57.5-17.4-86.8
				c0.7-0.6,1.2-1.4,1.2-2.3c8.1-13.5,16.6-27.1,23.6-41.2c1.9-3.7-3.2-7.4-5.6-3.7c-7.3,11.5-13.7,23.7-20.1,35.8
				c-0.6-13,0-26,2.2-38.8c8.3-14,17.1-27.9,24.2-42.5c1.8-3.7-3.1-7.2-5.5-3.6c-8.2,12.5-15.2,26-22.3,39.3c-0.8,0.2-1.5,0.9-1.7,2
				c-0.2,0.7-0.3,1.4-0.5,2.1c-0.3,0.5-0.5,1-0.8,1.5c-4.8-8.7-9.8-17.3-15.3-25.4c-2.1-3.1-6.9,0.4-5.3,3.6
				c5.5,10.9,12.2,21.6,18.9,31.9c0.1,0.2,0.3,0.4,0.5,0.6c-1.1,8.5-1.4,17-1.1,25.5c-6.1-8.6-11.6-17.5-17-26.6
				c-2.1-3.6-7.6-0.9-5.8,2.9C946.7,707.9,955.1,720,964.4,730.5z"/>
		</g>
		<path class="st11" d="M857.5,841.1c2.7,3.1,5.9,8.2,10.2,9c2.1,22.1,2.4,44.6,3.9,66.5c2.7,37.4,6.4,74.6,11.3,111.8h6.8
			c-1.8-13.5-3.4-27-4.9-40.5c-4.7-43.7-6.8-87.4-10-131.1c-0.1-1.8-0.3-3.6-0.4-5.4c0.2-0.2,0.4-0.4,0.6-0.7
			c5-7.6,8.6-16.6,12.7-24.8c4.1-8,8.4-15.9,12.2-24.1c1.6-3.5-4.1-6.2-6.1-2.9c-4.7,8-8.8,16.4-13,24.7c-2.5,5-5.3,10.1-7.7,15.3
			c-1.8-16-4.9-31.7-10.6-46.8c-1.3-3.5-7.5-1.4-6.2,2.2c5.5,15.5,8.5,31.6,10.4,47.9c-1-1.3-1.9-2.7-2.4-3.3c-2-2.4-4-4.8-6-7.2
			c-3.8-4.5-7.5-9.2-11.6-13.5c-3-3.1-7.5,1-5,4.4C846.7,828.9,852.2,834.9,857.5,841.1z"/>
		<polygon class="st27" points="851.2,791.9 792.6,791.9 791.9,772.5 795.2,765.5 823.4,762.6 850.6,787.6 826.2,717.1 872.2,752.3 
			866.9,771.8 883.3,774.1 877,796.3 867.1,806.9 		"/>
		<polygon class="st27" points="845.6,824.3 762,854.5 796.7,822.5 789.6,801 		"/>
		<polygon class="st27" points="913.4,783.9 905,757 878.3,815.2 876.8,818.4 877.9,826.5 887.5,825.9 924.7,801.8 		"/>
		<polygon class="st27" points="952.3,676.5 855.9,657.2 897.1,648.5 890,617.9 922.1,606.2 943.8,635.5 955.4,634.2 		"/>
		<polygon class="st27" points="968.9,660.8 991.3,598.5 994.5,625.8 1010.5,613.9 1020.6,626.3 1045.2,634.3 1057.7,645.5 
			969.6,677.2 968.5,655.7 		"/>
		<polygon class="st27" points="1088.8,720.2 1082.3,687.8 1100.3,660.4 1121.2,652.1 1115.4,691.5 		"/>
		<polygon class="st27" points="1096.7,731 1164.9,727.7 1159,708.3 1151.6,702.5 1138.4,688.2 		"/>
		<polygon class="st47" points="848,826.1 832.4,858.4 823.3,849.3 791.4,848 799.8,828.5 		"/>
		<polygon class="st27" points="965.6,723.3 915.8,724.2 919.4,713.2 921.5,706.9 928.1,692.9 		"/>
		<polygon class="st47" points="859,800.1 814.1,787.8 822.3,775.3 844.6,759.4 863.2,776.6 		"/>
		<polygon class="st47" points="876.9,830.9 880.4,801.4 895.6,804.3 903.2,814.9 904.2,824.3 		"/>
		<polygon class="st47" points="956.8,679.1 911.9,680.5 912.4,669.7 923.6,654.1 950,662.7 		"/>
		<polygon class="st47" points="976.5,674.9 961.2,650.2 970.2,632 973.2,629 989.2,651.3 		"/>
		<polygon class="st47" points="1088.8,720.2 1112.1,710.7 1111.4,698 1097.5,693.8 		"/>
		<polygon class="st47" points="1096.7,731 1119.4,749.9 1137.5,760.5 1142.7,747.9 1136.5,725.6 		"/>
	</g>
	<polygon class="st48" points="-14.8,951.8 -3.7,1071.6 144.7,1071.6 189.1,1068.6 107.1,849 65.2,580.5 66.2,461.8 103.1,326 
		89.1,342 60.2,439.8 45.2,375.9 42.2,392.9 51.2,453.8 42.8,519.6 9.2,427.8 -58.8,189.3 -133.7,439.8 -48.8,758.2 	"/>
	<polygon class="st49" points="-14.8,951.8 -3.7,1071.6 129.1,1071.6 129.1,1069.6 62.2,989.8 34.2,847 49.2,847 66.2,975.8 
		75.1,929.9 58.2,820.1 1.2,664.4 22.2,673.4 56.2,768.2 32.2,665.4 -20.8,597.5 -50.8,565.6 -117.8,400.2 -124.4,408.6 
		-133.7,439.8 -48.8,758.2 	"/>
	<polygon class="st49" points="43,518 50.2,541.6 57.2,458.8 43.8,383.6 42.2,392.9 51.2,453.8 	"/>
	<g class="st5">
		<path class="st50" d="M110.8,967.7c8.4,22.7,18,44.9,28.7,66.6C132,1011.2,122.4,989,110.8,967.7z"/>
		<path class="st51" d="M-78.8,256.2c4.5,14.5,9.6,28.7,15.4,42.8c7.5,18.2,16.5,35.6,25.4,53.2c19.1,37.9,29.9,79,42.3,119.4
			c6.4,20.7,14.7,41.9,16.7,63.7c-13.3-26.1-20.6-54.7-27.9-83c-3.9-15-7.9-30-12.9-44.6c-2.3-6.7-4.6-13.6-7.7-20
			c-2.1-4.6-5.1-8.5-10.4-9.1c-0.6-0.1-1.3,0.5-1.4,1.1c-4.5,18.6,4.2,36.1,11.2,52.8c7.7,18.4,12.3,37.8,17.9,56.9
			c5.5,19,12.7,36.8,21.9,54.3c9.3,17.8,18.9,35.5,26.8,54c9.1,21.4,16.6,43.5,22.6,66c0.4,1.7,2.9,1.3,2.9-0.4
			c1-21.1-3.2-41.8-9.7-61.8c-3.2-10-7.1-19.8-10.9-29.6c-3.8-9.7-7.1-19.7-6.7-30.2c5.6,6.9,9.8,14.8,12.4,23.4
			c0.4,1.3,2,1.5,2.7,0.4c16.9-26.8,3.9-60.5,8.6-89.9c2.8-17.8,9-35.2,14.2-52.5c5.3-18,10.6-35.9,16-53.9
			c3.2-10.9,6.5-21.9,9.7-32.8l2.9-10.5l-4.3,5c-8.1,27.3-16.2,54.6-24.3,81.9c-5.2,17.4-11,34.8-15.1,52.5
			c-3.6,15.8-3.5,31.3-2.5,47.4c1,16.4,1.9,33.5-6,48.3c-3.2-9-8-17.1-14.4-24.2c-1-1.1-2.4-0.1-2.6,1.1
			c-2.6,21.1,9.8,41.4,16.3,60.7c5.9,17.4,10.2,35.4,10.8,53.7c-9.7-33.7-23.2-66.1-39.8-97.1C11.9,537.6,2.7,520-3.5,500.9
			c-6.1-18.7-10.3-37.9-16.7-56.4c-6.9-19.9-21-40.9-16.4-62.7c6.7,2,9.4,13.9,11.4,19.4c2.4,6.4,4.5,13,6.5,19.5
			c4.3,14,7.8,28.2,11.5,42.4c7.2,27.4,15,54.9,28.8,79.8c0.7,1.3,2.8,0.7,2.8-0.8c-0.5-20.7-7.7-40.4-13.7-60
			C4.3,461.4-2,440.7-8.4,420c-6.1-19.6-12.5-39.1-21.2-57.7c-8.7-18.5-18.7-36.4-26.9-55.1c-8-18.3-14.9-37.1-20.6-56.2
			L-78.8,256.2z"/>
		<path class="st51" d="M34.5,1071.6h3c-0.8-5-1.8-9.9-3.3-14.4c-7.1-21.4-22.1-42.6-19.3-65.9c15.8,24,17.7,54.1,28.3,80.3h3.1
			c-11.7-27.6-12.8-60.1-31-84.9c-0.7-0.9-2.5-1-2.7,0.4c-5.1,25.5,11,47.9,18.7,71C32.7,1062.3,33.7,1066.9,34.5,1071.6z"/>
		<path class="st51" d="M27.4,916.1c3.8,30.5,8.9,61.1,26.2,87.2c15.7,23.6,37.6,42.4,53.2,66.1c0.5,0.7,0.9,1.5,1.4,2.2h3.5
			c-5.9-9.6-12.9-18.4-20.2-26.9c-19.6-22.8-40.4-44.2-50.2-73.3c-10.3-30.8-10.8-63.6-16.5-95.3c-2.9-15.8-7.1-31.7-5.9-47.9
			c0.7-8.5,3-17.8,8.7-24.4c2.8-3.2,6.8-6.3,11.2-6.5c5-0.2,8.7,3.6,11.3,7.4c9.1,13.2,11.6,29.6,13.8,45.1
			c2.5,17.6,5.1,35.1,8.2,52.6c3,17,5.1,35,10.8,51.4c2.4,6.8,5.8,13,10.4,18.6c5.2,6.4,11.4,12,16.3,18.7
			c9.5,13.1,12.4,29.3,17.5,44.3c4.3,12.6,10,24.7,16.9,36.1h0.7l2.7-0.2c-4-6.3-7.5-12.9-10.7-19.7c-6.9-14.9-10.2-30.9-16.2-46.1
			c-2.6-6.5-5.7-12.6-10-18.1c-4.7-6-10.3-11.2-15.2-17.2c-11.4-14-13.7-32.3-16.9-49.5c-3.4-17.9-6.4-36-9.1-54
			c-2.3-15.7-3.5-32-8.6-47.1c-3.3-9.8-10.3-27-23.3-25.3c-12.9,1.7-19.2,17.3-20.9,28.4c-2.4,14.9,0.7,30.1,3.6,44.7
			C23.3,883.7,25.4,899.8,27.4,916.1z"/>
		<path class="st51" d="M102.9,877.4c-7.3-38.1-11.9-76.9-23.8-113.9c-2.8-8.7-6-17.3-8-26.2c-2.3-10.4-2.1-20.5,0-30.9
			c1.8-8.9,4.2-17.7,5.2-26.8c1-8.9,1.1-17.8,0.1-26.7L74.8,642c-1.4-6.9-3.4-13.7-5.8-20.4c-3.5-10-7.7-20.2-8-30.9
			c-0.2-6.3,1.8-12.2,4.3-17.9l0.1-7.1c-3.3,6.7-6.7,13.5-7.2,20.7c-1.4,18.1,8.8,34.8,12.9,51.9c4.8,19.9,3.5,39.4-1,59.2
			c-2,8.8-4,17.7-3.7,26.8c0.3,8.6,2.5,17.1,5.1,25.3c5.8,18.3,11.3,36.3,15.3,55.1c4,18.9,7,37.9,10.3,56.9
			c6.7,37.8,15.7,75.1,28.5,111.3c7.1,20.1,15.7,39.5,23.2,59.4c4.7,12.5,8.6,25.4,10.6,38.5l3-0.2c-4.1-28.3-17.5-55-27.7-81.7
			C120.7,952.7,110.2,915.4,102.9,877.4z"/>
		<path class="st51" d="M15.4,948.5c8,31.1,18.1,61.5,29.5,91.5c3.9,10.3,7.6,20.8,9.8,31.6h3.1c-1.4-7.4-3.6-14.7-6.1-21.9
			c-5.2-14.8-11-29.3-16.1-44.1c-10.2-30.1-18.7-60.9-25.2-92c-1.9-8.9-3.6-17.9-5.2-26.9c-1.6-8.9-3.3-18-1.8-26.9
			c10,9.8,10.2,26.8,12.6,39.8c3.1,16.5,6.9,32.8,11.5,48.9c9,31.5,20.8,62.2,35.3,91.5c5.3,10.6,10.7,21.4,16.8,31.6H83
			c-2.7-4.7-5.2-9.5-7.6-14c-16.3-29.8-29.7-61.2-40.1-93.6c-5-15.7-9.3-31.6-12.8-47.6c-1.8-8.2-3.4-16.4-4.8-24.7
			c-1.2-7.1-2.1-14.3-4.4-21.2c-1.9-5.7-5-10.8-9.8-14.6c-0.8-0.7-2.2-0.5-2.5,0.7c-3.4,14.3,1,29.9,3.7,44
			C7.8,916.6,11.4,932.6,15.4,948.5z"/>
		<path class="st51" d="M100.2,1029c9.8,12.2,18.3,25.4,25.4,39.4c0.5,1.1,1.1,2.1,1.6,3.2h3.3c-6.8-14.3-15.1-27.9-24.8-40.4
			c-4.6-6-9.8-11.6-14.4-17.7c-2.5-3.3-4.7-6.7-6.4-10.4c-1.5-3.5-3.8-9.8-2.1-13.5c3.9-8.4,17.7,11.1,19.6,14.3
			c3.7,5.8,6.4,12,8.2,18.5c-2.5-2.1-4.9-4.4-7-7c-1.6-2-3.1-4.1-4.4-6.3c-0.5-0.9-1.1-1.9-1.5-2.8c-0.3-0.9-0.8-1.7-1.4-2.4
			c0.1,0,0.3-0.1,0.4-0.2c0.1-0.1,0.3-0.2,0.4-0.2c0.6-0.3,0.8-1.1,0.7-1.7c-0.3-1.6-1.8-2.9-3.5-2c-2.2,1.2-1,4.1-0.3,5.8
			c3.8,8.9,10.5,16.4,18.3,22c1.1,0.8,2.5-0.5,2.2-1.7c-2.9-13.1-9.3-25.3-18.6-34.9c-2.9-3-7.6-8-12.4-6.5
			c-4.8,1.5-4.4,8.1-3.8,12.1C81.8,1009.4,92.3,1019.3,100.2,1029z"/>
		<path class="st51" d="M-34.4,824.4c4.8,19.9,8.6,40,12.5,60c4.1,20.8,7.8,41.6,10.3,62.6c2.5,21,3.7,42.1,6.2,63
			c2.5,21.1,7.1,41.7,13.9,61.5h3c-5-14.2-8.8-28.8-11.3-43.6c-3.3-19.4-4.7-39.1-6.5-58.7c-1.7-18.8-4.1-37.5-7.3-56.2
			c-3.2-18.8-7-37.4-10.8-56.1c-3.8-18.6-7.5-37.2-13.2-55.4c-2-6.2-4.3-12.3-6.8-18.3l3.1,17.9C-38.7,808.8-36.3,816.5-34.4,824.4z
			"/>
		<path class="st51" d="M-16.6,748.7c-1-14.4-3.4-30.7-13.6-41.8c-10.8-11.7-24.4-1.1-28.9,10.8c-0.1,0.3-0.2,0.6-0.3,0.9l1.5,5.7
			c0-0.1,0-0.2,0-0.2c1.7-7.9,6.9-18.7,16.2-19.3c10.2-0.6,16,13.7,18.4,21.6c2.5,8.2,3.3,16.9,3.8,25.4c1,16.4,1,33.2,7.6,48.6
			c0.4,1,2.1,0.9,2.6,0c14.4-26.9,9-58.3,1.8-86.5C-16,679.6-26.1,645.6-37,611.9c-2.8-8.8-6-17.6-8.6-26.5
			c-2.6-8.9-4.2-18.4-0.8-27.2c23.2,26.3,39.3,58.2,46.7,92.6c0.2,1.1,1.7,1.4,2.5,0.7c12.3-12,6.5-30-1.5-42.5
			c-5.4-8.5-11.4-16.6-16.5-25.3c-5-8.6-9.5-17.5-13.7-26.5c-8.6-18.9-15.6-38.5-22.1-58.2c-6.6-20-14.1-40.2-17.5-61
			c-0.8-4.7-5.1-37.1,5.2-34.9c4.8,1,7.8,7.8,9.8,11.8c2.4,4.7,4.3,9.7,5.9,14.8c5.8,18.2,7.6,37.4,11.2,56.1
			c3.7,18.9,10.4,36.1,20.5,52.5c10.4,16.9,22.7,32.4,32.9,49.3c23.6,39.3,36,84.7,36.2,130.5c-12.4-6-17.2-20.7-20.3-33.2
			c-3.1-12.9-5.9-26.5-15.6-36.3c-0.4-0.4-1.3-0.6-1.8-0.2c-8.5,6.5-10.5,17.5-8.3,27.6c2.9,13.8,13.4,24.7,19.3,37.2
			c11.7,24.8,12.6,54,29.3,76.6c1,1.3,3.2,0.6,2.7-1.2c-3.8-15.2-4.3-30.7-1.5-46c6.7,19.2,8.9,39.5,11.3,59.7
			c2.4,20.6,5.5,41.1,9.6,61.5c8.5,41.8,20.8,82.9,36.7,122.5c8.9,22,18.9,43.6,29.9,64.6c0.8,1.5,3.2,0.5,2.7-1.2
			c-9.1-32.5-22.3-63.7-39.2-92.8c-0.4-0.6-0.9-0.8-1.5-0.7c-17.1-48.6-28.8-99-34.8-150.3c-2.8-23.4-5-47.1-13.7-69.2
			c-0.5-1.3-2.5-1.6-2.9,0c-3.4,14.8-3.7,30-1.1,44.9c-11.1-19-13.7-41.8-21.6-62.2c-4.5-11.8-12.1-21.6-17.9-32.7
			c-5.5-10.6-8.6-26.2,1.6-35c18.2,19.9,9.4,58.8,38.2,70.2c0.9,0.4,1.9-0.6,1.9-1.4c0.2-41.7-9.7-83.3-28.9-120.4
			C17.7,581.1,5,564.3-6.7,546.7c-11.7-17.5-20.9-35.6-25.5-56.2c-4.3-19.4-5.9-39.5-11.5-58.7c-2.5-8.7-5.8-18.2-11.1-25.6
			c-3.2-4.4-10.2-9.7-14.9-4.1c-2.3,2.7-2.4,6.8-2.7,10.1c-0.6,5.6-0.5,11.2-0.1,16.7c0.9,10.8,3.4,21.4,6.3,31.7
			c6,21,13,41.8,20.4,62.4c7.9,21.9,17,43.4,28.9,63.5c9.2,15.6,34.8,42,19.4,60.6c-7.9-34.5-24.6-66.5-48.3-92.9
			c-0.6-0.7-1.9-0.5-2.4,0.3c-6.3,13.1-1.9,27.4,2.4,40.4c5.6,16.9,11,33.9,16.2,51c5.1,17.1,10.1,34.2,14.7,51.4
			c4.3,16,8.8,32.2,10.8,48.7c2,16.9,1.1,34.2-6.3,49.7C-15.9,780.9-15.4,764.5-16.6,748.7z M139.6,1034.3
			c-10.7-21.7-20.3-43.9-28.7-66.6C122.4,989,132,1011.2,139.6,1034.3z"/>
	</g>
	<path class="st28" d="M117.1,814.1c0,0-8-146.7,39-279.5S296,421.9,329,439.8l-41,71.9l-76.9-20l72.9,23l-8,21l-85.9-9l-4,9
		l80.9,19l-14,31.9l-74.9-24l71,28.9l-29,47.9l-60-21l55,25l-56-17l52,25.9C211.1,652.4,146.1,733.2,117.1,814.1z"/>
	<path class="st52" d="M120.1,821.1c-2.4,1.3,65.5-60.9,119.9-110.5c59.3-54.1,142.5-73.6,219.5-51.1c26.6,7.8,55.9,19.2,87.3,35.9
		l-130.9,31.9l-3-46.9l-6,49.9l-43,14l6-56.9l-15,60.9l-54,19l18-58.9l-26,61.9l1-52.9l-19,54.9l-53,18l12-46.9l-9,5l-17,43.9
		C208.1,792.1,152.1,804.1,120.1,821.1z"/>
	<path class="st52" d="M129.1,862l79.7,209.6h13.4l1.9-1L135.1,849c0,0-235.4-189.2-241.7-196.4l28.8,38.7L129.1,862z"/>
	<polygon class="st52" points="209.4,1034.5 263,842 203.1,1029.7 	"/>
	<polygon class="st52" points="135.1,849 46.2,659.4 128.1,848 	"/>
	<path class="st28" d="M248.9,886.8c0,0,36.1-94.7,173-90.7l-69,34.9l-1-19L341,840l-14,8l1-23L314,854L248.9,886.8z"/>
	<path class="st28" d="M248.9,890.6c0,0-30.9-53.6-17.9-75.6v-2l13,23l-4,14l6-9l-4,14l4-5l-2,13l5-9L248.9,890.6z"/>
</g>
<rect x="-3" y="-1" class="st53" width="1446" height="1030"/>
</svg>
