<?xml version="1.0" encoding="utf-8"?>
<!-- Generator: Adobe Illustrator 24.0.0, SVG Export Plug-In . SVG Version: 6.00 Build 0)  -->
<svg version="1.1" id="Capa_1" xmlns="http://www.w3.org/2000/svg" xmlns:xlink="http://www.w3.org/1999/xlink" x="0px" y="0px"
	 viewBox="0 0 83 44" style="enable-background:new 0 0 83 44;" xml:space="preserve">
<style type="text/css">
	.st0{fill:#E69F08;}
</style>
<g>
	<path class="st0" d="M37.8,34.8c0,0.1,0,0.3,0,0.4c0,3.2,0,3.3-3.2,4c-4.8,1-10-1.8-9.8-7.4c0.1-3.2,2.3-5.9,5.4-6.7
		c1.8-0.5,3.5-0.4,5.3,0.1c1.5,0.4,2.1,1.9,1.3,3.2c-0.3,0.5-0.6,0.1-0.9,0c-1.6-0.6-3.2-0.9-4.9-0.2c-2.2,0.9-3.2,3.3-2.3,5.6
		c1,2.5,3.4,3,5.5,2.5c0.9-0.2,0.5-1,0.5-1.6c0.1-0.7-0.5-0.5-0.9-0.6C33,34.1,32,34.6,32,33.2c0-1.7-0.1-1.7,1.6-1.7
		c1,0,2.1,0,3.1,0c0.8,0,1.1,0.2,1.1,1.1C37.8,33.3,37.8,34.1,37.8,34.8z"/>
	<path class="st0" d="M80.2,38.9c-2.6,0.5-4.4,0.1-5.5-2.3c-0.4-0.8-1.1-1.5-1.5-2.3c-0.3-0.5-0.7-0.8-1.3-0.6
		c-0.6,0.2-0.4,0.7-0.4,1.1c0,1.1,0,2.1,0,3.2c0,0.8-0.2,1.1-1,1.1c-2.8-0.1-2.3,0.2-2.3-2.2c0-3.6,0-7.1,0-10.7
		c0-1,0.3-1.3,1.3-1.3c1.4,0.1,2.8,0,4.1,0c1.9,0,3.4,0.8,4.2,2.6c0.8,1.7,0.3,3.5-1.3,4.9c-0.7,0.6-0.1,0.9,0.1,1.3
		C77.7,35.4,78.9,37.1,80.2,38.9z M71.4,29.1c0,0.9-0.3,1.9,1.2,1.7c1.5-0.1,2.1-0.5,2.1-1.6c0-1-0.8-1.5-2.1-1.6
		C71.1,27.5,71.4,28.4,71.4,29.1z"/>
	<path class="st0" d="M40,30.2c0-1.4,0.1-2.8,0-4.1c-0.1-1,0.3-1.3,1.2-1.2c0.2,0,0.4,0,0.5,0c1.2-0.2,1.6,0.2,1.5,1.4
		c-0.1,2.4,0,4.9,0,7.3c0,1.1,0.4,2,1.5,2.4c1,0.4,2.1,0.4,3-0.4c0.7-0.6,0.8-1.3,0.8-2.1c0-2.5,0.1-5,0-7.5c0-1,0.3-1.3,1.3-1.3
		c2.2,0.1,2.2,0,2.2,2.2c0,2.1,0,4.2,0,6.3c0,4.4-3.6,7-7.9,5.8c-3-0.9-4.2-2.4-4.2-5.5C40,32.5,40,31.4,40,30.2z"/>
	<path class="st0" d="M53.8,38.9c0.4-1.8,1.3-3.4,1.9-5.1c1-2.7,2.1-5.3,3.1-7.9c0.3-0.7,0.6-1,1.3-0.9c0.7,0.1,1.4-0.1,1.7,0.8
		c1.6,4.1,3.2,8.3,4.8,12.4c0.3,0.6,0.1,0.9-0.6,0.9c-0.5,0-1.1,0-1.6,0c-0.7,0.1-1.1-0.2-1.2-0.9c-0.2-1.6-1.1-2.2-2.7-1.9
		c-0.6,0.1-1.2,0-1.7,0c-0.6,0-1,0.2-1.2,0.8C56.6,39.3,56.6,39.3,53.8,38.9z M60.2,29.5c-0.5,1.3-0.9,2.4-1.2,3.4
		c-0.2,0.5-0.1,0.8,0.5,0.7c0.4,0,0.8,0,1.2,0c0.8,0.1,0.9-0.3,0.7-0.9C61,31.8,60.7,30.8,60.2,29.5z"/>
	<path class="st0" d="M21.9,39c-1.3,0.4-1.8-0.5-2.1-1.7c-0.2-0.8-0.6-1.2-1.5-1.1c-0.4,0.1-0.8,0-1.2,0c-2.3,0-2.3,0-3.1,2
		c-0.3,0.6-2.9,1.1-3.3,0.6c-0.1-0.1,0-0.4,0-0.6c1.7-4.3,3.3-8.5,5-12.8c0.3-0.7,0.8-0.5,1.3-0.5c0.6,0,1.2-0.1,1.5,0.7
		c0.9,2.4,1.9,4.7,2.8,7.1c0.6,1.6,1.2,3.1,1.8,4.7C23.8,39,23.7,39,21.9,39z M17.1,29.8c-0.1,0.1-0.2,0.1-0.2,0.1
		c-0.3,0.8-0.6,1.7-1,2.5c-0.5,1-0.2,1.4,0.9,1.3c1.6-0.1,1.6-0.1,1.1-1.6C17.7,31.3,17.4,30.6,17.1,29.8z"/>
	<path class="st0" d="M8.9,31.8c-0.2,1.9,0.3,4.3-0.3,6.6c-0.6,2.2-2,3.4-4.1,4c-1.3,0.4-1.3-1.1-1.8-1.7c-0.5-0.6,0.3-0.7,0.7-0.8
		c1.2-0.5,1.8-1.4,1.9-2.7c0.3-3.5,0-7,0.1-10.5c0-0.6-0.4-1.5,0.3-1.7c0.9-0.2,2-0.1,2.9,0c0.4,0,0.3,0.6,0.3,0.9
		C8.9,27.8,8.9,29.6,8.9,31.8z"/>
	<g>
		<path class="st0" d="M38.9,13.4c1.6-2,3.8-2.1,6.1-1.7c1,0.2,2.1,0.4,3.2,0.4c1.2,0,2.4,0,3.6-0.1c0.9,0,1.6-0.5,1.6-1.5
			c0-0.5-0.6-0.6-1-0.7c-0.6-0.1-1-0.4-1.5-0.8c-0.5-0.5-0.9-1-0.9-1.7c0-0.4-0.3-0.5-0.6-0.6c-1.1-0.2-2-0.9-2.9-1.4
			c-3.8-2.3-7.8-2.8-12-1.2C33.7,4.4,33.2,5,33,5.6c-0.1,0.3-0.2,0.7-0.2,1.1c0,0.4-0.2,0.8-0.4,1.1c-0.1,0.3-0.2,0.7-0.4,1
			c-0.2,0.4-0.6,0.7-0.9,0.9c-0.4,0.3-0.7,0.6-0.9,1.1c-0.6,1.9-0.7,3.8-0.4,5.7c0.5,2.6,2.2,4,4.8,4c5.3,0,10.7,0,16,0
			c0.4,0,0.7,0,1.1,0c1.1-0.2,1.4-0.9,1.3-2.8c-0.1-1.2-0.9-0.8-1.4-0.8c-3.7,0-7.5,0-11.2,0c-2.6,0-2.9-0.4-1.8-2.8
			c0-0.1,0.1-0.2,0.2-0.4L38.9,13.4z M47.2,9.2c0-0.5,0.3-0.9,0.9-0.9c0.6,0,1,0.4,1,1c0,0.7-0.5,0.8-1,0.9
			C47.4,10.1,47.1,9.8,47.2,9.2z M32.2,11.3c0.7,0,0.9,0.4,1.1,0.9c-0.1,0.7-0.4,1-1.1,1c-0.6,0-0.9-0.4-0.9-1
			C31.3,11.7,31.6,11.3,32.2,11.3z M32.3,16.6c-0.6,0-1-0.3-1-0.9c0-0.6,0.3-0.9,0.9-0.9c0.6,0,1,0.4,1.1,1
			C33.2,16.3,32.9,16.6,32.3,16.6z M49.4,18.6c0-0.6,0.5-0.9,1-0.9c0.6,0,1,0.3,1,0.9c-0.1,0.7-0.4,1-1.1,1
			C49.7,19.6,49.3,19.3,49.4,18.6z M46.3,17.8c0.6,0,1,0.3,1.1,0.9c0,0.7-0.4,1-1,1c-0.5,0-1-0.2-1-0.8
			C45.3,18.1,45.7,17.8,46.3,17.8z M42.2,17.8c0.6,0,1,0.3,1,0.9c0,0.6-0.3,0.9-0.9,0.9c-0.6,0-0.9-0.3-0.9-0.9
			C41.5,18.2,41.6,17.8,42.2,17.8z M36.3,11.3c0.6,0,1,0.4,0.9,1.1c0,0.6-0.4,0.9-1,0.9c-0.7,0-1-0.4-0.9-1
			C35.4,11.6,35.8,11.3,36.3,11.3z M34.4,8.3c0.6,0,1,0.3,1,1c0,0.6-0.4,0.9-0.9,0.9c-0.5,0-0.9-0.2-1-0.8
			C33.5,8.7,33.7,8.3,34.4,8.3z M34.5,19.6c-0.6,0-0.9-0.2-1-0.8c-0.1-0.7,0.3-1,0.9-1.1c0.6,0.1,1,0.3,1,1
			C35.4,19.3,35.1,19.6,34.5,19.6z M36.4,16.6c-0.6,0-1-0.3-1-0.9c0-0.6,0.3-0.9,0.9-0.9c0.6,0,1,0.4,1,1
			C37.2,16.3,36.9,16.6,36.4,16.6z M38.5,17.7c0.6,0.1,1,0.3,1,1c0,0.6-0.4,0.9-0.9,0.9c-0.7,0-1-0.3-1-1
			C37.5,18.1,37.9,17.8,38.5,17.7z M37.4,8.4c-0.6-0.4-0.5-0.7,0-1.1c2.2-2,5.9-2,8,0.1c0.4,0.4,0.4,0.6,0,0.9
			c-1.2,0.9-2.5,1.7-4.1,1.6C39.8,10,38.6,9.3,37.4,8.4z"/>
		<path class="st0" d="M38.8,15.6c0,0.1,0,0.2,0.1,0.3c0.2,0.4,0.8,0.5,1.3,0.5c4.1,0,8.2,0,12.3,0c0.2,0,0.4,0,0.6-0.1
			c0.1-0.1,0.1-0.3,0.2-0.5c0-0.3,0-0.6-0.2-0.8c-0.2-0.2-0.5-0.2-0.8-0.2c-3.8,0-7.6,0-11.3,0c0.5-1,1.4-1.3,2.5-1.2
			c2.4,0.2,4.8,0.6,7.2,0.5c0.7,0,1.4-0.1,2.1-0.3c0.6-0.1,0.5-0.6,0.5-1.1c-0.1-0.4-0.4-0.5-0.7-0.3c-1.8,0.8-3.6,0.4-5.5,0.3
			c-1-0.1-1.9-0.3-2.9-0.4c-0.8-0.1-1.6-0.1-2.4,0.1c-0.7,0.2-1.2,0.6-1.7,1c-0.2,0.2-0.4,0.3-0.6,0.6c-0.1,0.2-0.2,0.5-0.3,0.7
			C38.9,15,38.8,15.3,38.8,15.6z"/>
		<path class="st0" d="M53.4,7c-0.9-0.2-1.8-0.2-2.7,0c-0.3,0.1-0.1,0.2,0,0.4c0.1,0.2,0.1,0.4,0.2,0.6c0.1,0.2,0.2,0.5,0.3,0.7
			c0.3,0.3,0.7,0.5,1,0.6c0.2,0,0.4,0.1,0.6,0.2c0.1,0,0.3,0.1,0.3,0c0.3-0.2,0.3-0.9,0.4-1.1c0-0.2,0-0.4,0-0.6
			C53.6,7.5,53.5,7,53.4,7z"/>
		<path class="st0" d="M32,7.1c0.2-0.6,0.2-1.3,0.2-2c-0.1-1-0.4-1.9-1-2.7c-0.4-0.4-0.6-0.7-1.1-0.1c-1.1,1.2-1.7,3.5-1,5
			c0.3,0.7,0.6,1.9,1.4,2c0.8,0.1,1-1.1,1.4-1.7C31.9,7.4,32,7.3,32,7.1z"/>
		<path class="st0" d="M44.3,7.9c0-0.6-1.7-1.5-2.9-1.4c-1.1,0-2.8,0.8-2.9,1.4c0,0.5,1.7,1.4,2.8,1.5C42.3,9.4,44.2,8.5,44.3,7.9z
			 M40.4,7.9c0.6-0.4,1.1-0.4,1.8,0C41.6,8.3,41.1,8.4,40.4,7.9z"/>
	</g>
</g>
</svg>
